M48
; DRILL file {KiCad 9.0.6} date 2025-12-25T01:52:03-0800
; FORMAT={-:-/ absolute / metric / decimal}
; #@! TF.CreationDate,2025-12-25T01:52:03-08:00
; #@! TF.GenerationSoftware,Kicad,Pcbnew,9.0.6
; #@! TF.FileFunction,Plated,1,2,PTH
FMAT,2
METRIC
; #@! TA.AperFunction,Plated,PTH,ComponentDrill
T1C0.200
; #@! TA.AperFunction,Plated,PTH,ViaDrill
T2C0.300
; #@! TA.AperFunction,Plated,PTH,ComponentDrill
T3C0.600
; #@! TA.AperFunction,Plated,PTH,ComponentDrill
T4C0.900
; #@! TA.AperFunction,Plated,PTH,ComponentDrill
T5C1.000
; #@! TA.AperFunction,Plated,PTH,ComponentDrill
T6C1.600
; #@! TA.AperFunction,Plated,PTH,ComponentDrill
T7C4.500
%
G90
G05
T1
X237.0Y-58.5
X237.0Y-59.5
X237.0Y-60.5
X238.0Y-58.5
X238.0Y-59.5
X238.0Y-60.5
X239.0Y-58.5
X239.0Y-59.5
X239.0Y-60.5
T2
X183.5Y-142.0
X185.5Y-94.0
X186.0Y-103.5
X186.25Y-146.0
X188.5Y-118.0
X189.5Y-100.0
X190.674Y-143.826
X192.0Y-97.5
X192.0Y-143.4
X193.0Y-96.5
X193.5Y-106.0
X193.5Y-146.0
X193.75Y-95.75
X194.424Y-97.924
X194.5Y-90.5
X194.75Y-92.25
X196.25Y-140.0
X197.0Y-142.0
X197.5Y-96.174
X198.0Y-94.5
X198.0Y-119.225
X198.0Y-137.0
X198.007Y-96.9
X199.5Y-137.5
X200.0Y-90.0
X200.0Y-93.0
X200.0Y-104.5
X200.0Y-105.5
X201.498Y-137.225
X201.5Y-99.1
X202.0Y-103.5
X202.5Y-98.6
X203.0Y-137.0
X204.0Y-104.5
X205.0Y-98.299
X205.0Y-99.5
X206.0Y-90.9
X206.0Y-92.5
X206.75Y-146.75
X207.0Y-144.0
X208.0Y-143.5
X209.0Y-119.5
X209.0Y-129.5
X209.5Y-94.5
X209.566Y-130.066
X211.5Y-89.4
X211.5Y-93.0
X211.5Y-138.0
X213.5Y-138.25
X213.5Y-140.5
X218.0Y-108.0
X220.0Y-102.0
X220.0Y-119.0
X221.0Y-125.5
X221.5Y-58.5
X221.5Y-142.5
X221.6Y-96.9
X222.0Y-96.174
X222.15Y-90.3
X222.5Y-95.1
X223.0Y-90.0
X223.25Y-120.75
X223.5Y-111.5
X223.75Y-121.75
X223.975Y-118.576
X224.5Y-96.0
X224.5Y-97.9
X224.5Y-100.1
X224.576Y-117.975
X224.951Y-107.512
X225.0Y-110.0
X225.75Y-142.75
X226.248Y-149.813
X226.4Y-114.0
X226.5Y-116.0
X227.199Y-140.801
X227.4Y-152.322
X227.5Y-28.562
X227.5Y-29.562
X227.5Y-89.0
X227.5Y-97.054
X227.801Y-140.199
X228.0Y-95.0
X228.25Y-142.75
X228.5Y-109.0
X228.75Y-114.25
X228.75Y-152.572
X229.1Y-107.5
X229.5Y-113.0
X229.925Y-56.562
X229.925Y-60.962
X230.5Y-149.822
X231.425Y-58.562
X231.425Y-59.562
X231.425Y-62.562
X232.0Y-32.062
X232.5Y-77.0
X232.5Y-109.0
X232.925Y-66.562
X233.1Y-87.5
X234.0Y-76.5
X234.0Y-92.5
X234.425Y-57.162
X234.5Y-117.5
X234.5Y-143.0
X236.0Y-75.5
X236.4Y-84.5
X236.4Y-85.5
X236.699Y-52.863
X237.301Y-52.262
X237.5Y-82.5
X238.0Y-101.0
X238.1Y-88.0
X238.449Y-55.762
X238.965Y-76.385
X239.0Y-43.637
X239.0Y-44.487
X239.0Y-52.062
X239.0Y-75.5
X239.0Y-80.1
X239.0Y-109.0
X239.051Y-56.363
X239.199Y-77.15
X239.5Y-101.0
X239.624Y-53.687
X239.737Y-54.902
X239.75Y-77.75
X240.0Y-80.5
X240.5Y-101.0
X240.9Y-77.5
X240.9Y-78.5
X240.9Y-81.5
X240.91Y-60.962
X241.0Y-66.0
X241.5Y-115.0
X241.934Y-90.9
X242.077Y-64.063
X242.425Y-62.562
X242.5Y-91.5
X242.601Y-60.967
X242.925Y-58.562
X243.0Y-68.5
X243.0Y-71.0
X243.099Y-57.237
X243.307Y-59.532
X243.425Y-56.062
X243.45Y-60.319
X243.5Y-95.5
X244.0Y-101.5
X244.0Y-118.0
X244.425Y-72.5
X244.5Y-85.0
X244.5Y-94.5
X245.0Y-109.0
X245.5Y-86.0
X246.382Y-70.588
X246.5Y-62.0
X246.5Y-112.5
X246.5Y-113.5
X246.5Y-115.5
X246.5Y-116.5
X246.5Y-117.5
X246.925Y-64.562
X248.0Y-69.0
X249.0Y-93.0
X249.0Y-94.0
X249.0Y-98.5
X249.5Y-56.5
X250.0Y-66.0
X250.0Y-108.5
X250.548Y-94.548
X251.425Y-66.562
X251.425Y-91.0
X252.0Y-98.5
X252.0Y-133.0
X254.5Y-101.012
X254.5Y-144.5
X255.5Y-125.0
X255.5Y-126.0
X257.0Y-134.5
X261.5Y-134.0
T4
X230.85Y-30.782
X233.14Y-30.782
X234.14Y-35.733
X235.16Y-33.192
X236.18Y-35.733
X237.2Y-33.192
X238.22Y-35.733
X239.24Y-33.192
X240.26Y-35.733
X241.28Y-33.192
X242.28Y-30.782
X244.57Y-30.782
T5
X170.0Y-139.5
X175.0Y-119.0
X176.5Y-93.42
X176.5Y-95.96
X176.5Y-98.5
X184.5Y-107.0
X196.5Y-111.0
X197.015Y-151.5
X199.555Y-151.5
X202.095Y-151.5
X204.635Y-151.5
X207.0Y-131.96
X207.0Y-134.5
X207.175Y-151.5
X216.5Y-102.84
X216.5Y-105.38
X216.5Y-107.92
X216.5Y-110.46
X216.5Y-113.0
X216.5Y-115.54
X219.5Y-151.5
X229.0Y-120.46
X229.0Y-123.0
X229.0Y-133.46
X229.0Y-136.0
X239.5Y-141.5
X247.5Y-119.5
X247.5Y-122.04
X251.0Y-155.5
X253.54Y-155.5
X256.08Y-155.5
X260.0Y-32.0
X260.0Y-34.54
X260.0Y-37.08
X260.0Y-39.62
X260.0Y-42.16
X260.0Y-44.7
X260.0Y-50.5
X260.0Y-53.04
X260.0Y-55.58
X260.0Y-64.92
X260.0Y-67.46
X260.0Y-70.0
X260.0Y-79.42
X260.0Y-81.96
X260.0Y-84.5
X260.0Y-91.5
X260.0Y-94.04
X260.0Y-96.58
X260.0Y-99.12
X260.0Y-101.66
X260.0Y-104.2
X260.0Y-110.5
X260.0Y-113.04
X260.0Y-115.58
X260.0Y-118.12
X260.0Y-120.66
X260.0Y-123.2
X260.0Y-129.0
X260.0Y-131.54
T6
X229.58Y-32.383
X245.84Y-32.383
T7
X173.55Y-148.25
X180.75Y-148.25
T3
G00X223.93Y-151.392
M15
G01X223.93Y-152.492
M16
G05
G00X223.93Y-155.822
M15
G01X223.93Y-156.422
M16
G05
G00X232.57Y-151.392
M15
G01X232.57Y-152.492
M16
G05
G00X232.57Y-155.822
M15
G01X232.57Y-156.422
M16
G05
M30
