%TF.GenerationSoftware,KiCad,Pcbnew,9.0.6*%
%TF.CreationDate,2025-12-25T01:52:07-08:00*%
%TF.ProjectId,Breakout V1,42726561-6b6f-4757-9420-56312e6b6963,rev?*%
%TF.SameCoordinates,Original*%
%TF.FileFunction,Soldermask,Bot*%
%TF.FilePolarity,Negative*%
%FSLAX46Y46*%
G04 Gerber Fmt 4.6, Leading zero omitted, Abs format (unit mm)*
G04 Created by KiCad (PCBNEW 9.0.6) date 2025-12-25 01:52:07*
%MOMM*%
%LPD*%
G01*
G04 APERTURE LIST*
G04 Aperture macros list*
%AMRoundRect*
0 Rectangle with rounded corners*
0 $1 Rounding radius*
0 $2 $3 $4 $5 $6 $7 $8 $9 X,Y pos of 4 corners*
0 Add a 4 corners polygon primitive as box body*
4,1,4,$2,$3,$4,$5,$6,$7,$8,$9,$2,$3,0*
0 Add four circle primitives for the rounded corners*
1,1,$1+$1,$2,$3*
1,1,$1+$1,$4,$5*
1,1,$1+$1,$6,$7*
1,1,$1+$1,$8,$9*
0 Add four rect primitives between the rounded corners*
20,1,$1+$1,$2,$3,$4,$5,0*
20,1,$1+$1,$4,$5,$6,$7,0*
20,1,$1+$1,$6,$7,$8,$9,0*
20,1,$1+$1,$8,$9,$2,$3,0*%
G04 Aperture macros list end*
%ADD10R,1.700000X1.700000*%
%ADD11C,1.700000*%
%ADD12C,0.650000*%
%ADD13O,1.000000X2.100000*%
%ADD14O,1.000000X1.600000*%
%ADD15RoundRect,1.500000X-1.500000X-1.500000X1.500000X-1.500000X1.500000X1.500000X-1.500000X1.500000X0*%
%ADD16C,6.000000*%
%ADD17C,2.604000*%
%ADD18C,1.454000*%
%ADD19C,1.612000*%
%ADD20RoundRect,0.102000X-0.704000X-0.704000X0.704000X-0.704000X0.704000X0.704000X-0.704000X0.704000X0*%
%ADD21C,3.250000*%
G04 APERTURE END LIST*
D10*
%TO.C,TP2*%
X184500000Y-107000000D03*
%TD*%
%TO.C,TP4*%
X196500000Y-111000000D03*
%TD*%
%TO.C,TP1*%
X219500000Y-151500000D03*
%TD*%
%TO.C,J1*%
X229000000Y-133460000D03*
D11*
X229000000Y-136000000D03*
%TD*%
D10*
%TO.C,J2*%
X207000000Y-131960000D03*
D11*
X207000000Y-134500000D03*
%TD*%
D10*
%TO.C,J3*%
X207175000Y-151500000D03*
D11*
X204635000Y-151500000D03*
X202095000Y-151500000D03*
X199555000Y-151500000D03*
X197015000Y-151500000D03*
%TD*%
D12*
%TO.C,J4*%
X225360000Y-152472471D03*
X231140000Y-152472471D03*
D13*
X223930000Y-151942471D03*
D14*
X223930000Y-156122471D03*
D13*
X232570000Y-151942471D03*
D14*
X232570000Y-156122471D03*
%TD*%
D10*
%TO.C,J5*%
X216500000Y-115540000D03*
D11*
X216500000Y-113000000D03*
X216500000Y-110460000D03*
X216500000Y-107920000D03*
X216500000Y-105380000D03*
X216500000Y-102840000D03*
%TD*%
D15*
%TO.C,J6*%
X173550000Y-148250000D03*
D16*
X180750000Y-148250000D03*
%TD*%
D10*
%TO.C,J7*%
X260000000Y-129000000D03*
D11*
X260000000Y-131540000D03*
%TD*%
D10*
%TO.C,J8*%
X247500000Y-119500000D03*
D11*
X247500000Y-122040000D03*
%TD*%
D10*
%TO.C,J9*%
X260000000Y-55580000D03*
D11*
X260000000Y-53040000D03*
X260000000Y-50500000D03*
%TD*%
D10*
%TO.C,J10*%
X260000000Y-91500000D03*
D11*
X260000000Y-94040000D03*
X260000000Y-96580000D03*
X260000000Y-99120000D03*
X260000000Y-101660000D03*
X260000000Y-104200000D03*
%TD*%
D10*
%TO.C,J11*%
X260000000Y-123200000D03*
D11*
X260000000Y-120660000D03*
X260000000Y-118120000D03*
X260000000Y-115580000D03*
X260000000Y-113040000D03*
X260000000Y-110500000D03*
%TD*%
%TO.C,J12*%
X260000000Y-79420000D03*
X260000000Y-81960000D03*
D10*
X260000000Y-84500000D03*
%TD*%
D17*
%TO.C,J14*%
X229580000Y-32382500D03*
X245840000Y-32382500D03*
D18*
X230850000Y-30782500D03*
X233140000Y-30782500D03*
X242280000Y-30782500D03*
X244570000Y-30782500D03*
D19*
X234140000Y-35732500D03*
X235160000Y-33192500D03*
X236180000Y-35732500D03*
X237200000Y-33192500D03*
X238220000Y-35732500D03*
X239240000Y-33192500D03*
X240260000Y-35732500D03*
D20*
X241280000Y-33192500D03*
D21*
X244060000Y-36622500D03*
X231360000Y-36622500D03*
%TD*%
D10*
%TO.C,J13*%
X260000000Y-44700000D03*
D11*
X260000000Y-42160000D03*
X260000000Y-39620000D03*
X260000000Y-37080000D03*
X260000000Y-34540000D03*
X260000000Y-32000000D03*
%TD*%
D10*
%TO.C,5V1*%
X175000000Y-119000000D03*
%TD*%
%TO.C,J18*%
X251000000Y-155500000D03*
D11*
X253540000Y-155500000D03*
X256080000Y-155500000D03*
%TD*%
D10*
%TO.C,J15*%
X229000000Y-123000000D03*
D11*
X229000000Y-120460000D03*
%TD*%
D10*
%TO.C,J16*%
X260000000Y-64920000D03*
D11*
X260000000Y-67460000D03*
X260000000Y-70000000D03*
%TD*%
D10*
%TO.C,J17*%
X176500000Y-93420000D03*
D11*
X176500000Y-95960000D03*
X176500000Y-98500000D03*
%TD*%
D10*
%TO.C,TP5*%
X239500000Y-141500000D03*
%TD*%
%TO.C,TP3*%
X170000000Y-139500000D03*
%TD*%
M02*
