%TF.GenerationSoftware,KiCad,Pcbnew,9.0.6*%
%TF.CreationDate,2025-12-25T01:52:07-08:00*%
%TF.ProjectId,Breakout V1,42726561-6b6f-4757-9420-56312e6b6963,rev?*%
%TF.SameCoordinates,Original*%
%TF.FileFunction,Soldermask,Top*%
%TF.FilePolarity,Negative*%
%FSLAX46Y46*%
G04 Gerber Fmt 4.6, Leading zero omitted, Abs format (unit mm)*
G04 Created by KiCad (PCBNEW 9.0.6) date 2025-12-25 01:52:07*
%MOMM*%
%LPD*%
G01*
G04 APERTURE LIST*
G04 Aperture macros list*
%AMRoundRect*
0 Rectangle with rounded corners*
0 $1 Rounding radius*
0 $2 $3 $4 $5 $6 $7 $8 $9 X,Y pos of 4 corners*
0 Add a 4 corners polygon primitive as box body*
4,1,4,$2,$3,$4,$5,$6,$7,$8,$9,$2,$3,0*
0 Add four circle primitives for the rounded corners*
1,1,$1+$1,$2,$3*
1,1,$1+$1,$4,$5*
1,1,$1+$1,$6,$7*
1,1,$1+$1,$8,$9*
0 Add four rect primitives between the rounded corners*
20,1,$1+$1,$2,$3,$4,$5,0*
20,1,$1+$1,$4,$5,$6,$7,0*
20,1,$1+$1,$6,$7,$8,$9,0*
20,1,$1+$1,$8,$9,$2,$3,0*%
G04 Aperture macros list end*
%ADD10RoundRect,0.200000X-0.200000X-0.275000X0.200000X-0.275000X0.200000X0.275000X-0.200000X0.275000X0*%
%ADD11RoundRect,0.190000X0.190000X-0.635000X0.190000X0.635000X-0.190000X0.635000X-0.190000X-0.635000X0*%
%ADD12RoundRect,0.117500X-0.117500X0.142500X-0.117500X-0.142500X0.117500X-0.142500X0.117500X0.142500X0*%
%ADD13RoundRect,0.150000X-0.150000X-0.200000X0.150000X-0.200000X0.150000X0.200000X-0.150000X0.200000X0*%
%ADD14RoundRect,0.200000X0.275000X-0.200000X0.275000X0.200000X-0.275000X0.200000X-0.275000X-0.200000X0*%
%ADD15RoundRect,0.200000X-0.275000X0.200000X-0.275000X-0.200000X0.275000X-0.200000X0.275000X0.200000X0*%
%ADD16RoundRect,0.075000X-0.075000X0.650000X-0.075000X-0.650000X0.075000X-0.650000X0.075000X0.650000X0*%
%ADD17RoundRect,0.200000X0.200000X0.275000X-0.200000X0.275000X-0.200000X-0.275000X0.200000X-0.275000X0*%
%ADD18RoundRect,0.225000X-0.225000X-0.250000X0.225000X-0.250000X0.225000X0.250000X-0.225000X0.250000X0*%
%ADD19RoundRect,0.225000X0.225000X0.250000X-0.225000X0.250000X-0.225000X-0.250000X0.225000X-0.250000X0*%
%ADD20RoundRect,0.225000X0.250000X-0.225000X0.250000X0.225000X-0.250000X0.225000X-0.250000X-0.225000X0*%
%ADD21R,1.700000X1.700000*%
%ADD22RoundRect,0.375000X-0.625000X-0.375000X0.625000X-0.375000X0.625000X0.375000X-0.625000X0.375000X0*%
%ADD23RoundRect,0.500000X-0.500000X-1.400000X0.500000X-1.400000X0.500000X1.400000X-0.500000X1.400000X0*%
%ADD24R,2.400000X1.550000*%
%ADD25R,0.350000X0.650000*%
%ADD26RoundRect,0.250000X0.300000X-2.050000X0.300000X2.050000X-0.300000X2.050000X-0.300000X-2.050000X0*%
%ADD27RoundRect,0.250002X5.149998X-4.449998X5.149998X4.449998X-5.149998X4.449998X-5.149998X-4.449998X0*%
%ADD28RoundRect,0.093750X-0.156250X-0.093750X0.156250X-0.093750X0.156250X0.093750X-0.156250X0.093750X0*%
%ADD29RoundRect,0.075000X-0.250000X-0.075000X0.250000X-0.075000X0.250000X0.075000X-0.250000X0.075000X0*%
%ADD30R,2.500000X2.500000*%
%ADD31RoundRect,0.062500X-0.062500X-0.375000X0.062500X-0.375000X0.062500X0.375000X-0.062500X0.375000X0*%
%ADD32RoundRect,0.062500X-0.375000X-0.062500X0.375000X-0.062500X0.375000X0.062500X-0.375000X0.062500X0*%
%ADD33R,1.000000X2.750000*%
%ADD34RoundRect,0.250000X-0.275000X-0.700000X0.275000X-0.700000X0.275000X0.700000X-0.275000X0.700000X0*%
%ADD35RoundRect,0.237500X-0.287500X-0.237500X0.287500X-0.237500X0.287500X0.237500X-0.287500X0.237500X0*%
%ADD36RoundRect,0.218750X0.218750X0.256250X-0.218750X0.256250X-0.218750X-0.256250X0.218750X-0.256250X0*%
%ADD37RoundRect,0.218750X-0.256250X0.218750X-0.256250X-0.218750X0.256250X-0.218750X0.256250X0.218750X0*%
%ADD38RoundRect,0.218750X-0.218750X-0.256250X0.218750X-0.256250X0.218750X0.256250X-0.218750X0.256250X0*%
%ADD39RoundRect,0.250000X-0.375000X-0.625000X0.375000X-0.625000X0.375000X0.625000X-0.375000X0.625000X0*%
%ADD40C,1.700000*%
%ADD41C,0.650000*%
%ADD42R,0.600000X1.450000*%
%ADD43R,0.300000X1.450000*%
%ADD44O,1.000000X2.100000*%
%ADD45O,1.000000X1.600000*%
%ADD46RoundRect,1.500000X-1.500000X-1.500000X1.500000X-1.500000X1.500000X1.500000X-1.500000X1.500000X0*%
%ADD47C,6.000000*%
%ADD48C,2.604000*%
%ADD49C,1.454000*%
%ADD50C,1.612000*%
%ADD51RoundRect,0.102000X-0.704000X-0.704000X0.704000X-0.704000X0.704000X0.704000X-0.704000X0.704000X0*%
%ADD52C,3.250000*%
%ADD53R,1.500000X1.000000*%
%ADD54RoundRect,0.225000X-0.250000X0.225000X-0.250000X-0.225000X0.250000X-0.225000X0.250000X0.225000X0*%
%ADD55R,2.500000X5.100000*%
%ADD56C,10.200000*%
%ADD57RoundRect,0.218750X0.256250X-0.218750X0.256250X0.218750X-0.256250X0.218750X-0.256250X-0.218750X0*%
%ADD58RoundRect,0.050000X-0.225000X-0.050000X0.225000X-0.050000X0.225000X0.050000X-0.225000X0.050000X0*%
%ADD59RoundRect,0.050000X0.050000X-0.225000X0.050000X0.225000X-0.050000X0.225000X-0.050000X-0.225000X0*%
%ADD60RoundRect,0.093750X0.093750X-0.156250X0.093750X0.156250X-0.093750X0.156250X-0.093750X-0.156250X0*%
%ADD61RoundRect,0.075000X0.075000X-0.250000X0.075000X0.250000X-0.075000X0.250000X-0.075000X-0.250000X0*%
%ADD62R,0.950000X0.550000*%
%ADD63RoundRect,0.150000X-0.325000X-0.150000X0.325000X-0.150000X0.325000X0.150000X-0.325000X0.150000X0*%
%ADD64RoundRect,0.150000X-0.150000X-0.325000X0.150000X-0.325000X0.150000X0.325000X-0.150000X0.325000X0*%
%ADD65RoundRect,0.075000X0.662500X0.075000X-0.662500X0.075000X-0.662500X-0.075000X0.662500X-0.075000X0*%
%ADD66RoundRect,0.075000X0.075000X0.662500X-0.075000X0.662500X-0.075000X-0.662500X0.075000X-0.662500X0*%
%ADD67RoundRect,0.150000X-0.825000X-0.150000X0.825000X-0.150000X0.825000X0.150000X-0.825000X0.150000X0*%
%ADD68RoundRect,0.250000X-2.050000X-0.300000X2.050000X-0.300000X2.050000X0.300000X-2.050000X0.300000X0*%
%ADD69RoundRect,0.250002X-4.449998X-5.149998X4.449998X-5.149998X4.449998X5.149998X-4.449998X5.149998X0*%
G04 APERTURE END LIST*
%TO.C,JP1*%
G36*
X251750000Y-112350000D02*
G01*
X250250000Y-112350000D01*
X250250000Y-112650000D01*
X251750000Y-112650000D01*
X251750000Y-112350000D01*
G37*
%TO.C,JP2*%
G36*
X255250000Y-112500000D02*
G01*
X253750000Y-112500000D01*
X253750000Y-112800000D01*
X255250000Y-112800000D01*
X255250000Y-112500000D01*
G37*
%TO.C,JP3*%
G36*
X221750000Y-99700000D02*
G01*
X220250000Y-99700000D01*
X220250000Y-100000000D01*
X221750000Y-100000000D01*
X221750000Y-99700000D01*
G37*
%TO.C,JP4*%
G36*
X251250000Y-136000000D02*
G01*
X252750000Y-136000000D01*
X252750000Y-135700000D01*
X251250000Y-135700000D01*
X251250000Y-136000000D01*
G37*
%TD*%
D10*
%TO.C,R24*%
X234000000Y-53562500D03*
X235650000Y-53562500D03*
%TD*%
D11*
%TO.C,U15*%
X233500000Y-50072500D03*
X234770000Y-50072500D03*
X236040000Y-50072500D03*
X237310000Y-50072500D03*
X238580000Y-50072500D03*
X239850000Y-50072500D03*
X241120000Y-50072500D03*
X242390000Y-50072500D03*
X242390000Y-41562500D03*
X241120000Y-41562500D03*
X239850000Y-41562500D03*
X238580000Y-41562500D03*
X237310000Y-41562500D03*
X236040000Y-41562500D03*
X234770000Y-41562500D03*
X233500000Y-41562500D03*
%TD*%
D12*
%TO.C,Y3*%
X227755000Y-60742500D03*
X227755000Y-61562500D03*
X228425000Y-61562500D03*
X228425000Y-60742500D03*
%TD*%
D13*
%TO.C,U23*%
X224000000Y-79500000D03*
X222600000Y-79500000D03*
%TD*%
D14*
%TO.C,R19*%
X235425000Y-66212500D03*
X235425000Y-64562500D03*
%TD*%
D15*
%TO.C,R27*%
X249000000Y-42712500D03*
X249000000Y-41062500D03*
%TD*%
D16*
%TO.C,U13*%
X210353412Y-146400000D03*
X209853412Y-146400000D03*
X209353412Y-146400000D03*
X208853412Y-146400000D03*
X208353412Y-146400000D03*
X208353412Y-142000000D03*
X208853412Y-142000000D03*
X209353412Y-142000000D03*
X209853412Y-142000000D03*
X210353412Y-142000000D03*
%TD*%
D17*
%TO.C,R15*%
X241925000Y-72062500D03*
X240275000Y-72062500D03*
%TD*%
%TO.C,R16*%
X241925000Y-69062500D03*
X240275000Y-69062500D03*
%TD*%
%TO.C,R17*%
X249575000Y-64562500D03*
X247925000Y-64562500D03*
%TD*%
D18*
%TO.C,C12*%
X202000000Y-93000000D03*
X203550000Y-93000000D03*
%TD*%
D19*
%TO.C,C16*%
X197275000Y-129000000D03*
X195725000Y-129000000D03*
%TD*%
D20*
%TO.C,C15*%
X188000000Y-144450000D03*
X188000000Y-146000000D03*
%TD*%
D14*
%TO.C,R22*%
X250000000Y-67500000D03*
X250000000Y-69150000D03*
%TD*%
D21*
%TO.C,TP2*%
X184500000Y-107000000D03*
%TD*%
D22*
%TO.C,U12*%
X206200000Y-105700000D03*
X206200000Y-108000000D03*
D23*
X212500000Y-108000000D03*
D22*
X206200000Y-110300000D03*
%TD*%
D24*
%TO.C,U4*%
X200915000Y-139862500D03*
D25*
X201890000Y-141412500D03*
X201240000Y-141412500D03*
X200590000Y-141412500D03*
X199940000Y-141412500D03*
X199940000Y-138312500D03*
X200590000Y-138312500D03*
X201240000Y-138312500D03*
X201890000Y-138312500D03*
%TD*%
D17*
%TO.C,R26*%
X247575000Y-51562500D03*
X245925000Y-51562500D03*
%TD*%
D26*
%TO.C,U11*%
X176460000Y-138275000D03*
X179000000Y-138275000D03*
D27*
X179000000Y-129125000D03*
D26*
X181540000Y-138275000D03*
%TD*%
D28*
%TO.C,U16*%
X242350000Y-54025000D03*
D29*
X242425000Y-54562500D03*
D28*
X242350000Y-55100000D03*
X240650000Y-55100000D03*
D29*
X240575000Y-54562500D03*
D28*
X240650000Y-54025000D03*
%TD*%
D17*
%TO.C,R20*%
X245925000Y-64562500D03*
X244275000Y-64562500D03*
%TD*%
D30*
%TO.C,U14*%
X238000000Y-59500000D03*
D31*
X236750000Y-57562500D03*
X237250000Y-57562500D03*
X237750000Y-57562500D03*
X238250000Y-57562500D03*
X238750000Y-57562500D03*
X239250000Y-57562500D03*
D32*
X239937500Y-58250000D03*
X239937500Y-58750000D03*
X239937500Y-59250000D03*
X239937500Y-59750000D03*
X239937500Y-60250000D03*
X239937500Y-60750000D03*
D31*
X239250000Y-61437500D03*
X238750000Y-61437500D03*
X238250000Y-61437500D03*
X237750000Y-61437500D03*
X237250000Y-61437500D03*
X236750000Y-61437500D03*
D32*
X236062500Y-60750000D03*
X236062500Y-60250000D03*
X236062500Y-59750000D03*
X236062500Y-59250000D03*
X236062500Y-58750000D03*
X236062500Y-58250000D03*
%TD*%
D15*
%TO.C,R28*%
X228500000Y-41737500D03*
X228500000Y-43387500D03*
%TD*%
D10*
%TO.C,R23*%
X229350000Y-53562500D03*
X231000000Y-53562500D03*
%TD*%
D33*
%TO.C,SW1*%
X225500000Y-70740000D03*
X225500000Y-76500000D03*
X221500000Y-70740000D03*
X221500000Y-76500000D03*
%TD*%
%TO.C,SW2*%
X249500000Y-145500000D03*
X249500000Y-151260000D03*
X245500000Y-145500000D03*
X245500000Y-151260000D03*
%TD*%
D21*
%TO.C,TP4*%
X196500000Y-111000000D03*
%TD*%
%TO.C,TP1*%
X219500000Y-151500000D03*
%TD*%
D34*
%TO.C,Y1*%
X251425000Y-117500000D03*
X254575000Y-117500000D03*
%TD*%
D35*
%TO.C,D4*%
X181162500Y-121500000D03*
X182912500Y-121500000D03*
%TD*%
D36*
%TO.C,D5*%
X193787500Y-134500000D03*
X192212500Y-134500000D03*
%TD*%
D37*
%TO.C,D6*%
X214853412Y-142500000D03*
X214853412Y-140925000D03*
%TD*%
D38*
%TO.C,D7*%
X222925000Y-142500000D03*
X224500000Y-142500000D03*
%TD*%
D36*
%TO.C,D8*%
X209500000Y-149000000D03*
X207925000Y-149000000D03*
%TD*%
D37*
%TO.C,F1*%
X239750000Y-147250000D03*
X239750000Y-148825000D03*
%TD*%
D39*
%TO.C,F2*%
X214800000Y-150500000D03*
X212000000Y-150500000D03*
%TD*%
D35*
%TO.C,FB1*%
X238500000Y-153250000D03*
X236750000Y-153250000D03*
%TD*%
D21*
%TO.C,J1*%
X229000000Y-133460000D03*
D40*
X229000000Y-136000000D03*
%TD*%
D21*
%TO.C,J2*%
X207000000Y-131960000D03*
D40*
X207000000Y-134500000D03*
%TD*%
D21*
%TO.C,J3*%
X207175000Y-151500000D03*
D40*
X204635000Y-151500000D03*
X202095000Y-151500000D03*
X199555000Y-151500000D03*
X197015000Y-151500000D03*
%TD*%
D41*
%TO.C,J4*%
X225360000Y-152472471D03*
X231140000Y-152472471D03*
D42*
X225000000Y-151027471D03*
X225800000Y-151027471D03*
D43*
X227000000Y-151027471D03*
X228000000Y-151027471D03*
X228500000Y-151027471D03*
X229500000Y-151027471D03*
D42*
X230700000Y-151027471D03*
X231500000Y-151027471D03*
X231500000Y-151027471D03*
X230700000Y-151027471D03*
D43*
X230000000Y-151027471D03*
X229000000Y-151027471D03*
X227500000Y-151027471D03*
X226500000Y-151027471D03*
D42*
X225800000Y-151027471D03*
X225000000Y-151027471D03*
D44*
X223930000Y-151942471D03*
D45*
X223930000Y-156122471D03*
D44*
X232570000Y-151942471D03*
D45*
X232570000Y-156122471D03*
%TD*%
D21*
%TO.C,J5*%
X216500000Y-115540000D03*
D40*
X216500000Y-113000000D03*
X216500000Y-110460000D03*
X216500000Y-107920000D03*
X216500000Y-105380000D03*
X216500000Y-102840000D03*
%TD*%
D46*
%TO.C,J6*%
X173550000Y-148250000D03*
D47*
X180750000Y-148250000D03*
%TD*%
D21*
%TO.C,J7*%
X260000000Y-129000000D03*
D40*
X260000000Y-131540000D03*
%TD*%
D21*
%TO.C,J8*%
X247500000Y-119500000D03*
D40*
X247500000Y-122040000D03*
%TD*%
D21*
%TO.C,J9*%
X260000000Y-55580000D03*
D40*
X260000000Y-53040000D03*
X260000000Y-50500000D03*
%TD*%
D21*
%TO.C,J10*%
X260000000Y-91500000D03*
D40*
X260000000Y-94040000D03*
X260000000Y-96580000D03*
X260000000Y-99120000D03*
X260000000Y-101660000D03*
X260000000Y-104200000D03*
%TD*%
D21*
%TO.C,J11*%
X260000000Y-123200000D03*
D40*
X260000000Y-120660000D03*
X260000000Y-118120000D03*
X260000000Y-115580000D03*
X260000000Y-113040000D03*
X260000000Y-110500000D03*
%TD*%
%TO.C,J12*%
X260000000Y-79420000D03*
X260000000Y-81960000D03*
D21*
X260000000Y-84500000D03*
%TD*%
D48*
%TO.C,J14*%
X229580000Y-32382500D03*
X245840000Y-32382500D03*
D49*
X230850000Y-30782500D03*
X233140000Y-30782500D03*
X242280000Y-30782500D03*
X244570000Y-30782500D03*
D50*
X234140000Y-35732500D03*
X235160000Y-33192500D03*
X236180000Y-35732500D03*
X237200000Y-33192500D03*
X238220000Y-35732500D03*
X239240000Y-33192500D03*
X240260000Y-35732500D03*
D51*
X241280000Y-33192500D03*
D52*
X244060000Y-36622500D03*
X231360000Y-36622500D03*
%TD*%
D53*
%TO.C,JP1*%
X251000000Y-111850000D03*
X251000000Y-113150000D03*
%TD*%
%TO.C,JP2*%
X254500000Y-112000000D03*
X254500000Y-113300000D03*
%TD*%
%TO.C,JP3*%
X221000000Y-100500000D03*
X221000000Y-99200000D03*
%TD*%
%TO.C,JP4*%
X252000000Y-135200000D03*
X252000000Y-136500000D03*
%TD*%
D19*
%TO.C,L1*%
X219425000Y-57182500D03*
X220975000Y-57182500D03*
%TD*%
D17*
%TO.C,R1*%
X201665000Y-144893749D03*
X200015000Y-144893749D03*
%TD*%
%TO.C,R2*%
X224500000Y-146500000D03*
X222850000Y-146500000D03*
%TD*%
D10*
%TO.C,R3*%
X231100000Y-145545000D03*
X232750000Y-145545000D03*
%TD*%
%TO.C,R4*%
X186825000Y-115000000D03*
X185175000Y-115000000D03*
%TD*%
%TO.C,R5*%
X186825000Y-118000000D03*
X185175000Y-118000000D03*
%TD*%
%TO.C,R6*%
X185087500Y-121500000D03*
X186737500Y-121500000D03*
%TD*%
%TO.C,R7*%
X191100000Y-148500000D03*
X192750000Y-148500000D03*
%TD*%
D14*
%TO.C,R8*%
X214853412Y-145350000D03*
X214853412Y-147000000D03*
%TD*%
D10*
%TO.C,R9*%
X211350000Y-139250000D03*
X213000000Y-139250000D03*
%TD*%
D14*
%TO.C,R10*%
X256000000Y-130150000D03*
X256000000Y-128500000D03*
%TD*%
D15*
%TO.C,R11*%
X253000000Y-150000000D03*
X253000000Y-151650000D03*
%TD*%
D10*
%TO.C,R12*%
X243000000Y-67000000D03*
X241350000Y-67000000D03*
%TD*%
D17*
%TO.C,R13*%
X243425000Y-61562500D03*
X241775000Y-61562500D03*
%TD*%
D15*
%TO.C,R14*%
X249425000Y-57500000D03*
X249425000Y-59150000D03*
%TD*%
D54*
%TO.C,C31*%
X245500000Y-71000000D03*
X245500000Y-69450000D03*
%TD*%
D19*
%TO.C,C32*%
X231200000Y-67562500D03*
X229650000Y-67562500D03*
%TD*%
D21*
%TO.C,J13*%
X260000000Y-44700000D03*
D40*
X260000000Y-42160000D03*
X260000000Y-39620000D03*
X260000000Y-37080000D03*
X260000000Y-34540000D03*
X260000000Y-32000000D03*
%TD*%
D19*
%TO.C,C33*%
X229650000Y-64062500D03*
X231200000Y-64062500D03*
%TD*%
%TO.C,C34*%
X223875000Y-48182500D03*
X225425000Y-48182500D03*
%TD*%
D18*
%TO.C,C35*%
X251475000Y-49562500D03*
X249925000Y-49562500D03*
%TD*%
%TO.C,C36*%
X251475000Y-46562500D03*
X249925000Y-46562500D03*
%TD*%
D19*
%TO.C,C37*%
X225425000Y-54062500D03*
X223875000Y-54062500D03*
%TD*%
D18*
%TO.C,C38*%
X223925000Y-51182500D03*
X225475000Y-51182500D03*
%TD*%
D21*
%TO.C,5V1*%
X175000000Y-119000000D03*
%TD*%
D18*
%TO.C,C2*%
X203450000Y-101500000D03*
X205000000Y-101500000D03*
%TD*%
D54*
%TO.C,C3*%
X192000000Y-105950000D03*
X192000000Y-107500000D03*
%TD*%
D55*
%TO.C,BT1*%
X248100000Y-130000000D03*
X232900000Y-130000000D03*
D56*
X240500000Y-130000000D03*
%TD*%
D20*
%TO.C,C1*%
X197500000Y-107550000D03*
X197500000Y-106000000D03*
%TD*%
D19*
%TO.C,C39*%
X247925000Y-54562500D03*
X246375000Y-54562500D03*
%TD*%
D54*
%TO.C,C40*%
X228500000Y-46062500D03*
X228500000Y-47612500D03*
%TD*%
D57*
%TO.C,D1*%
X235250000Y-148500000D03*
X235250000Y-150075000D03*
%TD*%
D35*
%TO.C,D3*%
X182875000Y-118000000D03*
X181125000Y-118000000D03*
%TD*%
%TO.C,D2*%
X181125000Y-115000000D03*
X182875000Y-115000000D03*
%TD*%
D10*
%TO.C,R32*%
X193600000Y-139500000D03*
X195250000Y-139500000D03*
%TD*%
D54*
%TO.C,C14*%
X246500000Y-141550000D03*
X246500000Y-140000000D03*
%TD*%
D19*
%TO.C,C17*%
X187550000Y-138500000D03*
X186000000Y-138500000D03*
%TD*%
%TO.C,C18*%
X203500000Y-109500000D03*
X201950000Y-109500000D03*
%TD*%
D20*
%TO.C,C19*%
X211000000Y-122050000D03*
X211000000Y-120500000D03*
%TD*%
D19*
%TO.C,C20*%
X189550000Y-133000000D03*
X188000000Y-133000000D03*
%TD*%
D20*
%TO.C,C21*%
X203000000Y-107500000D03*
X203000000Y-105950000D03*
%TD*%
D18*
%TO.C,C22*%
X220128412Y-142250000D03*
X218578412Y-142250000D03*
%TD*%
%TO.C,C23*%
X219903412Y-145500000D03*
X218353412Y-145500000D03*
%TD*%
D20*
%TO.C,C24*%
X204750000Y-147750000D03*
X204750000Y-146200000D03*
%TD*%
D18*
%TO.C,C25*%
X211000000Y-116000000D03*
X212550000Y-116000000D03*
%TD*%
D19*
%TO.C,C26*%
X212500000Y-118000000D03*
X210950000Y-118000000D03*
%TD*%
D54*
%TO.C,C27*%
X251500000Y-121500000D03*
X251500000Y-123050000D03*
%TD*%
%TO.C,C28*%
X254500000Y-121500000D03*
X254500000Y-123050000D03*
%TD*%
D18*
%TO.C,C29*%
X223875000Y-59062500D03*
X225425000Y-59062500D03*
%TD*%
D19*
%TO.C,C30*%
X223875000Y-65062500D03*
X225425000Y-65062500D03*
%TD*%
D58*
%TO.C,U2*%
X196500000Y-100000000D03*
X196500000Y-100400000D03*
X196500000Y-100800000D03*
X196500000Y-101200000D03*
X196500000Y-101600000D03*
X196500000Y-102000000D03*
D59*
X197000000Y-102500000D03*
X197400000Y-102500000D03*
X197800000Y-102500000D03*
X198200000Y-102500000D03*
X198600000Y-102500000D03*
X199000000Y-102500000D03*
D58*
X199500000Y-102000000D03*
X199500000Y-101600000D03*
X199500000Y-101200000D03*
X199500000Y-100800000D03*
X199500000Y-100400000D03*
X199500000Y-100000000D03*
D59*
X199000000Y-99500000D03*
X198600000Y-99500000D03*
X198200000Y-99500000D03*
X197800000Y-99500000D03*
X197400000Y-99500000D03*
X197000000Y-99500000D03*
%TD*%
D15*
%TO.C,R29*%
X226000000Y-33912500D03*
X226000000Y-35562500D03*
%TD*%
D21*
%TO.C,J18*%
X251000000Y-155500000D03*
D40*
X253540000Y-155500000D03*
X256080000Y-155500000D03*
%TD*%
D21*
%TO.C,J15*%
X229000000Y-123000000D03*
D40*
X229000000Y-120460000D03*
%TD*%
D21*
%TO.C,J16*%
X260000000Y-64920000D03*
D40*
X260000000Y-67460000D03*
X260000000Y-70000000D03*
%TD*%
D21*
%TO.C,J17*%
X176500000Y-93420000D03*
D40*
X176500000Y-95960000D03*
X176500000Y-98500000D03*
%TD*%
D18*
%TO.C,C8*%
X232950000Y-123500000D03*
X234500000Y-123500000D03*
%TD*%
D19*
%TO.C,C9*%
X234500000Y-116000000D03*
X232950000Y-116000000D03*
%TD*%
D18*
%TO.C,C6*%
X196200000Y-143000000D03*
X197750000Y-143000000D03*
%TD*%
%TO.C,C7*%
X200200000Y-136250000D03*
X201750000Y-136250000D03*
%TD*%
D10*
%TO.C,R25*%
X231350000Y-56562500D03*
X233000000Y-56562500D03*
%TD*%
D60*
%TO.C,U8*%
X227675000Y-145495000D03*
D61*
X228212500Y-145570000D03*
D60*
X228750000Y-145495000D03*
X228750000Y-143795000D03*
D61*
X228212500Y-143720000D03*
D60*
X227675000Y-143795000D03*
%TD*%
D14*
%TO.C,R31*%
X226000000Y-28062500D03*
X226000000Y-26412500D03*
%TD*%
D62*
%TO.C,U7*%
X196350000Y-93000000D03*
X196350000Y-91750000D03*
X196350000Y-90500000D03*
X196350000Y-89250000D03*
X198500000Y-89250000D03*
X198500000Y-90500000D03*
X198500000Y-91750000D03*
X198500000Y-93000000D03*
%TD*%
D17*
%TO.C,R21*%
X229075000Y-56562500D03*
X227425000Y-56562500D03*
%TD*%
D63*
%TO.C,U3*%
X186500000Y-95000000D03*
X186500000Y-95800000D03*
X186500000Y-96600000D03*
X186500000Y-97400000D03*
X186500000Y-98200000D03*
X186500000Y-99000000D03*
D64*
X187500000Y-99000000D03*
D63*
X188500000Y-99000000D03*
X188500000Y-98200000D03*
X188500000Y-97400000D03*
X188500000Y-96600000D03*
X188500000Y-95800000D03*
X188500000Y-95000000D03*
D64*
X187500000Y-95000000D03*
%TD*%
D18*
%TO.C,C11*%
X213225000Y-93000000D03*
X214775000Y-93000000D03*
%TD*%
D62*
%TO.C,U6*%
X210000000Y-93000000D03*
X210000000Y-91750000D03*
X210000000Y-90500000D03*
X210000000Y-89250000D03*
X207850000Y-89250000D03*
X207850000Y-90500000D03*
X207850000Y-91750000D03*
X207850000Y-93000000D03*
%TD*%
D21*
%TO.C,TP5*%
X239500000Y-141500000D03*
%TD*%
%TO.C,TP3*%
X170000000Y-139500000D03*
%TD*%
D33*
%TO.C,SW4*%
X262000000Y-145500000D03*
X262000000Y-151260000D03*
X258000000Y-145500000D03*
X258000000Y-151260000D03*
%TD*%
D65*
%TO.C,U1*%
X247412500Y-108912500D03*
X247412500Y-108412500D03*
X247412500Y-107912500D03*
X247412500Y-107412500D03*
X247412500Y-106912500D03*
X247412500Y-106412500D03*
X247412500Y-105912500D03*
X247412500Y-105412500D03*
X247412500Y-104912500D03*
X247412500Y-104412500D03*
X247412500Y-103912500D03*
X247412500Y-103412500D03*
X247412500Y-102912500D03*
X247412500Y-102412500D03*
X247412500Y-101912500D03*
X247412500Y-101412500D03*
X247412500Y-100912500D03*
X247412500Y-100412500D03*
X247412500Y-99912500D03*
X247412500Y-99412500D03*
X247412500Y-98912500D03*
X247412500Y-98412500D03*
X247412500Y-97912500D03*
X247412500Y-97412500D03*
X247412500Y-96912500D03*
X247412500Y-96412500D03*
X247412500Y-95912500D03*
X247412500Y-95412500D03*
X247412500Y-94912500D03*
X247412500Y-94412500D03*
X247412500Y-93912500D03*
X247412500Y-93412500D03*
X247412500Y-92912500D03*
X247412500Y-92412500D03*
X247412500Y-91912500D03*
X247412500Y-91412500D03*
D66*
X245500000Y-89500000D03*
X245000000Y-89500000D03*
X244500000Y-89500000D03*
X244000000Y-89500000D03*
X243500000Y-89500000D03*
X243000000Y-89500000D03*
X242500000Y-89500000D03*
X242000000Y-89500000D03*
X241500000Y-89500000D03*
X241000000Y-89500000D03*
X240500000Y-89500000D03*
X240000000Y-89500000D03*
X239500000Y-89500000D03*
X239000000Y-89500000D03*
X238500000Y-89500000D03*
X238000000Y-89500000D03*
X237500000Y-89500000D03*
X237000000Y-89500000D03*
X236500000Y-89500000D03*
X236000000Y-89500000D03*
X235500000Y-89500000D03*
X235000000Y-89500000D03*
X234500000Y-89500000D03*
X234000000Y-89500000D03*
X233500000Y-89500000D03*
X233000000Y-89500000D03*
X232500000Y-89500000D03*
X232000000Y-89500000D03*
X231500000Y-89500000D03*
X231000000Y-89500000D03*
X230500000Y-89500000D03*
X230000000Y-89500000D03*
X229500000Y-89500000D03*
X229000000Y-89500000D03*
X228500000Y-89500000D03*
X228000000Y-89500000D03*
D65*
X226087500Y-91412500D03*
X226087500Y-91912500D03*
X226087500Y-92412500D03*
X226087500Y-92912500D03*
X226087500Y-93412500D03*
X226087500Y-93912500D03*
X226087500Y-94412500D03*
X226087500Y-94912500D03*
X226087500Y-95412500D03*
X226087500Y-95912500D03*
X226087500Y-96412500D03*
X226087500Y-96912500D03*
X226087500Y-97412500D03*
X226087500Y-97912500D03*
X226087500Y-98412500D03*
X226087500Y-98912500D03*
X226087500Y-99412500D03*
X226087500Y-99912500D03*
X226087500Y-100412500D03*
X226087500Y-100912500D03*
X226087500Y-101412500D03*
X226087500Y-101912500D03*
X226087500Y-102412500D03*
X226087500Y-102912500D03*
X226087500Y-103412500D03*
X226087500Y-103912500D03*
X226087500Y-104412500D03*
X226087500Y-104912500D03*
X226087500Y-105412500D03*
X226087500Y-105912500D03*
X226087500Y-106412500D03*
X226087500Y-106912500D03*
X226087500Y-107412500D03*
X226087500Y-107912500D03*
X226087500Y-108412500D03*
X226087500Y-108912500D03*
D66*
X228000000Y-110825000D03*
X228500000Y-110825000D03*
X229000000Y-110825000D03*
X229500000Y-110825000D03*
X230000000Y-110825000D03*
X230500000Y-110825000D03*
X231000000Y-110825000D03*
X231500000Y-110825000D03*
X232000000Y-110825000D03*
X232500000Y-110825000D03*
X233000000Y-110825000D03*
X233500000Y-110825000D03*
X234000000Y-110825000D03*
X234500000Y-110825000D03*
X235000000Y-110825000D03*
X235500000Y-110825000D03*
X236000000Y-110825000D03*
X236500000Y-110825000D03*
X237000000Y-110825000D03*
X237500000Y-110825000D03*
X238000000Y-110825000D03*
X238500000Y-110825000D03*
X239000000Y-110825000D03*
X239500000Y-110825000D03*
X240000000Y-110825000D03*
X240500000Y-110825000D03*
X241000000Y-110825000D03*
X241500000Y-110825000D03*
X242000000Y-110825000D03*
X242500000Y-110825000D03*
X243000000Y-110825000D03*
X243500000Y-110825000D03*
X244000000Y-110825000D03*
X244500000Y-110825000D03*
X245000000Y-110825000D03*
X245500000Y-110825000D03*
%TD*%
D33*
%TO.C,SW3*%
X262000000Y-136240000D03*
X262000000Y-142000000D03*
X258000000Y-136240000D03*
X258000000Y-142000000D03*
%TD*%
D16*
%TO.C,U9*%
X192250000Y-146400000D03*
X191750000Y-146400000D03*
X191250000Y-146400000D03*
X190750000Y-146400000D03*
X190250000Y-146400000D03*
X190250000Y-142000000D03*
X190750000Y-142000000D03*
X191250000Y-142000000D03*
X191750000Y-142000000D03*
X192250000Y-142000000D03*
%TD*%
D15*
%TO.C,R30*%
X226000000Y-30062500D03*
X226000000Y-31712500D03*
%TD*%
D67*
%TO.C,U5*%
X237550000Y-116230000D03*
X237550000Y-117500000D03*
X237550000Y-118770000D03*
X237550000Y-120040000D03*
X242500000Y-120040000D03*
X242500000Y-118770000D03*
X242500000Y-117500000D03*
X242500000Y-116230000D03*
%TD*%
D68*
%TO.C,U10*%
X194225000Y-116685000D03*
X194225000Y-119225000D03*
D69*
X203375000Y-119225000D03*
D68*
X194225000Y-121765000D03*
%TD*%
D14*
%TO.C,R18*%
X238425000Y-66212500D03*
X238425000Y-64562500D03*
%TD*%
D18*
%TO.C,C13*%
X222500000Y-81500000D03*
X224050000Y-81500000D03*
%TD*%
%TO.C,C4*%
X184950000Y-92000000D03*
X186500000Y-92000000D03*
%TD*%
%TO.C,C5*%
X185950000Y-102000000D03*
X187500000Y-102000000D03*
%TD*%
D19*
%TO.C,C10*%
X234500000Y-119000000D03*
X232950000Y-119000000D03*
%TD*%
M02*
