%TF.GenerationSoftware,KiCad,Pcbnew,9.0.6*%
%TF.CreationDate,2025-12-27T23:02:07-08:00*%
%TF.ProjectId,Test Rocket Board,54657374-2052-46f6-936b-657420426f61,rev?*%
%TF.SameCoordinates,Original*%
%TF.FileFunction,Legend,Top*%
%TF.FilePolarity,Positive*%
%FSLAX46Y46*%
G04 Gerber Fmt 4.6, Leading zero omitted, Abs format (unit mm)*
G04 Created by KiCad (PCBNEW 9.0.6) date 2025-12-27 23:02:07*
%MOMM*%
%LPD*%
G01*
G04 APERTURE LIST*
%ADD10C,1.000000*%
%ADD11C,0.200000*%
%ADD12C,0.150000*%
%ADD13C,0.120000*%
%ADD14C,0.127000*%
%ADD15C,0.152400*%
%ADD16C,0.000000*%
G04 APERTURE END LIST*
D10*
X173500000Y-86000000D02*
G75*
G02*
X173500000Y-80000000I0J3000000D01*
G01*
X173500000Y-84500000D02*
G75*
G02*
X173500000Y-87500000I0J-1500000D01*
G01*
X173500000Y-84500000D02*
G75*
G02*
X173500000Y-81500000I0J1500000D01*
G01*
D11*
X166147782Y-134941101D02*
X166100163Y-134893482D01*
X166100163Y-134893482D02*
X166052543Y-134750625D01*
X166052543Y-134750625D02*
X166052543Y-134655387D01*
X166052543Y-134655387D02*
X166100163Y-134512530D01*
X166100163Y-134512530D02*
X166195401Y-134417292D01*
X166195401Y-134417292D02*
X166290639Y-134369673D01*
X166290639Y-134369673D02*
X166481115Y-134322054D01*
X166481115Y-134322054D02*
X166623972Y-134322054D01*
X166623972Y-134322054D02*
X166814448Y-134369673D01*
X166814448Y-134369673D02*
X166909686Y-134417292D01*
X166909686Y-134417292D02*
X167004924Y-134512530D01*
X167004924Y-134512530D02*
X167052543Y-134655387D01*
X167052543Y-134655387D02*
X167052543Y-134750625D01*
X167052543Y-134750625D02*
X167004924Y-134893482D01*
X167004924Y-134893482D02*
X166957305Y-134941101D01*
X166338258Y-135322054D02*
X166338258Y-135798244D01*
X166052543Y-135226816D02*
X167052543Y-135560149D01*
X167052543Y-135560149D02*
X166052543Y-135893482D01*
X166052543Y-136226816D02*
X167052543Y-136226816D01*
X167052543Y-136226816D02*
X166052543Y-136798244D01*
X166052543Y-136798244D02*
X167052543Y-136798244D01*
X166052543Y-137274435D02*
X167052543Y-137274435D01*
X166576353Y-137274435D02*
X166576353Y-137845863D01*
X166052543Y-137845863D02*
X167052543Y-137845863D01*
X173226816Y-75257275D02*
X173798244Y-75257275D01*
X173512530Y-76257275D02*
X173512530Y-75257275D01*
X174512530Y-76209656D02*
X174417292Y-76257275D01*
X174417292Y-76257275D02*
X174226816Y-76257275D01*
X174226816Y-76257275D02*
X174131578Y-76209656D01*
X174131578Y-76209656D02*
X174083959Y-76114417D01*
X174083959Y-76114417D02*
X174083959Y-75733465D01*
X174083959Y-75733465D02*
X174131578Y-75638227D01*
X174131578Y-75638227D02*
X174226816Y-75590608D01*
X174226816Y-75590608D02*
X174417292Y-75590608D01*
X174417292Y-75590608D02*
X174512530Y-75638227D01*
X174512530Y-75638227D02*
X174560149Y-75733465D01*
X174560149Y-75733465D02*
X174560149Y-75828703D01*
X174560149Y-75828703D02*
X174083959Y-75923941D01*
X174941102Y-76209656D02*
X175036340Y-76257275D01*
X175036340Y-76257275D02*
X175226816Y-76257275D01*
X175226816Y-76257275D02*
X175322054Y-76209656D01*
X175322054Y-76209656D02*
X175369673Y-76114417D01*
X175369673Y-76114417D02*
X175369673Y-76066798D01*
X175369673Y-76066798D02*
X175322054Y-75971560D01*
X175322054Y-75971560D02*
X175226816Y-75923941D01*
X175226816Y-75923941D02*
X175083959Y-75923941D01*
X175083959Y-75923941D02*
X174988721Y-75876322D01*
X174988721Y-75876322D02*
X174941102Y-75781084D01*
X174941102Y-75781084D02*
X174941102Y-75733465D01*
X174941102Y-75733465D02*
X174988721Y-75638227D01*
X174988721Y-75638227D02*
X175083959Y-75590608D01*
X175083959Y-75590608D02*
X175226816Y-75590608D01*
X175226816Y-75590608D02*
X175322054Y-75638227D01*
X175655388Y-75590608D02*
X176036340Y-75590608D01*
X175798245Y-75257275D02*
X175798245Y-76114417D01*
X175798245Y-76114417D02*
X175845864Y-76209656D01*
X175845864Y-76209656D02*
X175941102Y-76257275D01*
X175941102Y-76257275D02*
X176036340Y-76257275D01*
X177464912Y-75733465D02*
X177607769Y-75781084D01*
X177607769Y-75781084D02*
X177655388Y-75828703D01*
X177655388Y-75828703D02*
X177703007Y-75923941D01*
X177703007Y-75923941D02*
X177703007Y-76066798D01*
X177703007Y-76066798D02*
X177655388Y-76162036D01*
X177655388Y-76162036D02*
X177607769Y-76209656D01*
X177607769Y-76209656D02*
X177512531Y-76257275D01*
X177512531Y-76257275D02*
X177131579Y-76257275D01*
X177131579Y-76257275D02*
X177131579Y-75257275D01*
X177131579Y-75257275D02*
X177464912Y-75257275D01*
X177464912Y-75257275D02*
X177560150Y-75304894D01*
X177560150Y-75304894D02*
X177607769Y-75352513D01*
X177607769Y-75352513D02*
X177655388Y-75447751D01*
X177655388Y-75447751D02*
X177655388Y-75542989D01*
X177655388Y-75542989D02*
X177607769Y-75638227D01*
X177607769Y-75638227D02*
X177560150Y-75685846D01*
X177560150Y-75685846D02*
X177464912Y-75733465D01*
X177464912Y-75733465D02*
X177131579Y-75733465D01*
X178274436Y-76257275D02*
X178179198Y-76209656D01*
X178179198Y-76209656D02*
X178131579Y-76162036D01*
X178131579Y-76162036D02*
X178083960Y-76066798D01*
X178083960Y-76066798D02*
X178083960Y-75781084D01*
X178083960Y-75781084D02*
X178131579Y-75685846D01*
X178131579Y-75685846D02*
X178179198Y-75638227D01*
X178179198Y-75638227D02*
X178274436Y-75590608D01*
X178274436Y-75590608D02*
X178417293Y-75590608D01*
X178417293Y-75590608D02*
X178512531Y-75638227D01*
X178512531Y-75638227D02*
X178560150Y-75685846D01*
X178560150Y-75685846D02*
X178607769Y-75781084D01*
X178607769Y-75781084D02*
X178607769Y-76066798D01*
X178607769Y-76066798D02*
X178560150Y-76162036D01*
X178560150Y-76162036D02*
X178512531Y-76209656D01*
X178512531Y-76209656D02*
X178417293Y-76257275D01*
X178417293Y-76257275D02*
X178274436Y-76257275D01*
X179464912Y-76257275D02*
X179464912Y-75733465D01*
X179464912Y-75733465D02*
X179417293Y-75638227D01*
X179417293Y-75638227D02*
X179322055Y-75590608D01*
X179322055Y-75590608D02*
X179131579Y-75590608D01*
X179131579Y-75590608D02*
X179036341Y-75638227D01*
X179464912Y-76209656D02*
X179369674Y-76257275D01*
X179369674Y-76257275D02*
X179131579Y-76257275D01*
X179131579Y-76257275D02*
X179036341Y-76209656D01*
X179036341Y-76209656D02*
X178988722Y-76114417D01*
X178988722Y-76114417D02*
X178988722Y-76019179D01*
X178988722Y-76019179D02*
X179036341Y-75923941D01*
X179036341Y-75923941D02*
X179131579Y-75876322D01*
X179131579Y-75876322D02*
X179369674Y-75876322D01*
X179369674Y-75876322D02*
X179464912Y-75828703D01*
X179941103Y-76257275D02*
X179941103Y-75590608D01*
X179941103Y-75781084D02*
X179988722Y-75685846D01*
X179988722Y-75685846D02*
X180036341Y-75638227D01*
X180036341Y-75638227D02*
X180131579Y-75590608D01*
X180131579Y-75590608D02*
X180226817Y-75590608D01*
X180988722Y-76257275D02*
X180988722Y-75257275D01*
X180988722Y-76209656D02*
X180893484Y-76257275D01*
X180893484Y-76257275D02*
X180703008Y-76257275D01*
X180703008Y-76257275D02*
X180607770Y-76209656D01*
X180607770Y-76209656D02*
X180560151Y-76162036D01*
X180560151Y-76162036D02*
X180512532Y-76066798D01*
X180512532Y-76066798D02*
X180512532Y-75781084D01*
X180512532Y-75781084D02*
X180560151Y-75685846D01*
X180560151Y-75685846D02*
X180607770Y-75638227D01*
X180607770Y-75638227D02*
X180703008Y-75590608D01*
X180703008Y-75590608D02*
X180893484Y-75590608D01*
X180893484Y-75590608D02*
X180988722Y-75638227D01*
X181464913Y-76162036D02*
X181512532Y-76209656D01*
X181512532Y-76209656D02*
X181464913Y-76257275D01*
X181464913Y-76257275D02*
X181417294Y-76209656D01*
X181417294Y-76209656D02*
X181464913Y-76162036D01*
X181464913Y-76162036D02*
X181464913Y-76257275D01*
X181464913Y-75876322D02*
X181417294Y-75304894D01*
X181417294Y-75304894D02*
X181464913Y-75257275D01*
X181464913Y-75257275D02*
X181512532Y-75304894D01*
X181512532Y-75304894D02*
X181464913Y-75876322D01*
X181464913Y-75876322D02*
X181464913Y-75257275D01*
X173941101Y-77867219D02*
X173607768Y-77391028D01*
X173369673Y-77867219D02*
X173369673Y-76867219D01*
X173369673Y-76867219D02*
X173750625Y-76867219D01*
X173750625Y-76867219D02*
X173845863Y-76914838D01*
X173845863Y-76914838D02*
X173893482Y-76962457D01*
X173893482Y-76962457D02*
X173941101Y-77057695D01*
X173941101Y-77057695D02*
X173941101Y-77200552D01*
X173941101Y-77200552D02*
X173893482Y-77295790D01*
X173893482Y-77295790D02*
X173845863Y-77343409D01*
X173845863Y-77343409D02*
X173750625Y-77391028D01*
X173750625Y-77391028D02*
X173369673Y-77391028D01*
X174750625Y-77819600D02*
X174655387Y-77867219D01*
X174655387Y-77867219D02*
X174464911Y-77867219D01*
X174464911Y-77867219D02*
X174369673Y-77819600D01*
X174369673Y-77819600D02*
X174322054Y-77724361D01*
X174322054Y-77724361D02*
X174322054Y-77343409D01*
X174322054Y-77343409D02*
X174369673Y-77248171D01*
X174369673Y-77248171D02*
X174464911Y-77200552D01*
X174464911Y-77200552D02*
X174655387Y-77200552D01*
X174655387Y-77200552D02*
X174750625Y-77248171D01*
X174750625Y-77248171D02*
X174798244Y-77343409D01*
X174798244Y-77343409D02*
X174798244Y-77438647D01*
X174798244Y-77438647D02*
X174322054Y-77533885D01*
X175131578Y-77200552D02*
X175369673Y-77867219D01*
X175369673Y-77867219D02*
X175607768Y-77200552D01*
X177274435Y-77867219D02*
X176703007Y-77867219D01*
X176988721Y-77867219D02*
X176988721Y-76867219D01*
X176988721Y-76867219D02*
X176893483Y-77010076D01*
X176893483Y-77010076D02*
X176798245Y-77105314D01*
X176798245Y-77105314D02*
X176703007Y-77152933D01*
X155999838Y-80606517D02*
X155952219Y-80701755D01*
X155952219Y-80701755D02*
X155952219Y-80844612D01*
X155952219Y-80844612D02*
X155999838Y-80987469D01*
X155999838Y-80987469D02*
X156095076Y-81082707D01*
X156095076Y-81082707D02*
X156190314Y-81130326D01*
X156190314Y-81130326D02*
X156380790Y-81177945D01*
X156380790Y-81177945D02*
X156523647Y-81177945D01*
X156523647Y-81177945D02*
X156714123Y-81130326D01*
X156714123Y-81130326D02*
X156809361Y-81082707D01*
X156809361Y-81082707D02*
X156904600Y-80987469D01*
X156904600Y-80987469D02*
X156952219Y-80844612D01*
X156952219Y-80844612D02*
X156952219Y-80749374D01*
X156952219Y-80749374D02*
X156904600Y-80606517D01*
X156904600Y-80606517D02*
X156856980Y-80558898D01*
X156856980Y-80558898D02*
X156523647Y-80558898D01*
X156523647Y-80558898D02*
X156523647Y-80749374D01*
X156952219Y-80130326D02*
X155952219Y-80130326D01*
X155952219Y-80130326D02*
X156952219Y-79558898D01*
X156952219Y-79558898D02*
X155952219Y-79558898D01*
X156952219Y-79082707D02*
X155952219Y-79082707D01*
X155952219Y-79082707D02*
X155952219Y-78844612D01*
X155952219Y-78844612D02*
X155999838Y-78701755D01*
X155999838Y-78701755D02*
X156095076Y-78606517D01*
X156095076Y-78606517D02*
X156190314Y-78558898D01*
X156190314Y-78558898D02*
X156380790Y-78511279D01*
X156380790Y-78511279D02*
X156523647Y-78511279D01*
X156523647Y-78511279D02*
X156714123Y-78558898D01*
X156714123Y-78558898D02*
X156809361Y-78606517D01*
X156809361Y-78606517D02*
X156904600Y-78701755D01*
X156904600Y-78701755D02*
X156952219Y-78844612D01*
X156952219Y-78844612D02*
X156952219Y-79082707D01*
X160952219Y-81225564D02*
X160952219Y-80606517D01*
X160952219Y-80606517D02*
X161333171Y-80939850D01*
X161333171Y-80939850D02*
X161333171Y-80796993D01*
X161333171Y-80796993D02*
X161380790Y-80701755D01*
X161380790Y-80701755D02*
X161428409Y-80654136D01*
X161428409Y-80654136D02*
X161523647Y-80606517D01*
X161523647Y-80606517D02*
X161761742Y-80606517D01*
X161761742Y-80606517D02*
X161856980Y-80654136D01*
X161856980Y-80654136D02*
X161904600Y-80701755D01*
X161904600Y-80701755D02*
X161952219Y-80796993D01*
X161952219Y-80796993D02*
X161952219Y-81082707D01*
X161952219Y-81082707D02*
X161904600Y-81177945D01*
X161904600Y-81177945D02*
X161856980Y-81225564D01*
X160952219Y-80320802D02*
X161952219Y-79987469D01*
X161952219Y-79987469D02*
X160952219Y-79654136D01*
X160952219Y-79416040D02*
X160952219Y-78796993D01*
X160952219Y-78796993D02*
X161333171Y-79130326D01*
X161333171Y-79130326D02*
X161333171Y-78987469D01*
X161333171Y-78987469D02*
X161380790Y-78892231D01*
X161380790Y-78892231D02*
X161428409Y-78844612D01*
X161428409Y-78844612D02*
X161523647Y-78796993D01*
X161523647Y-78796993D02*
X161761742Y-78796993D01*
X161761742Y-78796993D02*
X161856980Y-78844612D01*
X161856980Y-78844612D02*
X161904600Y-78892231D01*
X161904600Y-78892231D02*
X161952219Y-78987469D01*
X161952219Y-78987469D02*
X161952219Y-79273183D01*
X161952219Y-79273183D02*
X161904600Y-79368421D01*
X161904600Y-79368421D02*
X161856980Y-79416040D01*
X152893482Y-82452219D02*
X152322054Y-82452219D01*
X152607768Y-82452219D02*
X152607768Y-81452219D01*
X152607768Y-81452219D02*
X152512530Y-81595076D01*
X152512530Y-81595076D02*
X152417292Y-81690314D01*
X152417292Y-81690314D02*
X152322054Y-81737933D01*
X153464911Y-81880790D02*
X153369673Y-81833171D01*
X153369673Y-81833171D02*
X153322054Y-81785552D01*
X153322054Y-81785552D02*
X153274435Y-81690314D01*
X153274435Y-81690314D02*
X153274435Y-81642695D01*
X153274435Y-81642695D02*
X153322054Y-81547457D01*
X153322054Y-81547457D02*
X153369673Y-81499838D01*
X153369673Y-81499838D02*
X153464911Y-81452219D01*
X153464911Y-81452219D02*
X153655387Y-81452219D01*
X153655387Y-81452219D02*
X153750625Y-81499838D01*
X153750625Y-81499838D02*
X153798244Y-81547457D01*
X153798244Y-81547457D02*
X153845863Y-81642695D01*
X153845863Y-81642695D02*
X153845863Y-81690314D01*
X153845863Y-81690314D02*
X153798244Y-81785552D01*
X153798244Y-81785552D02*
X153750625Y-81833171D01*
X153750625Y-81833171D02*
X153655387Y-81880790D01*
X153655387Y-81880790D02*
X153464911Y-81880790D01*
X153464911Y-81880790D02*
X153369673Y-81928409D01*
X153369673Y-81928409D02*
X153322054Y-81976028D01*
X153322054Y-81976028D02*
X153274435Y-82071266D01*
X153274435Y-82071266D02*
X153274435Y-82261742D01*
X153274435Y-82261742D02*
X153322054Y-82356980D01*
X153322054Y-82356980D02*
X153369673Y-82404600D01*
X153369673Y-82404600D02*
X153464911Y-82452219D01*
X153464911Y-82452219D02*
X153655387Y-82452219D01*
X153655387Y-82452219D02*
X153750625Y-82404600D01*
X153750625Y-82404600D02*
X153798244Y-82356980D01*
X153798244Y-82356980D02*
X153845863Y-82261742D01*
X153845863Y-82261742D02*
X153845863Y-82071266D01*
X153845863Y-82071266D02*
X153798244Y-81976028D01*
X153798244Y-81976028D02*
X153750625Y-81928409D01*
X153750625Y-81928409D02*
X153655387Y-81880790D01*
X164452219Y-80558898D02*
X163976028Y-80892231D01*
X164452219Y-81130326D02*
X163452219Y-81130326D01*
X163452219Y-81130326D02*
X163452219Y-80749374D01*
X163452219Y-80749374D02*
X163499838Y-80654136D01*
X163499838Y-80654136D02*
X163547457Y-80606517D01*
X163547457Y-80606517D02*
X163642695Y-80558898D01*
X163642695Y-80558898D02*
X163785552Y-80558898D01*
X163785552Y-80558898D02*
X163880790Y-80606517D01*
X163880790Y-80606517D02*
X163928409Y-80654136D01*
X163928409Y-80654136D02*
X163976028Y-80749374D01*
X163976028Y-80749374D02*
X163976028Y-81130326D01*
X163452219Y-80225564D02*
X164452219Y-79558898D01*
X163452219Y-79558898D02*
X164452219Y-80225564D01*
X164452219Y-79177945D02*
X163452219Y-79177945D01*
X151322054Y-111404600D02*
X151464911Y-111452219D01*
X151464911Y-111452219D02*
X151703006Y-111452219D01*
X151703006Y-111452219D02*
X151798244Y-111404600D01*
X151798244Y-111404600D02*
X151845863Y-111356980D01*
X151845863Y-111356980D02*
X151893482Y-111261742D01*
X151893482Y-111261742D02*
X151893482Y-111166504D01*
X151893482Y-111166504D02*
X151845863Y-111071266D01*
X151845863Y-111071266D02*
X151798244Y-111023647D01*
X151798244Y-111023647D02*
X151703006Y-110976028D01*
X151703006Y-110976028D02*
X151512530Y-110928409D01*
X151512530Y-110928409D02*
X151417292Y-110880790D01*
X151417292Y-110880790D02*
X151369673Y-110833171D01*
X151369673Y-110833171D02*
X151322054Y-110737933D01*
X151322054Y-110737933D02*
X151322054Y-110642695D01*
X151322054Y-110642695D02*
X151369673Y-110547457D01*
X151369673Y-110547457D02*
X151417292Y-110499838D01*
X151417292Y-110499838D02*
X151512530Y-110452219D01*
X151512530Y-110452219D02*
X151750625Y-110452219D01*
X151750625Y-110452219D02*
X151893482Y-110499838D01*
X152893482Y-111356980D02*
X152845863Y-111404600D01*
X152845863Y-111404600D02*
X152703006Y-111452219D01*
X152703006Y-111452219D02*
X152607768Y-111452219D01*
X152607768Y-111452219D02*
X152464911Y-111404600D01*
X152464911Y-111404600D02*
X152369673Y-111309361D01*
X152369673Y-111309361D02*
X152322054Y-111214123D01*
X152322054Y-111214123D02*
X152274435Y-111023647D01*
X152274435Y-111023647D02*
X152274435Y-110880790D01*
X152274435Y-110880790D02*
X152322054Y-110690314D01*
X152322054Y-110690314D02*
X152369673Y-110595076D01*
X152369673Y-110595076D02*
X152464911Y-110499838D01*
X152464911Y-110499838D02*
X152607768Y-110452219D01*
X152607768Y-110452219D02*
X152703006Y-110452219D01*
X152703006Y-110452219D02*
X152845863Y-110499838D01*
X152845863Y-110499838D02*
X152893482Y-110547457D01*
X153322054Y-111452219D02*
X153322054Y-110452219D01*
X153893482Y-111452219D02*
X153464911Y-110880790D01*
X153893482Y-110452219D02*
X153322054Y-111023647D01*
X161547780Y-115274435D02*
X161547780Y-115893482D01*
X161547780Y-115893482D02*
X161166828Y-115560149D01*
X161166828Y-115560149D02*
X161166828Y-115703006D01*
X161166828Y-115703006D02*
X161119209Y-115798244D01*
X161119209Y-115798244D02*
X161071590Y-115845863D01*
X161071590Y-115845863D02*
X160976352Y-115893482D01*
X160976352Y-115893482D02*
X160738257Y-115893482D01*
X160738257Y-115893482D02*
X160643019Y-115845863D01*
X160643019Y-115845863D02*
X160595400Y-115798244D01*
X160595400Y-115798244D02*
X160547780Y-115703006D01*
X160547780Y-115703006D02*
X160547780Y-115417292D01*
X160547780Y-115417292D02*
X160595400Y-115322054D01*
X160595400Y-115322054D02*
X160643019Y-115274435D01*
X161547780Y-116179197D02*
X160547780Y-116512530D01*
X160547780Y-116512530D02*
X161547780Y-116845863D01*
X161547780Y-117083959D02*
X161547780Y-117703006D01*
X161547780Y-117703006D02*
X161166828Y-117369673D01*
X161166828Y-117369673D02*
X161166828Y-117512530D01*
X161166828Y-117512530D02*
X161119209Y-117607768D01*
X161119209Y-117607768D02*
X161071590Y-117655387D01*
X161071590Y-117655387D02*
X160976352Y-117703006D01*
X160976352Y-117703006D02*
X160738257Y-117703006D01*
X160738257Y-117703006D02*
X160643019Y-117655387D01*
X160643019Y-117655387D02*
X160595400Y-117607768D01*
X160595400Y-117607768D02*
X160547780Y-117512530D01*
X160547780Y-117512530D02*
X160547780Y-117226816D01*
X160547780Y-117226816D02*
X160595400Y-117131578D01*
X160595400Y-117131578D02*
X160643019Y-117083959D01*
X157547780Y-115893482D02*
X157547780Y-115322054D01*
X157547780Y-115607768D02*
X158547780Y-115607768D01*
X158547780Y-115607768D02*
X158404923Y-115512530D01*
X158404923Y-115512530D02*
X158309685Y-115417292D01*
X158309685Y-115417292D02*
X158262066Y-115322054D01*
X158547780Y-116179197D02*
X157547780Y-116512530D01*
X157547780Y-116512530D02*
X158547780Y-116845863D01*
X158119209Y-117322054D02*
X158166828Y-117226816D01*
X158166828Y-117226816D02*
X158214447Y-117179197D01*
X158214447Y-117179197D02*
X158309685Y-117131578D01*
X158309685Y-117131578D02*
X158357304Y-117131578D01*
X158357304Y-117131578D02*
X158452542Y-117179197D01*
X158452542Y-117179197D02*
X158500161Y-117226816D01*
X158500161Y-117226816D02*
X158547780Y-117322054D01*
X158547780Y-117322054D02*
X158547780Y-117512530D01*
X158547780Y-117512530D02*
X158500161Y-117607768D01*
X158500161Y-117607768D02*
X158452542Y-117655387D01*
X158452542Y-117655387D02*
X158357304Y-117703006D01*
X158357304Y-117703006D02*
X158309685Y-117703006D01*
X158309685Y-117703006D02*
X158214447Y-117655387D01*
X158214447Y-117655387D02*
X158166828Y-117607768D01*
X158166828Y-117607768D02*
X158119209Y-117512530D01*
X158119209Y-117512530D02*
X158119209Y-117322054D01*
X158119209Y-117322054D02*
X158071590Y-117226816D01*
X158071590Y-117226816D02*
X158023971Y-117179197D01*
X158023971Y-117179197D02*
X157928733Y-117131578D01*
X157928733Y-117131578D02*
X157738257Y-117131578D01*
X157738257Y-117131578D02*
X157643019Y-117179197D01*
X157643019Y-117179197D02*
X157595400Y-117226816D01*
X157595400Y-117226816D02*
X157547780Y-117322054D01*
X157547780Y-117322054D02*
X157547780Y-117512530D01*
X157547780Y-117512530D02*
X157595400Y-117607768D01*
X157595400Y-117607768D02*
X157643019Y-117655387D01*
X157643019Y-117655387D02*
X157738257Y-117703006D01*
X157738257Y-117703006D02*
X157928733Y-117703006D01*
X157928733Y-117703006D02*
X158023971Y-117655387D01*
X158023971Y-117655387D02*
X158071590Y-117607768D01*
X158071590Y-117607768D02*
X158119209Y-117512530D01*
X166011179Y-81273183D02*
X166011179Y-80701755D01*
X167011179Y-80987469D02*
X166011179Y-80987469D01*
X166011179Y-80463659D02*
X167011179Y-79796993D01*
X166011179Y-79796993D02*
X167011179Y-80463659D01*
X166011179Y-79225564D02*
X166011179Y-79035088D01*
X166011179Y-79035088D02*
X166058798Y-78939850D01*
X166058798Y-78939850D02*
X166154036Y-78844612D01*
X166154036Y-78844612D02*
X166344512Y-78796993D01*
X166344512Y-78796993D02*
X166677845Y-78796993D01*
X166677845Y-78796993D02*
X166868321Y-78844612D01*
X166868321Y-78844612D02*
X166963560Y-78939850D01*
X166963560Y-78939850D02*
X167011179Y-79035088D01*
X167011179Y-79035088D02*
X167011179Y-79225564D01*
X167011179Y-79225564D02*
X166963560Y-79320802D01*
X166963560Y-79320802D02*
X166868321Y-79416040D01*
X166868321Y-79416040D02*
X166677845Y-79463659D01*
X166677845Y-79463659D02*
X166344512Y-79463659D01*
X166344512Y-79463659D02*
X166154036Y-79416040D01*
X166154036Y-79416040D02*
X166058798Y-79320802D01*
X166058798Y-79320802D02*
X166011179Y-79225564D01*
X152512530Y-84380790D02*
X152417292Y-84333171D01*
X152417292Y-84333171D02*
X152369673Y-84285552D01*
X152369673Y-84285552D02*
X152322054Y-84190314D01*
X152322054Y-84190314D02*
X152322054Y-84142695D01*
X152322054Y-84142695D02*
X152369673Y-84047457D01*
X152369673Y-84047457D02*
X152417292Y-83999838D01*
X152417292Y-83999838D02*
X152512530Y-83952219D01*
X152512530Y-83952219D02*
X152703006Y-83952219D01*
X152703006Y-83952219D02*
X152798244Y-83999838D01*
X152798244Y-83999838D02*
X152845863Y-84047457D01*
X152845863Y-84047457D02*
X152893482Y-84142695D01*
X152893482Y-84142695D02*
X152893482Y-84190314D01*
X152893482Y-84190314D02*
X152845863Y-84285552D01*
X152845863Y-84285552D02*
X152798244Y-84333171D01*
X152798244Y-84333171D02*
X152703006Y-84380790D01*
X152703006Y-84380790D02*
X152512530Y-84380790D01*
X152512530Y-84380790D02*
X152417292Y-84428409D01*
X152417292Y-84428409D02*
X152369673Y-84476028D01*
X152369673Y-84476028D02*
X152322054Y-84571266D01*
X152322054Y-84571266D02*
X152322054Y-84761742D01*
X152322054Y-84761742D02*
X152369673Y-84856980D01*
X152369673Y-84856980D02*
X152417292Y-84904600D01*
X152417292Y-84904600D02*
X152512530Y-84952219D01*
X152512530Y-84952219D02*
X152703006Y-84952219D01*
X152703006Y-84952219D02*
X152798244Y-84904600D01*
X152798244Y-84904600D02*
X152845863Y-84856980D01*
X152845863Y-84856980D02*
X152893482Y-84761742D01*
X152893482Y-84761742D02*
X152893482Y-84571266D01*
X152893482Y-84571266D02*
X152845863Y-84476028D01*
X152845863Y-84476028D02*
X152798244Y-84428409D01*
X152798244Y-84428409D02*
X152703006Y-84380790D01*
X166369673Y-107452219D02*
X166369673Y-106452219D01*
X167036339Y-106452219D02*
X167226815Y-106452219D01*
X167226815Y-106452219D02*
X167322053Y-106499838D01*
X167322053Y-106499838D02*
X167417291Y-106595076D01*
X167417291Y-106595076D02*
X167464910Y-106785552D01*
X167464910Y-106785552D02*
X167464910Y-107118885D01*
X167464910Y-107118885D02*
X167417291Y-107309361D01*
X167417291Y-107309361D02*
X167322053Y-107404600D01*
X167322053Y-107404600D02*
X167226815Y-107452219D01*
X167226815Y-107452219D02*
X167036339Y-107452219D01*
X167036339Y-107452219D02*
X166941101Y-107404600D01*
X166941101Y-107404600D02*
X166845863Y-107309361D01*
X166845863Y-107309361D02*
X166798244Y-107118885D01*
X166798244Y-107118885D02*
X166798244Y-106785552D01*
X166798244Y-106785552D02*
X166845863Y-106595076D01*
X166845863Y-106595076D02*
X166941101Y-106499838D01*
X166941101Y-106499838D02*
X167036339Y-106452219D01*
X167798244Y-106452219D02*
X168417291Y-106452219D01*
X168417291Y-106452219D02*
X168083958Y-106833171D01*
X168083958Y-106833171D02*
X168226815Y-106833171D01*
X168226815Y-106833171D02*
X168322053Y-106880790D01*
X168322053Y-106880790D02*
X168369672Y-106928409D01*
X168369672Y-106928409D02*
X168417291Y-107023647D01*
X168417291Y-107023647D02*
X168417291Y-107261742D01*
X168417291Y-107261742D02*
X168369672Y-107356980D01*
X168369672Y-107356980D02*
X168322053Y-107404600D01*
X168322053Y-107404600D02*
X168226815Y-107452219D01*
X168226815Y-107452219D02*
X167941101Y-107452219D01*
X167941101Y-107452219D02*
X167845863Y-107404600D01*
X167845863Y-107404600D02*
X167798244Y-107356980D01*
X168893482Y-107452219D02*
X169083958Y-107452219D01*
X169083958Y-107452219D02*
X169179196Y-107404600D01*
X169179196Y-107404600D02*
X169226815Y-107356980D01*
X169226815Y-107356980D02*
X169322053Y-107214123D01*
X169322053Y-107214123D02*
X169369672Y-107023647D01*
X169369672Y-107023647D02*
X169369672Y-106642695D01*
X169369672Y-106642695D02*
X169322053Y-106547457D01*
X169322053Y-106547457D02*
X169274434Y-106499838D01*
X169274434Y-106499838D02*
X169179196Y-106452219D01*
X169179196Y-106452219D02*
X168988720Y-106452219D01*
X168988720Y-106452219D02*
X168893482Y-106499838D01*
X168893482Y-106499838D02*
X168845863Y-106547457D01*
X168845863Y-106547457D02*
X168798244Y-106642695D01*
X168798244Y-106642695D02*
X168798244Y-106880790D01*
X168798244Y-106880790D02*
X168845863Y-106976028D01*
X168845863Y-106976028D02*
X168893482Y-107023647D01*
X168893482Y-107023647D02*
X168988720Y-107071266D01*
X168988720Y-107071266D02*
X169179196Y-107071266D01*
X169179196Y-107071266D02*
X169274434Y-107023647D01*
X169274434Y-107023647D02*
X169322053Y-106976028D01*
X169322053Y-106976028D02*
X169369672Y-106880790D01*
X167226816Y-122452219D02*
X167560149Y-123452219D01*
X167560149Y-123452219D02*
X167893482Y-122452219D01*
X167988721Y-123547457D02*
X168750625Y-123547457D01*
X169322054Y-122928409D02*
X169464911Y-122976028D01*
X169464911Y-122976028D02*
X169512530Y-123023647D01*
X169512530Y-123023647D02*
X169560149Y-123118885D01*
X169560149Y-123118885D02*
X169560149Y-123261742D01*
X169560149Y-123261742D02*
X169512530Y-123356980D01*
X169512530Y-123356980D02*
X169464911Y-123404600D01*
X169464911Y-123404600D02*
X169369673Y-123452219D01*
X169369673Y-123452219D02*
X168988721Y-123452219D01*
X168988721Y-123452219D02*
X168988721Y-122452219D01*
X168988721Y-122452219D02*
X169322054Y-122452219D01*
X169322054Y-122452219D02*
X169417292Y-122499838D01*
X169417292Y-122499838D02*
X169464911Y-122547457D01*
X169464911Y-122547457D02*
X169512530Y-122642695D01*
X169512530Y-122642695D02*
X169512530Y-122737933D01*
X169512530Y-122737933D02*
X169464911Y-122833171D01*
X169464911Y-122833171D02*
X169417292Y-122880790D01*
X169417292Y-122880790D02*
X169322054Y-122928409D01*
X169322054Y-122928409D02*
X168988721Y-122928409D01*
X169988721Y-122452219D02*
X169988721Y-123261742D01*
X169988721Y-123261742D02*
X170036340Y-123356980D01*
X170036340Y-123356980D02*
X170083959Y-123404600D01*
X170083959Y-123404600D02*
X170179197Y-123452219D01*
X170179197Y-123452219D02*
X170369673Y-123452219D01*
X170369673Y-123452219D02*
X170464911Y-123404600D01*
X170464911Y-123404600D02*
X170512530Y-123356980D01*
X170512530Y-123356980D02*
X170560149Y-123261742D01*
X170560149Y-123261742D02*
X170560149Y-122452219D01*
X170988721Y-123404600D02*
X171131578Y-123452219D01*
X171131578Y-123452219D02*
X171369673Y-123452219D01*
X171369673Y-123452219D02*
X171464911Y-123404600D01*
X171464911Y-123404600D02*
X171512530Y-123356980D01*
X171512530Y-123356980D02*
X171560149Y-123261742D01*
X171560149Y-123261742D02*
X171560149Y-123166504D01*
X171560149Y-123166504D02*
X171512530Y-123071266D01*
X171512530Y-123071266D02*
X171464911Y-123023647D01*
X171464911Y-123023647D02*
X171369673Y-122976028D01*
X171369673Y-122976028D02*
X171179197Y-122928409D01*
X171179197Y-122928409D02*
X171083959Y-122880790D01*
X171083959Y-122880790D02*
X171036340Y-122833171D01*
X171036340Y-122833171D02*
X170988721Y-122737933D01*
X170988721Y-122737933D02*
X170988721Y-122642695D01*
X170988721Y-122642695D02*
X171036340Y-122547457D01*
X171036340Y-122547457D02*
X171083959Y-122499838D01*
X171083959Y-122499838D02*
X171179197Y-122452219D01*
X171179197Y-122452219D02*
X171417292Y-122452219D01*
X171417292Y-122452219D02*
X171560149Y-122499838D01*
X158893482Y-129452219D02*
X158322054Y-129452219D01*
X158607768Y-129452219D02*
X158607768Y-128452219D01*
X158607768Y-128452219D02*
X158512530Y-128595076D01*
X158512530Y-128595076D02*
X158417292Y-128690314D01*
X158417292Y-128690314D02*
X158322054Y-128737933D01*
X159179197Y-128452219D02*
X159512530Y-129452219D01*
X159512530Y-129452219D02*
X159845863Y-128452219D01*
X160322054Y-128880790D02*
X160226816Y-128833171D01*
X160226816Y-128833171D02*
X160179197Y-128785552D01*
X160179197Y-128785552D02*
X160131578Y-128690314D01*
X160131578Y-128690314D02*
X160131578Y-128642695D01*
X160131578Y-128642695D02*
X160179197Y-128547457D01*
X160179197Y-128547457D02*
X160226816Y-128499838D01*
X160226816Y-128499838D02*
X160322054Y-128452219D01*
X160322054Y-128452219D02*
X160512530Y-128452219D01*
X160512530Y-128452219D02*
X160607768Y-128499838D01*
X160607768Y-128499838D02*
X160655387Y-128547457D01*
X160655387Y-128547457D02*
X160703006Y-128642695D01*
X160703006Y-128642695D02*
X160703006Y-128690314D01*
X160703006Y-128690314D02*
X160655387Y-128785552D01*
X160655387Y-128785552D02*
X160607768Y-128833171D01*
X160607768Y-128833171D02*
X160512530Y-128880790D01*
X160512530Y-128880790D02*
X160322054Y-128880790D01*
X160322054Y-128880790D02*
X160226816Y-128928409D01*
X160226816Y-128928409D02*
X160179197Y-128976028D01*
X160179197Y-128976028D02*
X160131578Y-129071266D01*
X160131578Y-129071266D02*
X160131578Y-129261742D01*
X160131578Y-129261742D02*
X160179197Y-129356980D01*
X160179197Y-129356980D02*
X160226816Y-129404600D01*
X160226816Y-129404600D02*
X160322054Y-129452219D01*
X160322054Y-129452219D02*
X160512530Y-129452219D01*
X160512530Y-129452219D02*
X160607768Y-129404600D01*
X160607768Y-129404600D02*
X160655387Y-129356980D01*
X160655387Y-129356980D02*
X160703006Y-129261742D01*
X160703006Y-129261742D02*
X160703006Y-129071266D01*
X160703006Y-129071266D02*
X160655387Y-128976028D01*
X160655387Y-128976028D02*
X160607768Y-128928409D01*
X160607768Y-128928409D02*
X160512530Y-128880790D01*
X173274435Y-122452219D02*
X173893482Y-122452219D01*
X173893482Y-122452219D02*
X173560149Y-122833171D01*
X173560149Y-122833171D02*
X173703006Y-122833171D01*
X173703006Y-122833171D02*
X173798244Y-122880790D01*
X173798244Y-122880790D02*
X173845863Y-122928409D01*
X173845863Y-122928409D02*
X173893482Y-123023647D01*
X173893482Y-123023647D02*
X173893482Y-123261742D01*
X173893482Y-123261742D02*
X173845863Y-123356980D01*
X173845863Y-123356980D02*
X173798244Y-123404600D01*
X173798244Y-123404600D02*
X173703006Y-123452219D01*
X173703006Y-123452219D02*
X173417292Y-123452219D01*
X173417292Y-123452219D02*
X173322054Y-123404600D01*
X173322054Y-123404600D02*
X173274435Y-123356980D01*
X174179197Y-122452219D02*
X174512530Y-123452219D01*
X174512530Y-123452219D02*
X174845863Y-122452219D01*
X175083959Y-122452219D02*
X175703006Y-122452219D01*
X175703006Y-122452219D02*
X175369673Y-122833171D01*
X175369673Y-122833171D02*
X175512530Y-122833171D01*
X175512530Y-122833171D02*
X175607768Y-122880790D01*
X175607768Y-122880790D02*
X175655387Y-122928409D01*
X175655387Y-122928409D02*
X175703006Y-123023647D01*
X175703006Y-123023647D02*
X175703006Y-123261742D01*
X175703006Y-123261742D02*
X175655387Y-123356980D01*
X175655387Y-123356980D02*
X175607768Y-123404600D01*
X175607768Y-123404600D02*
X175512530Y-123452219D01*
X175512530Y-123452219D02*
X175226816Y-123452219D01*
X175226816Y-123452219D02*
X175131578Y-123404600D01*
X175131578Y-123404600D02*
X175083959Y-123356980D01*
X188226816Y-126452219D02*
X188560149Y-127452219D01*
X188560149Y-127452219D02*
X188893482Y-126452219D01*
X188988721Y-127547457D02*
X189750625Y-127547457D01*
X190322054Y-126928409D02*
X190464911Y-126976028D01*
X190464911Y-126976028D02*
X190512530Y-127023647D01*
X190512530Y-127023647D02*
X190560149Y-127118885D01*
X190560149Y-127118885D02*
X190560149Y-127261742D01*
X190560149Y-127261742D02*
X190512530Y-127356980D01*
X190512530Y-127356980D02*
X190464911Y-127404600D01*
X190464911Y-127404600D02*
X190369673Y-127452219D01*
X190369673Y-127452219D02*
X189988721Y-127452219D01*
X189988721Y-127452219D02*
X189988721Y-126452219D01*
X189988721Y-126452219D02*
X190322054Y-126452219D01*
X190322054Y-126452219D02*
X190417292Y-126499838D01*
X190417292Y-126499838D02*
X190464911Y-126547457D01*
X190464911Y-126547457D02*
X190512530Y-126642695D01*
X190512530Y-126642695D02*
X190512530Y-126737933D01*
X190512530Y-126737933D02*
X190464911Y-126833171D01*
X190464911Y-126833171D02*
X190417292Y-126880790D01*
X190417292Y-126880790D02*
X190322054Y-126928409D01*
X190322054Y-126928409D02*
X189988721Y-126928409D01*
X190941102Y-127166504D02*
X191417292Y-127166504D01*
X190845864Y-127452219D02*
X191179197Y-126452219D01*
X191179197Y-126452219D02*
X191512530Y-127452219D01*
X191703007Y-126452219D02*
X192274435Y-126452219D01*
X191988721Y-127452219D02*
X191988721Y-126452219D01*
X192464912Y-126452219D02*
X193036340Y-126452219D01*
X192750626Y-127452219D02*
X192750626Y-126452219D01*
X141726816Y-75952219D02*
X142060149Y-76952219D01*
X142060149Y-76952219D02*
X142393482Y-75952219D01*
X142488721Y-77047457D02*
X143250625Y-77047457D01*
X143488721Y-75952219D02*
X143488721Y-76761742D01*
X143488721Y-76761742D02*
X143536340Y-76856980D01*
X143536340Y-76856980D02*
X143583959Y-76904600D01*
X143583959Y-76904600D02*
X143679197Y-76952219D01*
X143679197Y-76952219D02*
X143869673Y-76952219D01*
X143869673Y-76952219D02*
X143964911Y-76904600D01*
X143964911Y-76904600D02*
X144012530Y-76856980D01*
X144012530Y-76856980D02*
X144060149Y-76761742D01*
X144060149Y-76761742D02*
X144060149Y-75952219D01*
X144488721Y-76904600D02*
X144631578Y-76952219D01*
X144631578Y-76952219D02*
X144869673Y-76952219D01*
X144869673Y-76952219D02*
X144964911Y-76904600D01*
X144964911Y-76904600D02*
X145012530Y-76856980D01*
X145012530Y-76856980D02*
X145060149Y-76761742D01*
X145060149Y-76761742D02*
X145060149Y-76666504D01*
X145060149Y-76666504D02*
X145012530Y-76571266D01*
X145012530Y-76571266D02*
X144964911Y-76523647D01*
X144964911Y-76523647D02*
X144869673Y-76476028D01*
X144869673Y-76476028D02*
X144679197Y-76428409D01*
X144679197Y-76428409D02*
X144583959Y-76380790D01*
X144583959Y-76380790D02*
X144536340Y-76333171D01*
X144536340Y-76333171D02*
X144488721Y-76237933D01*
X144488721Y-76237933D02*
X144488721Y-76142695D01*
X144488721Y-76142695D02*
X144536340Y-76047457D01*
X144536340Y-76047457D02*
X144583959Y-75999838D01*
X144583959Y-75999838D02*
X144679197Y-75952219D01*
X144679197Y-75952219D02*
X144917292Y-75952219D01*
X144917292Y-75952219D02*
X145060149Y-75999838D01*
X145822054Y-76428409D02*
X145964911Y-76476028D01*
X145964911Y-76476028D02*
X146012530Y-76523647D01*
X146012530Y-76523647D02*
X146060149Y-76618885D01*
X146060149Y-76618885D02*
X146060149Y-76761742D01*
X146060149Y-76761742D02*
X146012530Y-76856980D01*
X146012530Y-76856980D02*
X145964911Y-76904600D01*
X145964911Y-76904600D02*
X145869673Y-76952219D01*
X145869673Y-76952219D02*
X145488721Y-76952219D01*
X145488721Y-76952219D02*
X145488721Y-75952219D01*
X145488721Y-75952219D02*
X145822054Y-75952219D01*
X145822054Y-75952219D02*
X145917292Y-75999838D01*
X145917292Y-75999838D02*
X145964911Y-76047457D01*
X145964911Y-76047457D02*
X146012530Y-76142695D01*
X146012530Y-76142695D02*
X146012530Y-76237933D01*
X146012530Y-76237933D02*
X145964911Y-76333171D01*
X145964911Y-76333171D02*
X145917292Y-76380790D01*
X145917292Y-76380790D02*
X145822054Y-76428409D01*
X145822054Y-76428409D02*
X145488721Y-76428409D01*
X172941101Y-116356980D02*
X172893482Y-116404600D01*
X172893482Y-116404600D02*
X172750625Y-116452219D01*
X172750625Y-116452219D02*
X172655387Y-116452219D01*
X172655387Y-116452219D02*
X172512530Y-116404600D01*
X172512530Y-116404600D02*
X172417292Y-116309361D01*
X172417292Y-116309361D02*
X172369673Y-116214123D01*
X172369673Y-116214123D02*
X172322054Y-116023647D01*
X172322054Y-116023647D02*
X172322054Y-115880790D01*
X172322054Y-115880790D02*
X172369673Y-115690314D01*
X172369673Y-115690314D02*
X172417292Y-115595076D01*
X172417292Y-115595076D02*
X172512530Y-115499838D01*
X172512530Y-115499838D02*
X172655387Y-115452219D01*
X172655387Y-115452219D02*
X172750625Y-115452219D01*
X172750625Y-115452219D02*
X172893482Y-115499838D01*
X172893482Y-115499838D02*
X172941101Y-115547457D01*
X173322054Y-116166504D02*
X173798244Y-116166504D01*
X173226816Y-116452219D02*
X173560149Y-115452219D01*
X173560149Y-115452219D02*
X173893482Y-116452219D01*
X174226816Y-116452219D02*
X174226816Y-115452219D01*
X174226816Y-115452219D02*
X174798244Y-116452219D01*
X174798244Y-116452219D02*
X174798244Y-115452219D01*
X175036340Y-116547457D02*
X175798244Y-116547457D01*
X176607768Y-116452219D02*
X176274435Y-115976028D01*
X176036340Y-116452219D02*
X176036340Y-115452219D01*
X176036340Y-115452219D02*
X176417292Y-115452219D01*
X176417292Y-115452219D02*
X176512530Y-115499838D01*
X176512530Y-115499838D02*
X176560149Y-115547457D01*
X176560149Y-115547457D02*
X176607768Y-115642695D01*
X176607768Y-115642695D02*
X176607768Y-115785552D01*
X176607768Y-115785552D02*
X176560149Y-115880790D01*
X176560149Y-115880790D02*
X176512530Y-115928409D01*
X176512530Y-115928409D02*
X176417292Y-115976028D01*
X176417292Y-115976028D02*
X176036340Y-115976028D01*
X176941102Y-115452219D02*
X177607768Y-116452219D01*
X177607768Y-115452219D02*
X176941102Y-116452219D01*
X164547780Y-115845863D02*
X164547780Y-115369673D01*
X164547780Y-115369673D02*
X164071590Y-115322054D01*
X164071590Y-115322054D02*
X164119209Y-115369673D01*
X164119209Y-115369673D02*
X164166828Y-115464911D01*
X164166828Y-115464911D02*
X164166828Y-115703006D01*
X164166828Y-115703006D02*
X164119209Y-115798244D01*
X164119209Y-115798244D02*
X164071590Y-115845863D01*
X164071590Y-115845863D02*
X163976352Y-115893482D01*
X163976352Y-115893482D02*
X163738257Y-115893482D01*
X163738257Y-115893482D02*
X163643019Y-115845863D01*
X163643019Y-115845863D02*
X163595400Y-115798244D01*
X163595400Y-115798244D02*
X163547780Y-115703006D01*
X163547780Y-115703006D02*
X163547780Y-115464911D01*
X163547780Y-115464911D02*
X163595400Y-115369673D01*
X163595400Y-115369673D02*
X163643019Y-115322054D01*
X164547780Y-116179197D02*
X163547780Y-116512530D01*
X163547780Y-116512530D02*
X164547780Y-116845863D01*
X169755402Y-134877475D02*
X169755402Y-134401285D01*
X169755402Y-134401285D02*
X169279212Y-134353666D01*
X169279212Y-134353666D02*
X169326831Y-134401285D01*
X169326831Y-134401285D02*
X169374450Y-134496523D01*
X169374450Y-134496523D02*
X169374450Y-134734618D01*
X169374450Y-134734618D02*
X169326831Y-134829856D01*
X169326831Y-134829856D02*
X169279212Y-134877475D01*
X169279212Y-134877475D02*
X169183974Y-134925094D01*
X169183974Y-134925094D02*
X168945879Y-134925094D01*
X168945879Y-134925094D02*
X168850641Y-134877475D01*
X168850641Y-134877475D02*
X168803022Y-134829856D01*
X168803022Y-134829856D02*
X168755402Y-134734618D01*
X168755402Y-134734618D02*
X168755402Y-134496523D01*
X168755402Y-134496523D02*
X168803022Y-134401285D01*
X168803022Y-134401285D02*
X168850641Y-134353666D01*
X169755402Y-135210809D02*
X168755402Y-135544142D01*
X168755402Y-135544142D02*
X169755402Y-135877475D01*
X173051101Y-118381980D02*
X173003482Y-118429600D01*
X173003482Y-118429600D02*
X172860625Y-118477219D01*
X172860625Y-118477219D02*
X172765387Y-118477219D01*
X172765387Y-118477219D02*
X172622530Y-118429600D01*
X172622530Y-118429600D02*
X172527292Y-118334361D01*
X172527292Y-118334361D02*
X172479673Y-118239123D01*
X172479673Y-118239123D02*
X172432054Y-118048647D01*
X172432054Y-118048647D02*
X172432054Y-117905790D01*
X172432054Y-117905790D02*
X172479673Y-117715314D01*
X172479673Y-117715314D02*
X172527292Y-117620076D01*
X172527292Y-117620076D02*
X172622530Y-117524838D01*
X172622530Y-117524838D02*
X172765387Y-117477219D01*
X172765387Y-117477219D02*
X172860625Y-117477219D01*
X172860625Y-117477219D02*
X173003482Y-117524838D01*
X173003482Y-117524838D02*
X173051101Y-117572457D01*
X173432054Y-118191504D02*
X173908244Y-118191504D01*
X173336816Y-118477219D02*
X173670149Y-117477219D01*
X173670149Y-117477219D02*
X174003482Y-118477219D01*
X174336816Y-118477219D02*
X174336816Y-117477219D01*
X174336816Y-117477219D02*
X174908244Y-118477219D01*
X174908244Y-118477219D02*
X174908244Y-117477219D01*
X175146340Y-118572457D02*
X175908244Y-118572457D01*
X176003483Y-117477219D02*
X176574911Y-117477219D01*
X176289197Y-118477219D02*
X176289197Y-117477219D01*
X176813007Y-117477219D02*
X177479673Y-118477219D01*
X177479673Y-117477219D02*
X176813007Y-118477219D01*
X176369673Y-107452219D02*
X176369673Y-106452219D01*
X177036339Y-106452219D02*
X177226815Y-106452219D01*
X177226815Y-106452219D02*
X177322053Y-106499838D01*
X177322053Y-106499838D02*
X177417291Y-106595076D01*
X177417291Y-106595076D02*
X177464910Y-106785552D01*
X177464910Y-106785552D02*
X177464910Y-107118885D01*
X177464910Y-107118885D02*
X177417291Y-107309361D01*
X177417291Y-107309361D02*
X177322053Y-107404600D01*
X177322053Y-107404600D02*
X177226815Y-107452219D01*
X177226815Y-107452219D02*
X177036339Y-107452219D01*
X177036339Y-107452219D02*
X176941101Y-107404600D01*
X176941101Y-107404600D02*
X176845863Y-107309361D01*
X176845863Y-107309361D02*
X176798244Y-107118885D01*
X176798244Y-107118885D02*
X176798244Y-106785552D01*
X176798244Y-106785552D02*
X176845863Y-106595076D01*
X176845863Y-106595076D02*
X176941101Y-106499838D01*
X176941101Y-106499838D02*
X177036339Y-106452219D01*
X178322053Y-106785552D02*
X178322053Y-107452219D01*
X178083958Y-106404600D02*
X177845863Y-107118885D01*
X177845863Y-107118885D02*
X178464910Y-107118885D01*
X178798244Y-106547457D02*
X178845863Y-106499838D01*
X178845863Y-106499838D02*
X178941101Y-106452219D01*
X178941101Y-106452219D02*
X179179196Y-106452219D01*
X179179196Y-106452219D02*
X179274434Y-106499838D01*
X179274434Y-106499838D02*
X179322053Y-106547457D01*
X179322053Y-106547457D02*
X179369672Y-106642695D01*
X179369672Y-106642695D02*
X179369672Y-106737933D01*
X179369672Y-106737933D02*
X179322053Y-106880790D01*
X179322053Y-106880790D02*
X178750625Y-107452219D01*
X178750625Y-107452219D02*
X179369672Y-107452219D01*
X152893482Y-79952219D02*
X152322054Y-79952219D01*
X152607768Y-79952219D02*
X152607768Y-78952219D01*
X152607768Y-78952219D02*
X152512530Y-79095076D01*
X152512530Y-79095076D02*
X152417292Y-79190314D01*
X152417292Y-79190314D02*
X152322054Y-79237933D01*
X153226816Y-78952219D02*
X153893482Y-78952219D01*
X153893482Y-78952219D02*
X153464911Y-79952219D01*
X152893482Y-77452219D02*
X152322054Y-77452219D01*
X152607768Y-77452219D02*
X152607768Y-76452219D01*
X152607768Y-76452219D02*
X152512530Y-76595076D01*
X152512530Y-76595076D02*
X152417292Y-76690314D01*
X152417292Y-76690314D02*
X152322054Y-76737933D01*
X153750625Y-76452219D02*
X153560149Y-76452219D01*
X153560149Y-76452219D02*
X153464911Y-76499838D01*
X153464911Y-76499838D02*
X153417292Y-76547457D01*
X153417292Y-76547457D02*
X153322054Y-76690314D01*
X153322054Y-76690314D02*
X153274435Y-76880790D01*
X153274435Y-76880790D02*
X153274435Y-77261742D01*
X153274435Y-77261742D02*
X153322054Y-77356980D01*
X153322054Y-77356980D02*
X153369673Y-77404600D01*
X153369673Y-77404600D02*
X153464911Y-77452219D01*
X153464911Y-77452219D02*
X153655387Y-77452219D01*
X153655387Y-77452219D02*
X153750625Y-77404600D01*
X153750625Y-77404600D02*
X153798244Y-77356980D01*
X153798244Y-77356980D02*
X153845863Y-77261742D01*
X153845863Y-77261742D02*
X153845863Y-77023647D01*
X153845863Y-77023647D02*
X153798244Y-76928409D01*
X153798244Y-76928409D02*
X153750625Y-76880790D01*
X153750625Y-76880790D02*
X153655387Y-76833171D01*
X153655387Y-76833171D02*
X153464911Y-76833171D01*
X153464911Y-76833171D02*
X153369673Y-76880790D01*
X153369673Y-76880790D02*
X153322054Y-76928409D01*
X153322054Y-76928409D02*
X153274435Y-77023647D01*
X151369673Y-108452219D02*
X151369673Y-107452219D01*
X151369673Y-107452219D02*
X151703006Y-108166504D01*
X151703006Y-108166504D02*
X152036339Y-107452219D01*
X152036339Y-107452219D02*
X152036339Y-108452219D01*
X152512530Y-108452219D02*
X152512530Y-107452219D01*
X152941101Y-108404600D02*
X153083958Y-108452219D01*
X153083958Y-108452219D02*
X153322053Y-108452219D01*
X153322053Y-108452219D02*
X153417291Y-108404600D01*
X153417291Y-108404600D02*
X153464910Y-108356980D01*
X153464910Y-108356980D02*
X153512529Y-108261742D01*
X153512529Y-108261742D02*
X153512529Y-108166504D01*
X153512529Y-108166504D02*
X153464910Y-108071266D01*
X153464910Y-108071266D02*
X153417291Y-108023647D01*
X153417291Y-108023647D02*
X153322053Y-107976028D01*
X153322053Y-107976028D02*
X153131577Y-107928409D01*
X153131577Y-107928409D02*
X153036339Y-107880790D01*
X153036339Y-107880790D02*
X152988720Y-107833171D01*
X152988720Y-107833171D02*
X152941101Y-107737933D01*
X152941101Y-107737933D02*
X152941101Y-107642695D01*
X152941101Y-107642695D02*
X152988720Y-107547457D01*
X152988720Y-107547457D02*
X153036339Y-107499838D01*
X153036339Y-107499838D02*
X153131577Y-107452219D01*
X153131577Y-107452219D02*
X153369672Y-107452219D01*
X153369672Y-107452219D02*
X153512529Y-107499838D01*
X154131577Y-107452219D02*
X154322053Y-107452219D01*
X154322053Y-107452219D02*
X154417291Y-107499838D01*
X154417291Y-107499838D02*
X154512529Y-107595076D01*
X154512529Y-107595076D02*
X154560148Y-107785552D01*
X154560148Y-107785552D02*
X154560148Y-108118885D01*
X154560148Y-108118885D02*
X154512529Y-108309361D01*
X154512529Y-108309361D02*
X154417291Y-108404600D01*
X154417291Y-108404600D02*
X154322053Y-108452219D01*
X154322053Y-108452219D02*
X154131577Y-108452219D01*
X154131577Y-108452219D02*
X154036339Y-108404600D01*
X154036339Y-108404600D02*
X153941101Y-108309361D01*
X153941101Y-108309361D02*
X153893482Y-108118885D01*
X153893482Y-108118885D02*
X153893482Y-107785552D01*
X153893482Y-107785552D02*
X153941101Y-107595076D01*
X153941101Y-107595076D02*
X154036339Y-107499838D01*
X154036339Y-107499838D02*
X154131577Y-107452219D01*
X163643019Y-134941101D02*
X163595400Y-134893482D01*
X163595400Y-134893482D02*
X163547780Y-134750625D01*
X163547780Y-134750625D02*
X163547780Y-134655387D01*
X163547780Y-134655387D02*
X163595400Y-134512530D01*
X163595400Y-134512530D02*
X163690638Y-134417292D01*
X163690638Y-134417292D02*
X163785876Y-134369673D01*
X163785876Y-134369673D02*
X163976352Y-134322054D01*
X163976352Y-134322054D02*
X164119209Y-134322054D01*
X164119209Y-134322054D02*
X164309685Y-134369673D01*
X164309685Y-134369673D02*
X164404923Y-134417292D01*
X164404923Y-134417292D02*
X164500161Y-134512530D01*
X164500161Y-134512530D02*
X164547780Y-134655387D01*
X164547780Y-134655387D02*
X164547780Y-134750625D01*
X164547780Y-134750625D02*
X164500161Y-134893482D01*
X164500161Y-134893482D02*
X164452542Y-134941101D01*
X163833495Y-135322054D02*
X163833495Y-135798244D01*
X163547780Y-135226816D02*
X164547780Y-135560149D01*
X164547780Y-135560149D02*
X163547780Y-135893482D01*
X163547780Y-136226816D02*
X164547780Y-136226816D01*
X164547780Y-136226816D02*
X163547780Y-136798244D01*
X163547780Y-136798244D02*
X164547780Y-136798244D01*
X163547780Y-137750625D02*
X163547780Y-137274435D01*
X163547780Y-137274435D02*
X164547780Y-137274435D01*
X151369673Y-114452219D02*
X151369673Y-113452219D01*
X151369673Y-113452219D02*
X151703006Y-114166504D01*
X151703006Y-114166504D02*
X152036339Y-113452219D01*
X152036339Y-113452219D02*
X152036339Y-114452219D01*
X152703006Y-113452219D02*
X152893482Y-113452219D01*
X152893482Y-113452219D02*
X152988720Y-113499838D01*
X152988720Y-113499838D02*
X153083958Y-113595076D01*
X153083958Y-113595076D02*
X153131577Y-113785552D01*
X153131577Y-113785552D02*
X153131577Y-114118885D01*
X153131577Y-114118885D02*
X153083958Y-114309361D01*
X153083958Y-114309361D02*
X152988720Y-114404600D01*
X152988720Y-114404600D02*
X152893482Y-114452219D01*
X152893482Y-114452219D02*
X152703006Y-114452219D01*
X152703006Y-114452219D02*
X152607768Y-114404600D01*
X152607768Y-114404600D02*
X152512530Y-114309361D01*
X152512530Y-114309361D02*
X152464911Y-114118885D01*
X152464911Y-114118885D02*
X152464911Y-113785552D01*
X152464911Y-113785552D02*
X152512530Y-113595076D01*
X152512530Y-113595076D02*
X152607768Y-113499838D01*
X152607768Y-113499838D02*
X152703006Y-113452219D01*
X153512530Y-114404600D02*
X153655387Y-114452219D01*
X153655387Y-114452219D02*
X153893482Y-114452219D01*
X153893482Y-114452219D02*
X153988720Y-114404600D01*
X153988720Y-114404600D02*
X154036339Y-114356980D01*
X154036339Y-114356980D02*
X154083958Y-114261742D01*
X154083958Y-114261742D02*
X154083958Y-114166504D01*
X154083958Y-114166504D02*
X154036339Y-114071266D01*
X154036339Y-114071266D02*
X153988720Y-114023647D01*
X153988720Y-114023647D02*
X153893482Y-113976028D01*
X153893482Y-113976028D02*
X153703006Y-113928409D01*
X153703006Y-113928409D02*
X153607768Y-113880790D01*
X153607768Y-113880790D02*
X153560149Y-113833171D01*
X153560149Y-113833171D02*
X153512530Y-113737933D01*
X153512530Y-113737933D02*
X153512530Y-113642695D01*
X153512530Y-113642695D02*
X153560149Y-113547457D01*
X153560149Y-113547457D02*
X153607768Y-113499838D01*
X153607768Y-113499838D02*
X153703006Y-113452219D01*
X153703006Y-113452219D02*
X153941101Y-113452219D01*
X153941101Y-113452219D02*
X154083958Y-113499838D01*
X154512530Y-114452219D02*
X154512530Y-113452219D01*
X193514471Y-123405726D02*
X193514471Y-123881916D01*
X193514471Y-123881916D02*
X193990661Y-123929535D01*
X193990661Y-123929535D02*
X193943042Y-123881916D01*
X193943042Y-123881916D02*
X193895423Y-123786678D01*
X193895423Y-123786678D02*
X193895423Y-123548583D01*
X193895423Y-123548583D02*
X193943042Y-123453345D01*
X193943042Y-123453345D02*
X193990661Y-123405726D01*
X193990661Y-123405726D02*
X194085899Y-123358107D01*
X194085899Y-123358107D02*
X194323994Y-123358107D01*
X194323994Y-123358107D02*
X194419232Y-123405726D01*
X194419232Y-123405726D02*
X194466852Y-123453345D01*
X194466852Y-123453345D02*
X194514471Y-123548583D01*
X194514471Y-123548583D02*
X194514471Y-123786678D01*
X194514471Y-123786678D02*
X194466852Y-123881916D01*
X194466852Y-123881916D02*
X194419232Y-123929535D01*
X193514471Y-123072392D02*
X194514471Y-122739059D01*
X194514471Y-122739059D02*
X193514471Y-122405726D01*
X162010169Y-134893482D02*
X162057788Y-134798244D01*
X162057788Y-134798244D02*
X162057788Y-134655387D01*
X162057788Y-134655387D02*
X162010169Y-134512530D01*
X162010169Y-134512530D02*
X161914931Y-134417292D01*
X161914931Y-134417292D02*
X161819693Y-134369673D01*
X161819693Y-134369673D02*
X161629217Y-134322054D01*
X161629217Y-134322054D02*
X161486360Y-134322054D01*
X161486360Y-134322054D02*
X161295884Y-134369673D01*
X161295884Y-134369673D02*
X161200646Y-134417292D01*
X161200646Y-134417292D02*
X161105408Y-134512530D01*
X161105408Y-134512530D02*
X161057788Y-134655387D01*
X161057788Y-134655387D02*
X161057788Y-134750625D01*
X161057788Y-134750625D02*
X161105408Y-134893482D01*
X161105408Y-134893482D02*
X161153027Y-134941101D01*
X161153027Y-134941101D02*
X161486360Y-134941101D01*
X161486360Y-134941101D02*
X161486360Y-134750625D01*
X161057788Y-135369673D02*
X162057788Y-135369673D01*
X162057788Y-135369673D02*
X161057788Y-135941101D01*
X161057788Y-135941101D02*
X162057788Y-135941101D01*
X161057788Y-136417292D02*
X162057788Y-136417292D01*
X162057788Y-136417292D02*
X162057788Y-136655387D01*
X162057788Y-136655387D02*
X162010169Y-136798244D01*
X162010169Y-136798244D02*
X161914931Y-136893482D01*
X161914931Y-136893482D02*
X161819693Y-136941101D01*
X161819693Y-136941101D02*
X161629217Y-136988720D01*
X161629217Y-136988720D02*
X161486360Y-136988720D01*
X161486360Y-136988720D02*
X161295884Y-136941101D01*
X161295884Y-136941101D02*
X161200646Y-136893482D01*
X161200646Y-136893482D02*
X161105408Y-136798244D01*
X161105408Y-136798244D02*
X161057788Y-136655387D01*
X161057788Y-136655387D02*
X161057788Y-136417292D01*
D12*
X142454819Y-106836904D02*
X143264342Y-106836904D01*
X143264342Y-106836904D02*
X143359580Y-106789285D01*
X143359580Y-106789285D02*
X143407200Y-106741666D01*
X143407200Y-106741666D02*
X143454819Y-106646428D01*
X143454819Y-106646428D02*
X143454819Y-106455952D01*
X143454819Y-106455952D02*
X143407200Y-106360714D01*
X143407200Y-106360714D02*
X143359580Y-106313095D01*
X143359580Y-106313095D02*
X143264342Y-106265476D01*
X143264342Y-106265476D02*
X142454819Y-106265476D01*
X142454819Y-105884523D02*
X142454819Y-105265476D01*
X142454819Y-105265476D02*
X142835771Y-105598809D01*
X142835771Y-105598809D02*
X142835771Y-105455952D01*
X142835771Y-105455952D02*
X142883390Y-105360714D01*
X142883390Y-105360714D02*
X142931009Y-105313095D01*
X142931009Y-105313095D02*
X143026247Y-105265476D01*
X143026247Y-105265476D02*
X143264342Y-105265476D01*
X143264342Y-105265476D02*
X143359580Y-105313095D01*
X143359580Y-105313095D02*
X143407200Y-105360714D01*
X143407200Y-105360714D02*
X143454819Y-105455952D01*
X143454819Y-105455952D02*
X143454819Y-105741666D01*
X143454819Y-105741666D02*
X143407200Y-105836904D01*
X143407200Y-105836904D02*
X143359580Y-105884523D01*
X184024819Y-124341666D02*
X183548628Y-124674999D01*
X184024819Y-124913094D02*
X183024819Y-124913094D01*
X183024819Y-124913094D02*
X183024819Y-124532142D01*
X183024819Y-124532142D02*
X183072438Y-124436904D01*
X183072438Y-124436904D02*
X183120057Y-124389285D01*
X183120057Y-124389285D02*
X183215295Y-124341666D01*
X183215295Y-124341666D02*
X183358152Y-124341666D01*
X183358152Y-124341666D02*
X183453390Y-124389285D01*
X183453390Y-124389285D02*
X183501009Y-124436904D01*
X183501009Y-124436904D02*
X183548628Y-124532142D01*
X183548628Y-124532142D02*
X183548628Y-124913094D01*
X184024819Y-123865475D02*
X184024819Y-123674999D01*
X184024819Y-123674999D02*
X183977200Y-123579761D01*
X183977200Y-123579761D02*
X183929580Y-123532142D01*
X183929580Y-123532142D02*
X183786723Y-123436904D01*
X183786723Y-123436904D02*
X183596247Y-123389285D01*
X183596247Y-123389285D02*
X183215295Y-123389285D01*
X183215295Y-123389285D02*
X183120057Y-123436904D01*
X183120057Y-123436904D02*
X183072438Y-123484523D01*
X183072438Y-123484523D02*
X183024819Y-123579761D01*
X183024819Y-123579761D02*
X183024819Y-123770237D01*
X183024819Y-123770237D02*
X183072438Y-123865475D01*
X183072438Y-123865475D02*
X183120057Y-123913094D01*
X183120057Y-123913094D02*
X183215295Y-123960713D01*
X183215295Y-123960713D02*
X183453390Y-123960713D01*
X183453390Y-123960713D02*
X183548628Y-123913094D01*
X183548628Y-123913094D02*
X183596247Y-123865475D01*
X183596247Y-123865475D02*
X183643866Y-123770237D01*
X183643866Y-123770237D02*
X183643866Y-123579761D01*
X183643866Y-123579761D02*
X183596247Y-123484523D01*
X183596247Y-123484523D02*
X183548628Y-123436904D01*
X183548628Y-123436904D02*
X183453390Y-123389285D01*
X167954819Y-101166666D02*
X167478628Y-101499999D01*
X167954819Y-101738094D02*
X166954819Y-101738094D01*
X166954819Y-101738094D02*
X166954819Y-101357142D01*
X166954819Y-101357142D02*
X167002438Y-101261904D01*
X167002438Y-101261904D02*
X167050057Y-101214285D01*
X167050057Y-101214285D02*
X167145295Y-101166666D01*
X167145295Y-101166666D02*
X167288152Y-101166666D01*
X167288152Y-101166666D02*
X167383390Y-101214285D01*
X167383390Y-101214285D02*
X167431009Y-101261904D01*
X167431009Y-101261904D02*
X167478628Y-101357142D01*
X167478628Y-101357142D02*
X167478628Y-101738094D01*
X166954819Y-100833332D02*
X166954819Y-100214285D01*
X166954819Y-100214285D02*
X167335771Y-100547618D01*
X167335771Y-100547618D02*
X167335771Y-100404761D01*
X167335771Y-100404761D02*
X167383390Y-100309523D01*
X167383390Y-100309523D02*
X167431009Y-100261904D01*
X167431009Y-100261904D02*
X167526247Y-100214285D01*
X167526247Y-100214285D02*
X167764342Y-100214285D01*
X167764342Y-100214285D02*
X167859580Y-100261904D01*
X167859580Y-100261904D02*
X167907200Y-100309523D01*
X167907200Y-100309523D02*
X167954819Y-100404761D01*
X167954819Y-100404761D02*
X167954819Y-100690475D01*
X167954819Y-100690475D02*
X167907200Y-100785713D01*
X167907200Y-100785713D02*
X167859580Y-100833332D01*
X157024819Y-113738094D02*
X156024819Y-113738094D01*
X156024819Y-113738094D02*
X156024819Y-113499999D01*
X156024819Y-113499999D02*
X156072438Y-113357142D01*
X156072438Y-113357142D02*
X156167676Y-113261904D01*
X156167676Y-113261904D02*
X156262914Y-113214285D01*
X156262914Y-113214285D02*
X156453390Y-113166666D01*
X156453390Y-113166666D02*
X156596247Y-113166666D01*
X156596247Y-113166666D02*
X156786723Y-113214285D01*
X156786723Y-113214285D02*
X156881961Y-113261904D01*
X156881961Y-113261904D02*
X156977200Y-113357142D01*
X156977200Y-113357142D02*
X157024819Y-113499999D01*
X157024819Y-113499999D02*
X157024819Y-113738094D01*
X156120057Y-112785713D02*
X156072438Y-112738094D01*
X156072438Y-112738094D02*
X156024819Y-112642856D01*
X156024819Y-112642856D02*
X156024819Y-112404761D01*
X156024819Y-112404761D02*
X156072438Y-112309523D01*
X156072438Y-112309523D02*
X156120057Y-112261904D01*
X156120057Y-112261904D02*
X156215295Y-112214285D01*
X156215295Y-112214285D02*
X156310533Y-112214285D01*
X156310533Y-112214285D02*
X156453390Y-112261904D01*
X156453390Y-112261904D02*
X157024819Y-112833332D01*
X157024819Y-112833332D02*
X157024819Y-112214285D01*
X184833333Y-93359580D02*
X184785714Y-93407200D01*
X184785714Y-93407200D02*
X184642857Y-93454819D01*
X184642857Y-93454819D02*
X184547619Y-93454819D01*
X184547619Y-93454819D02*
X184404762Y-93407200D01*
X184404762Y-93407200D02*
X184309524Y-93311961D01*
X184309524Y-93311961D02*
X184261905Y-93216723D01*
X184261905Y-93216723D02*
X184214286Y-93026247D01*
X184214286Y-93026247D02*
X184214286Y-92883390D01*
X184214286Y-92883390D02*
X184261905Y-92692914D01*
X184261905Y-92692914D02*
X184309524Y-92597676D01*
X184309524Y-92597676D02*
X184404762Y-92502438D01*
X184404762Y-92502438D02*
X184547619Y-92454819D01*
X184547619Y-92454819D02*
X184642857Y-92454819D01*
X184642857Y-92454819D02*
X184785714Y-92502438D01*
X184785714Y-92502438D02*
X184833333Y-92550057D01*
X185690476Y-92788152D02*
X185690476Y-93454819D01*
X185452381Y-92407200D02*
X185214286Y-93121485D01*
X185214286Y-93121485D02*
X185833333Y-93121485D01*
X141454819Y-87166666D02*
X140978628Y-87499999D01*
X141454819Y-87738094D02*
X140454819Y-87738094D01*
X140454819Y-87738094D02*
X140454819Y-87357142D01*
X140454819Y-87357142D02*
X140502438Y-87261904D01*
X140502438Y-87261904D02*
X140550057Y-87214285D01*
X140550057Y-87214285D02*
X140645295Y-87166666D01*
X140645295Y-87166666D02*
X140788152Y-87166666D01*
X140788152Y-87166666D02*
X140883390Y-87214285D01*
X140883390Y-87214285D02*
X140931009Y-87261904D01*
X140931009Y-87261904D02*
X140978628Y-87357142D01*
X140978628Y-87357142D02*
X140978628Y-87738094D01*
X140454819Y-86261904D02*
X140454819Y-86738094D01*
X140454819Y-86738094D02*
X140931009Y-86785713D01*
X140931009Y-86785713D02*
X140883390Y-86738094D01*
X140883390Y-86738094D02*
X140835771Y-86642856D01*
X140835771Y-86642856D02*
X140835771Y-86404761D01*
X140835771Y-86404761D02*
X140883390Y-86309523D01*
X140883390Y-86309523D02*
X140931009Y-86261904D01*
X140931009Y-86261904D02*
X141026247Y-86214285D01*
X141026247Y-86214285D02*
X141264342Y-86214285D01*
X141264342Y-86214285D02*
X141359580Y-86261904D01*
X141359580Y-86261904D02*
X141407200Y-86309523D01*
X141407200Y-86309523D02*
X141454819Y-86404761D01*
X141454819Y-86404761D02*
X141454819Y-86642856D01*
X141454819Y-86642856D02*
X141407200Y-86738094D01*
X141407200Y-86738094D02*
X141359580Y-86785713D01*
X163024819Y-113738094D02*
X162024819Y-113738094D01*
X162024819Y-113738094D02*
X162024819Y-113499999D01*
X162024819Y-113499999D02*
X162072438Y-113357142D01*
X162072438Y-113357142D02*
X162167676Y-113261904D01*
X162167676Y-113261904D02*
X162262914Y-113214285D01*
X162262914Y-113214285D02*
X162453390Y-113166666D01*
X162453390Y-113166666D02*
X162596247Y-113166666D01*
X162596247Y-113166666D02*
X162786723Y-113214285D01*
X162786723Y-113214285D02*
X162881961Y-113261904D01*
X162881961Y-113261904D02*
X162977200Y-113357142D01*
X162977200Y-113357142D02*
X163024819Y-113499999D01*
X163024819Y-113499999D02*
X163024819Y-113738094D01*
X162358152Y-112309523D02*
X163024819Y-112309523D01*
X161977200Y-112547618D02*
X162691485Y-112785713D01*
X162691485Y-112785713D02*
X162691485Y-112166666D01*
X179038095Y-121004819D02*
X179038095Y-121814342D01*
X179038095Y-121814342D02*
X179085714Y-121909580D01*
X179085714Y-121909580D02*
X179133333Y-121957200D01*
X179133333Y-121957200D02*
X179228571Y-122004819D01*
X179228571Y-122004819D02*
X179419047Y-122004819D01*
X179419047Y-122004819D02*
X179514285Y-121957200D01*
X179514285Y-121957200D02*
X179561904Y-121909580D01*
X179561904Y-121909580D02*
X179609523Y-121814342D01*
X179609523Y-121814342D02*
X179609523Y-121004819D01*
X180133333Y-122004819D02*
X180323809Y-122004819D01*
X180323809Y-122004819D02*
X180419047Y-121957200D01*
X180419047Y-121957200D02*
X180466666Y-121909580D01*
X180466666Y-121909580D02*
X180561904Y-121766723D01*
X180561904Y-121766723D02*
X180609523Y-121576247D01*
X180609523Y-121576247D02*
X180609523Y-121195295D01*
X180609523Y-121195295D02*
X180561904Y-121100057D01*
X180561904Y-121100057D02*
X180514285Y-121052438D01*
X180514285Y-121052438D02*
X180419047Y-121004819D01*
X180419047Y-121004819D02*
X180228571Y-121004819D01*
X180228571Y-121004819D02*
X180133333Y-121052438D01*
X180133333Y-121052438D02*
X180085714Y-121100057D01*
X180085714Y-121100057D02*
X180038095Y-121195295D01*
X180038095Y-121195295D02*
X180038095Y-121433390D01*
X180038095Y-121433390D02*
X180085714Y-121528628D01*
X180085714Y-121528628D02*
X180133333Y-121576247D01*
X180133333Y-121576247D02*
X180228571Y-121623866D01*
X180228571Y-121623866D02*
X180419047Y-121623866D01*
X180419047Y-121623866D02*
X180514285Y-121576247D01*
X180514285Y-121576247D02*
X180561904Y-121528628D01*
X180561904Y-121528628D02*
X180609523Y-121433390D01*
X143454819Y-92738094D02*
X142454819Y-92738094D01*
X142454819Y-92738094D02*
X142454819Y-92499999D01*
X142454819Y-92499999D02*
X142502438Y-92357142D01*
X142502438Y-92357142D02*
X142597676Y-92261904D01*
X142597676Y-92261904D02*
X142692914Y-92214285D01*
X142692914Y-92214285D02*
X142883390Y-92166666D01*
X142883390Y-92166666D02*
X143026247Y-92166666D01*
X143026247Y-92166666D02*
X143216723Y-92214285D01*
X143216723Y-92214285D02*
X143311961Y-92261904D01*
X143311961Y-92261904D02*
X143407200Y-92357142D01*
X143407200Y-92357142D02*
X143454819Y-92499999D01*
X143454819Y-92499999D02*
X143454819Y-92738094D01*
X142454819Y-91833332D02*
X142454819Y-91166666D01*
X142454819Y-91166666D02*
X143454819Y-91595237D01*
X157024819Y-109166666D02*
X156548628Y-109499999D01*
X157024819Y-109738094D02*
X156024819Y-109738094D01*
X156024819Y-109738094D02*
X156024819Y-109357142D01*
X156024819Y-109357142D02*
X156072438Y-109261904D01*
X156072438Y-109261904D02*
X156120057Y-109214285D01*
X156120057Y-109214285D02*
X156215295Y-109166666D01*
X156215295Y-109166666D02*
X156358152Y-109166666D01*
X156358152Y-109166666D02*
X156453390Y-109214285D01*
X156453390Y-109214285D02*
X156501009Y-109261904D01*
X156501009Y-109261904D02*
X156548628Y-109357142D01*
X156548628Y-109357142D02*
X156548628Y-109738094D01*
X156024819Y-108309523D02*
X156024819Y-108499999D01*
X156024819Y-108499999D02*
X156072438Y-108595237D01*
X156072438Y-108595237D02*
X156120057Y-108642856D01*
X156120057Y-108642856D02*
X156262914Y-108738094D01*
X156262914Y-108738094D02*
X156453390Y-108785713D01*
X156453390Y-108785713D02*
X156834342Y-108785713D01*
X156834342Y-108785713D02*
X156929580Y-108738094D01*
X156929580Y-108738094D02*
X156977200Y-108690475D01*
X156977200Y-108690475D02*
X157024819Y-108595237D01*
X157024819Y-108595237D02*
X157024819Y-108404761D01*
X157024819Y-108404761D02*
X156977200Y-108309523D01*
X156977200Y-108309523D02*
X156929580Y-108261904D01*
X156929580Y-108261904D02*
X156834342Y-108214285D01*
X156834342Y-108214285D02*
X156596247Y-108214285D01*
X156596247Y-108214285D02*
X156501009Y-108261904D01*
X156501009Y-108261904D02*
X156453390Y-108309523D01*
X156453390Y-108309523D02*
X156405771Y-108404761D01*
X156405771Y-108404761D02*
X156405771Y-108595237D01*
X156405771Y-108595237D02*
X156453390Y-108690475D01*
X156453390Y-108690475D02*
X156501009Y-108738094D01*
X156501009Y-108738094D02*
X156596247Y-108785713D01*
X137168922Y-93333333D02*
X137168922Y-93666666D01*
X137692732Y-93666666D02*
X136692732Y-93666666D01*
X136692732Y-93666666D02*
X136692732Y-93190476D01*
X137692732Y-92285714D02*
X137692732Y-92857142D01*
X137692732Y-92571428D02*
X136692732Y-92571428D01*
X136692732Y-92571428D02*
X136835589Y-92666666D01*
X136835589Y-92666666D02*
X136930827Y-92761904D01*
X136930827Y-92761904D02*
X136978446Y-92857142D01*
X194238095Y-131254819D02*
X194238095Y-130254819D01*
X194238095Y-130731009D02*
X194809523Y-130731009D01*
X194809523Y-131254819D02*
X194809523Y-130254819D01*
X195238095Y-130350057D02*
X195285714Y-130302438D01*
X195285714Y-130302438D02*
X195380952Y-130254819D01*
X195380952Y-130254819D02*
X195619047Y-130254819D01*
X195619047Y-130254819D02*
X195714285Y-130302438D01*
X195714285Y-130302438D02*
X195761904Y-130350057D01*
X195761904Y-130350057D02*
X195809523Y-130445295D01*
X195809523Y-130445295D02*
X195809523Y-130540533D01*
X195809523Y-130540533D02*
X195761904Y-130683390D01*
X195761904Y-130683390D02*
X195190476Y-131254819D01*
X195190476Y-131254819D02*
X195809523Y-131254819D01*
X179324819Y-110333333D02*
X180039104Y-110333333D01*
X180039104Y-110333333D02*
X180181961Y-110380952D01*
X180181961Y-110380952D02*
X180277200Y-110476190D01*
X180277200Y-110476190D02*
X180324819Y-110619047D01*
X180324819Y-110619047D02*
X180324819Y-110714285D01*
X179420057Y-109904761D02*
X179372438Y-109857142D01*
X179372438Y-109857142D02*
X179324819Y-109761904D01*
X179324819Y-109761904D02*
X179324819Y-109523809D01*
X179324819Y-109523809D02*
X179372438Y-109428571D01*
X179372438Y-109428571D02*
X179420057Y-109380952D01*
X179420057Y-109380952D02*
X179515295Y-109333333D01*
X179515295Y-109333333D02*
X179610533Y-109333333D01*
X179610533Y-109333333D02*
X179753390Y-109380952D01*
X179753390Y-109380952D02*
X180324819Y-109952380D01*
X180324819Y-109952380D02*
X180324819Y-109333333D01*
X148532142Y-137454819D02*
X148198809Y-136978628D01*
X147960714Y-137454819D02*
X147960714Y-136454819D01*
X147960714Y-136454819D02*
X148341666Y-136454819D01*
X148341666Y-136454819D02*
X148436904Y-136502438D01*
X148436904Y-136502438D02*
X148484523Y-136550057D01*
X148484523Y-136550057D02*
X148532142Y-136645295D01*
X148532142Y-136645295D02*
X148532142Y-136788152D01*
X148532142Y-136788152D02*
X148484523Y-136883390D01*
X148484523Y-136883390D02*
X148436904Y-136931009D01*
X148436904Y-136931009D02*
X148341666Y-136978628D01*
X148341666Y-136978628D02*
X147960714Y-136978628D01*
X149484523Y-137454819D02*
X148913095Y-137454819D01*
X149198809Y-137454819D02*
X149198809Y-136454819D01*
X149198809Y-136454819D02*
X149103571Y-136597676D01*
X149103571Y-136597676D02*
X149008333Y-136692914D01*
X149008333Y-136692914D02*
X148913095Y-136740533D01*
X150103571Y-136454819D02*
X150198809Y-136454819D01*
X150198809Y-136454819D02*
X150294047Y-136502438D01*
X150294047Y-136502438D02*
X150341666Y-136550057D01*
X150341666Y-136550057D02*
X150389285Y-136645295D01*
X150389285Y-136645295D02*
X150436904Y-136835771D01*
X150436904Y-136835771D02*
X150436904Y-137073866D01*
X150436904Y-137073866D02*
X150389285Y-137264342D01*
X150389285Y-137264342D02*
X150341666Y-137359580D01*
X150341666Y-137359580D02*
X150294047Y-137407200D01*
X150294047Y-137407200D02*
X150198809Y-137454819D01*
X150198809Y-137454819D02*
X150103571Y-137454819D01*
X150103571Y-137454819D02*
X150008333Y-137407200D01*
X150008333Y-137407200D02*
X149960714Y-137359580D01*
X149960714Y-137359580D02*
X149913095Y-137264342D01*
X149913095Y-137264342D02*
X149865476Y-137073866D01*
X149865476Y-137073866D02*
X149865476Y-136835771D01*
X149865476Y-136835771D02*
X149913095Y-136645295D01*
X149913095Y-136645295D02*
X149960714Y-136550057D01*
X149960714Y-136550057D02*
X150008333Y-136502438D01*
X150008333Y-136502438D02*
X150103571Y-136454819D01*
X188238095Y-92579819D02*
X188238095Y-93389342D01*
X188238095Y-93389342D02*
X188285714Y-93484580D01*
X188285714Y-93484580D02*
X188333333Y-93532200D01*
X188333333Y-93532200D02*
X188428571Y-93579819D01*
X188428571Y-93579819D02*
X188619047Y-93579819D01*
X188619047Y-93579819D02*
X188714285Y-93532200D01*
X188714285Y-93532200D02*
X188761904Y-93484580D01*
X188761904Y-93484580D02*
X188809523Y-93389342D01*
X188809523Y-93389342D02*
X188809523Y-92579819D01*
X189714285Y-92579819D02*
X189523809Y-92579819D01*
X189523809Y-92579819D02*
X189428571Y-92627438D01*
X189428571Y-92627438D02*
X189380952Y-92675057D01*
X189380952Y-92675057D02*
X189285714Y-92817914D01*
X189285714Y-92817914D02*
X189238095Y-93008390D01*
X189238095Y-93008390D02*
X189238095Y-93389342D01*
X189238095Y-93389342D02*
X189285714Y-93484580D01*
X189285714Y-93484580D02*
X189333333Y-93532200D01*
X189333333Y-93532200D02*
X189428571Y-93579819D01*
X189428571Y-93579819D02*
X189619047Y-93579819D01*
X189619047Y-93579819D02*
X189714285Y-93532200D01*
X189714285Y-93532200D02*
X189761904Y-93484580D01*
X189761904Y-93484580D02*
X189809523Y-93389342D01*
X189809523Y-93389342D02*
X189809523Y-93151247D01*
X189809523Y-93151247D02*
X189761904Y-93056009D01*
X189761904Y-93056009D02*
X189714285Y-93008390D01*
X189714285Y-93008390D02*
X189619047Y-92960771D01*
X189619047Y-92960771D02*
X189428571Y-92960771D01*
X189428571Y-92960771D02*
X189333333Y-93008390D01*
X189333333Y-93008390D02*
X189285714Y-93056009D01*
X189285714Y-93056009D02*
X189238095Y-93151247D01*
X137982142Y-102359580D02*
X137934523Y-102407200D01*
X137934523Y-102407200D02*
X137791666Y-102454819D01*
X137791666Y-102454819D02*
X137696428Y-102454819D01*
X137696428Y-102454819D02*
X137553571Y-102407200D01*
X137553571Y-102407200D02*
X137458333Y-102311961D01*
X137458333Y-102311961D02*
X137410714Y-102216723D01*
X137410714Y-102216723D02*
X137363095Y-102026247D01*
X137363095Y-102026247D02*
X137363095Y-101883390D01*
X137363095Y-101883390D02*
X137410714Y-101692914D01*
X137410714Y-101692914D02*
X137458333Y-101597676D01*
X137458333Y-101597676D02*
X137553571Y-101502438D01*
X137553571Y-101502438D02*
X137696428Y-101454819D01*
X137696428Y-101454819D02*
X137791666Y-101454819D01*
X137791666Y-101454819D02*
X137934523Y-101502438D01*
X137934523Y-101502438D02*
X137982142Y-101550057D01*
X138934523Y-102454819D02*
X138363095Y-102454819D01*
X138648809Y-102454819D02*
X138648809Y-101454819D01*
X138648809Y-101454819D02*
X138553571Y-101597676D01*
X138553571Y-101597676D02*
X138458333Y-101692914D01*
X138458333Y-101692914D02*
X138363095Y-101740533D01*
X139553571Y-101454819D02*
X139648809Y-101454819D01*
X139648809Y-101454819D02*
X139744047Y-101502438D01*
X139744047Y-101502438D02*
X139791666Y-101550057D01*
X139791666Y-101550057D02*
X139839285Y-101645295D01*
X139839285Y-101645295D02*
X139886904Y-101835771D01*
X139886904Y-101835771D02*
X139886904Y-102073866D01*
X139886904Y-102073866D02*
X139839285Y-102264342D01*
X139839285Y-102264342D02*
X139791666Y-102359580D01*
X139791666Y-102359580D02*
X139744047Y-102407200D01*
X139744047Y-102407200D02*
X139648809Y-102454819D01*
X139648809Y-102454819D02*
X139553571Y-102454819D01*
X139553571Y-102454819D02*
X139458333Y-102407200D01*
X139458333Y-102407200D02*
X139410714Y-102359580D01*
X139410714Y-102359580D02*
X139363095Y-102264342D01*
X139363095Y-102264342D02*
X139315476Y-102073866D01*
X139315476Y-102073866D02*
X139315476Y-101835771D01*
X139315476Y-101835771D02*
X139363095Y-101645295D01*
X139363095Y-101645295D02*
X139410714Y-101550057D01*
X139410714Y-101550057D02*
X139458333Y-101502438D01*
X139458333Y-101502438D02*
X139553571Y-101454819D01*
X142667319Y-137738094D02*
X141667319Y-137738094D01*
X141667319Y-137738094D02*
X141667319Y-137499999D01*
X141667319Y-137499999D02*
X141714938Y-137357142D01*
X141714938Y-137357142D02*
X141810176Y-137261904D01*
X141810176Y-137261904D02*
X141905414Y-137214285D01*
X141905414Y-137214285D02*
X142095890Y-137166666D01*
X142095890Y-137166666D02*
X142238747Y-137166666D01*
X142238747Y-137166666D02*
X142429223Y-137214285D01*
X142429223Y-137214285D02*
X142524461Y-137261904D01*
X142524461Y-137261904D02*
X142619700Y-137357142D01*
X142619700Y-137357142D02*
X142667319Y-137499999D01*
X142667319Y-137499999D02*
X142667319Y-137738094D01*
X141667319Y-136309523D02*
X141667319Y-136499999D01*
X141667319Y-136499999D02*
X141714938Y-136595237D01*
X141714938Y-136595237D02*
X141762557Y-136642856D01*
X141762557Y-136642856D02*
X141905414Y-136738094D01*
X141905414Y-136738094D02*
X142095890Y-136785713D01*
X142095890Y-136785713D02*
X142476842Y-136785713D01*
X142476842Y-136785713D02*
X142572080Y-136738094D01*
X142572080Y-136738094D02*
X142619700Y-136690475D01*
X142619700Y-136690475D02*
X142667319Y-136595237D01*
X142667319Y-136595237D02*
X142667319Y-136404761D01*
X142667319Y-136404761D02*
X142619700Y-136309523D01*
X142619700Y-136309523D02*
X142572080Y-136261904D01*
X142572080Y-136261904D02*
X142476842Y-136214285D01*
X142476842Y-136214285D02*
X142238747Y-136214285D01*
X142238747Y-136214285D02*
X142143509Y-136261904D01*
X142143509Y-136261904D02*
X142095890Y-136309523D01*
X142095890Y-136309523D02*
X142048271Y-136404761D01*
X142048271Y-136404761D02*
X142048271Y-136595237D01*
X142048271Y-136595237D02*
X142095890Y-136690475D01*
X142095890Y-136690475D02*
X142143509Y-136738094D01*
X142143509Y-136738094D02*
X142238747Y-136785713D01*
X146145493Y-86204819D02*
X146145493Y-85204819D01*
X147193111Y-86109580D02*
X147145492Y-86157200D01*
X147145492Y-86157200D02*
X147002635Y-86204819D01*
X147002635Y-86204819D02*
X146907397Y-86204819D01*
X146907397Y-86204819D02*
X146764540Y-86157200D01*
X146764540Y-86157200D02*
X146669302Y-86061961D01*
X146669302Y-86061961D02*
X146621683Y-85966723D01*
X146621683Y-85966723D02*
X146574064Y-85776247D01*
X146574064Y-85776247D02*
X146574064Y-85633390D01*
X146574064Y-85633390D02*
X146621683Y-85442914D01*
X146621683Y-85442914D02*
X146669302Y-85347676D01*
X146669302Y-85347676D02*
X146764540Y-85252438D01*
X146764540Y-85252438D02*
X146907397Y-85204819D01*
X146907397Y-85204819D02*
X147002635Y-85204819D01*
X147002635Y-85204819D02*
X147145492Y-85252438D01*
X147145492Y-85252438D02*
X147193111Y-85300057D01*
X148145492Y-86204819D02*
X147574064Y-86204819D01*
X147859778Y-86204819D02*
X147859778Y-85204819D01*
X147859778Y-85204819D02*
X147764540Y-85347676D01*
X147764540Y-85347676D02*
X147669302Y-85442914D01*
X147669302Y-85442914D02*
X147574064Y-85490533D01*
X171789580Y-88166666D02*
X171837200Y-88214285D01*
X171837200Y-88214285D02*
X171884819Y-88357142D01*
X171884819Y-88357142D02*
X171884819Y-88452380D01*
X171884819Y-88452380D02*
X171837200Y-88595237D01*
X171837200Y-88595237D02*
X171741961Y-88690475D01*
X171741961Y-88690475D02*
X171646723Y-88738094D01*
X171646723Y-88738094D02*
X171456247Y-88785713D01*
X171456247Y-88785713D02*
X171313390Y-88785713D01*
X171313390Y-88785713D02*
X171122914Y-88738094D01*
X171122914Y-88738094D02*
X171027676Y-88690475D01*
X171027676Y-88690475D02*
X170932438Y-88595237D01*
X170932438Y-88595237D02*
X170884819Y-88452380D01*
X170884819Y-88452380D02*
X170884819Y-88357142D01*
X170884819Y-88357142D02*
X170932438Y-88214285D01*
X170932438Y-88214285D02*
X170980057Y-88166666D01*
X170884819Y-87833332D02*
X170884819Y-87214285D01*
X170884819Y-87214285D02*
X171265771Y-87547618D01*
X171265771Y-87547618D02*
X171265771Y-87404761D01*
X171265771Y-87404761D02*
X171313390Y-87309523D01*
X171313390Y-87309523D02*
X171361009Y-87261904D01*
X171361009Y-87261904D02*
X171456247Y-87214285D01*
X171456247Y-87214285D02*
X171694342Y-87214285D01*
X171694342Y-87214285D02*
X171789580Y-87261904D01*
X171789580Y-87261904D02*
X171837200Y-87309523D01*
X171837200Y-87309523D02*
X171884819Y-87404761D01*
X171884819Y-87404761D02*
X171884819Y-87690475D01*
X171884819Y-87690475D02*
X171837200Y-87785713D01*
X171837200Y-87785713D02*
X171789580Y-87833332D01*
X136238095Y-131254819D02*
X136238095Y-130254819D01*
X136238095Y-130731009D02*
X136809523Y-130731009D01*
X136809523Y-131254819D02*
X136809523Y-130254819D01*
X137809523Y-131254819D02*
X137238095Y-131254819D01*
X137523809Y-131254819D02*
X137523809Y-130254819D01*
X137523809Y-130254819D02*
X137428571Y-130397676D01*
X137428571Y-130397676D02*
X137333333Y-130492914D01*
X137333333Y-130492914D02*
X137238095Y-130540533D01*
X178853689Y-114178714D02*
X177853689Y-114178714D01*
X177853689Y-114178714D02*
X177853689Y-113940619D01*
X177853689Y-113940619D02*
X177901308Y-113797762D01*
X177901308Y-113797762D02*
X177996546Y-113702524D01*
X177996546Y-113702524D02*
X178091784Y-113654905D01*
X178091784Y-113654905D02*
X178282260Y-113607286D01*
X178282260Y-113607286D02*
X178425117Y-113607286D01*
X178425117Y-113607286D02*
X178615593Y-113654905D01*
X178615593Y-113654905D02*
X178710831Y-113702524D01*
X178710831Y-113702524D02*
X178806070Y-113797762D01*
X178806070Y-113797762D02*
X178853689Y-113940619D01*
X178853689Y-113940619D02*
X178853689Y-114178714D01*
X177853689Y-112702524D02*
X177853689Y-113178714D01*
X177853689Y-113178714D02*
X178329879Y-113226333D01*
X178329879Y-113226333D02*
X178282260Y-113178714D01*
X178282260Y-113178714D02*
X178234641Y-113083476D01*
X178234641Y-113083476D02*
X178234641Y-112845381D01*
X178234641Y-112845381D02*
X178282260Y-112750143D01*
X178282260Y-112750143D02*
X178329879Y-112702524D01*
X178329879Y-112702524D02*
X178425117Y-112654905D01*
X178425117Y-112654905D02*
X178663212Y-112654905D01*
X178663212Y-112654905D02*
X178758450Y-112702524D01*
X178758450Y-112702524D02*
X178806070Y-112750143D01*
X178806070Y-112750143D02*
X178853689Y-112845381D01*
X178853689Y-112845381D02*
X178853689Y-113083476D01*
X178853689Y-113083476D02*
X178806070Y-113178714D01*
X178806070Y-113178714D02*
X178758450Y-113226333D01*
X185608333Y-86359580D02*
X185560714Y-86407200D01*
X185560714Y-86407200D02*
X185417857Y-86454819D01*
X185417857Y-86454819D02*
X185322619Y-86454819D01*
X185322619Y-86454819D02*
X185179762Y-86407200D01*
X185179762Y-86407200D02*
X185084524Y-86311961D01*
X185084524Y-86311961D02*
X185036905Y-86216723D01*
X185036905Y-86216723D02*
X184989286Y-86026247D01*
X184989286Y-86026247D02*
X184989286Y-85883390D01*
X184989286Y-85883390D02*
X185036905Y-85692914D01*
X185036905Y-85692914D02*
X185084524Y-85597676D01*
X185084524Y-85597676D02*
X185179762Y-85502438D01*
X185179762Y-85502438D02*
X185322619Y-85454819D01*
X185322619Y-85454819D02*
X185417857Y-85454819D01*
X185417857Y-85454819D02*
X185560714Y-85502438D01*
X185560714Y-85502438D02*
X185608333Y-85550057D01*
X186465476Y-85454819D02*
X186275000Y-85454819D01*
X186275000Y-85454819D02*
X186179762Y-85502438D01*
X186179762Y-85502438D02*
X186132143Y-85550057D01*
X186132143Y-85550057D02*
X186036905Y-85692914D01*
X186036905Y-85692914D02*
X185989286Y-85883390D01*
X185989286Y-85883390D02*
X185989286Y-86264342D01*
X185989286Y-86264342D02*
X186036905Y-86359580D01*
X186036905Y-86359580D02*
X186084524Y-86407200D01*
X186084524Y-86407200D02*
X186179762Y-86454819D01*
X186179762Y-86454819D02*
X186370238Y-86454819D01*
X186370238Y-86454819D02*
X186465476Y-86407200D01*
X186465476Y-86407200D02*
X186513095Y-86359580D01*
X186513095Y-86359580D02*
X186560714Y-86264342D01*
X186560714Y-86264342D02*
X186560714Y-86026247D01*
X186560714Y-86026247D02*
X186513095Y-85931009D01*
X186513095Y-85931009D02*
X186465476Y-85883390D01*
X186465476Y-85883390D02*
X186370238Y-85835771D01*
X186370238Y-85835771D02*
X186179762Y-85835771D01*
X186179762Y-85835771D02*
X186084524Y-85883390D01*
X186084524Y-85883390D02*
X186036905Y-85931009D01*
X186036905Y-85931009D02*
X185989286Y-86026247D01*
X144359580Y-137642857D02*
X144407200Y-137690476D01*
X144407200Y-137690476D02*
X144454819Y-137833333D01*
X144454819Y-137833333D02*
X144454819Y-137928571D01*
X144454819Y-137928571D02*
X144407200Y-138071428D01*
X144407200Y-138071428D02*
X144311961Y-138166666D01*
X144311961Y-138166666D02*
X144216723Y-138214285D01*
X144216723Y-138214285D02*
X144026247Y-138261904D01*
X144026247Y-138261904D02*
X143883390Y-138261904D01*
X143883390Y-138261904D02*
X143692914Y-138214285D01*
X143692914Y-138214285D02*
X143597676Y-138166666D01*
X143597676Y-138166666D02*
X143502438Y-138071428D01*
X143502438Y-138071428D02*
X143454819Y-137928571D01*
X143454819Y-137928571D02*
X143454819Y-137833333D01*
X143454819Y-137833333D02*
X143502438Y-137690476D01*
X143502438Y-137690476D02*
X143550057Y-137642857D01*
X143550057Y-137261904D02*
X143502438Y-137214285D01*
X143502438Y-137214285D02*
X143454819Y-137119047D01*
X143454819Y-137119047D02*
X143454819Y-136880952D01*
X143454819Y-136880952D02*
X143502438Y-136785714D01*
X143502438Y-136785714D02*
X143550057Y-136738095D01*
X143550057Y-136738095D02*
X143645295Y-136690476D01*
X143645295Y-136690476D02*
X143740533Y-136690476D01*
X143740533Y-136690476D02*
X143883390Y-136738095D01*
X143883390Y-136738095D02*
X144454819Y-137309523D01*
X144454819Y-137309523D02*
X144454819Y-136690476D01*
X143550057Y-136309523D02*
X143502438Y-136261904D01*
X143502438Y-136261904D02*
X143454819Y-136166666D01*
X143454819Y-136166666D02*
X143454819Y-135928571D01*
X143454819Y-135928571D02*
X143502438Y-135833333D01*
X143502438Y-135833333D02*
X143550057Y-135785714D01*
X143550057Y-135785714D02*
X143645295Y-135738095D01*
X143645295Y-135738095D02*
X143740533Y-135738095D01*
X143740533Y-135738095D02*
X143883390Y-135785714D01*
X143883390Y-135785714D02*
X144454819Y-136357142D01*
X144454819Y-136357142D02*
X144454819Y-135738095D01*
X173404819Y-132333333D02*
X174119104Y-132333333D01*
X174119104Y-132333333D02*
X174261961Y-132380952D01*
X174261961Y-132380952D02*
X174357200Y-132476190D01*
X174357200Y-132476190D02*
X174404819Y-132619047D01*
X174404819Y-132619047D02*
X174404819Y-132714285D01*
X173404819Y-131952380D02*
X173404819Y-131285714D01*
X173404819Y-131285714D02*
X174404819Y-131714285D01*
X142454819Y-97761904D02*
X143264342Y-97761904D01*
X143264342Y-97761904D02*
X143359580Y-97714285D01*
X143359580Y-97714285D02*
X143407200Y-97666666D01*
X143407200Y-97666666D02*
X143454819Y-97571428D01*
X143454819Y-97571428D02*
X143454819Y-97380952D01*
X143454819Y-97380952D02*
X143407200Y-97285714D01*
X143407200Y-97285714D02*
X143359580Y-97238095D01*
X143359580Y-97238095D02*
X143264342Y-97190476D01*
X143264342Y-97190476D02*
X142454819Y-97190476D01*
X142788152Y-96285714D02*
X143454819Y-96285714D01*
X142407200Y-96523809D02*
X143121485Y-96761904D01*
X143121485Y-96761904D02*
X143121485Y-96142857D01*
X176666667Y-98907200D02*
X176809524Y-98954819D01*
X176809524Y-98954819D02*
X177047619Y-98954819D01*
X177047619Y-98954819D02*
X177142857Y-98907200D01*
X177142857Y-98907200D02*
X177190476Y-98859580D01*
X177190476Y-98859580D02*
X177238095Y-98764342D01*
X177238095Y-98764342D02*
X177238095Y-98669104D01*
X177238095Y-98669104D02*
X177190476Y-98573866D01*
X177190476Y-98573866D02*
X177142857Y-98526247D01*
X177142857Y-98526247D02*
X177047619Y-98478628D01*
X177047619Y-98478628D02*
X176857143Y-98431009D01*
X176857143Y-98431009D02*
X176761905Y-98383390D01*
X176761905Y-98383390D02*
X176714286Y-98335771D01*
X176714286Y-98335771D02*
X176666667Y-98240533D01*
X176666667Y-98240533D02*
X176666667Y-98145295D01*
X176666667Y-98145295D02*
X176714286Y-98050057D01*
X176714286Y-98050057D02*
X176761905Y-98002438D01*
X176761905Y-98002438D02*
X176857143Y-97954819D01*
X176857143Y-97954819D02*
X177095238Y-97954819D01*
X177095238Y-97954819D02*
X177238095Y-98002438D01*
X177571429Y-97954819D02*
X177809524Y-98954819D01*
X177809524Y-98954819D02*
X178000000Y-98240533D01*
X178000000Y-98240533D02*
X178190476Y-98954819D01*
X178190476Y-98954819D02*
X178428572Y-97954819D01*
X178761905Y-98050057D02*
X178809524Y-98002438D01*
X178809524Y-98002438D02*
X178904762Y-97954819D01*
X178904762Y-97954819D02*
X179142857Y-97954819D01*
X179142857Y-97954819D02*
X179238095Y-98002438D01*
X179238095Y-98002438D02*
X179285714Y-98050057D01*
X179285714Y-98050057D02*
X179333333Y-98145295D01*
X179333333Y-98145295D02*
X179333333Y-98240533D01*
X179333333Y-98240533D02*
X179285714Y-98383390D01*
X179285714Y-98383390D02*
X178714286Y-98954819D01*
X178714286Y-98954819D02*
X179333333Y-98954819D01*
X138458333Y-111509580D02*
X138410714Y-111557200D01*
X138410714Y-111557200D02*
X138267857Y-111604819D01*
X138267857Y-111604819D02*
X138172619Y-111604819D01*
X138172619Y-111604819D02*
X138029762Y-111557200D01*
X138029762Y-111557200D02*
X137934524Y-111461961D01*
X137934524Y-111461961D02*
X137886905Y-111366723D01*
X137886905Y-111366723D02*
X137839286Y-111176247D01*
X137839286Y-111176247D02*
X137839286Y-111033390D01*
X137839286Y-111033390D02*
X137886905Y-110842914D01*
X137886905Y-110842914D02*
X137934524Y-110747676D01*
X137934524Y-110747676D02*
X138029762Y-110652438D01*
X138029762Y-110652438D02*
X138172619Y-110604819D01*
X138172619Y-110604819D02*
X138267857Y-110604819D01*
X138267857Y-110604819D02*
X138410714Y-110652438D01*
X138410714Y-110652438D02*
X138458333Y-110700057D01*
X138934524Y-111604819D02*
X139125000Y-111604819D01*
X139125000Y-111604819D02*
X139220238Y-111557200D01*
X139220238Y-111557200D02*
X139267857Y-111509580D01*
X139267857Y-111509580D02*
X139363095Y-111366723D01*
X139363095Y-111366723D02*
X139410714Y-111176247D01*
X139410714Y-111176247D02*
X139410714Y-110795295D01*
X139410714Y-110795295D02*
X139363095Y-110700057D01*
X139363095Y-110700057D02*
X139315476Y-110652438D01*
X139315476Y-110652438D02*
X139220238Y-110604819D01*
X139220238Y-110604819D02*
X139029762Y-110604819D01*
X139029762Y-110604819D02*
X138934524Y-110652438D01*
X138934524Y-110652438D02*
X138886905Y-110700057D01*
X138886905Y-110700057D02*
X138839286Y-110795295D01*
X138839286Y-110795295D02*
X138839286Y-111033390D01*
X138839286Y-111033390D02*
X138886905Y-111128628D01*
X138886905Y-111128628D02*
X138934524Y-111176247D01*
X138934524Y-111176247D02*
X139029762Y-111223866D01*
X139029762Y-111223866D02*
X139220238Y-111223866D01*
X139220238Y-111223866D02*
X139315476Y-111176247D01*
X139315476Y-111176247D02*
X139363095Y-111128628D01*
X139363095Y-111128628D02*
X139410714Y-111033390D01*
X143454819Y-90738094D02*
X142454819Y-90738094D01*
X142454819Y-90738094D02*
X142454819Y-90499999D01*
X142454819Y-90499999D02*
X142502438Y-90357142D01*
X142502438Y-90357142D02*
X142597676Y-90261904D01*
X142597676Y-90261904D02*
X142692914Y-90214285D01*
X142692914Y-90214285D02*
X142883390Y-90166666D01*
X142883390Y-90166666D02*
X143026247Y-90166666D01*
X143026247Y-90166666D02*
X143216723Y-90214285D01*
X143216723Y-90214285D02*
X143311961Y-90261904D01*
X143311961Y-90261904D02*
X143407200Y-90357142D01*
X143407200Y-90357142D02*
X143454819Y-90499999D01*
X143454819Y-90499999D02*
X143454819Y-90738094D01*
X143454819Y-89214285D02*
X143454819Y-89785713D01*
X143454819Y-89499999D02*
X142454819Y-89499999D01*
X142454819Y-89499999D02*
X142597676Y-89595237D01*
X142597676Y-89595237D02*
X142692914Y-89690475D01*
X142692914Y-89690475D02*
X142740533Y-89785713D01*
X153266666Y-136931009D02*
X152933333Y-136931009D01*
X152933333Y-137454819D02*
X152933333Y-136454819D01*
X152933333Y-136454819D02*
X153409523Y-136454819D01*
X153742857Y-136550057D02*
X153790476Y-136502438D01*
X153790476Y-136502438D02*
X153885714Y-136454819D01*
X153885714Y-136454819D02*
X154123809Y-136454819D01*
X154123809Y-136454819D02*
X154219047Y-136502438D01*
X154219047Y-136502438D02*
X154266666Y-136550057D01*
X154266666Y-136550057D02*
X154314285Y-136645295D01*
X154314285Y-136645295D02*
X154314285Y-136740533D01*
X154314285Y-136740533D02*
X154266666Y-136883390D01*
X154266666Y-136883390D02*
X153695238Y-137454819D01*
X153695238Y-137454819D02*
X154314285Y-137454819D01*
X160761905Y-120454819D02*
X160761905Y-121264342D01*
X160761905Y-121264342D02*
X160809524Y-121359580D01*
X160809524Y-121359580D02*
X160857143Y-121407200D01*
X160857143Y-121407200D02*
X160952381Y-121454819D01*
X160952381Y-121454819D02*
X161142857Y-121454819D01*
X161142857Y-121454819D02*
X161238095Y-121407200D01*
X161238095Y-121407200D02*
X161285714Y-121359580D01*
X161285714Y-121359580D02*
X161333333Y-121264342D01*
X161333333Y-121264342D02*
X161333333Y-120454819D01*
X162333333Y-121454819D02*
X161761905Y-121454819D01*
X162047619Y-121454819D02*
X162047619Y-120454819D01*
X162047619Y-120454819D02*
X161952381Y-120597676D01*
X161952381Y-120597676D02*
X161857143Y-120692914D01*
X161857143Y-120692914D02*
X161761905Y-120740533D01*
X163285714Y-121454819D02*
X162714286Y-121454819D01*
X163000000Y-121454819D02*
X163000000Y-120454819D01*
X163000000Y-120454819D02*
X162904762Y-120597676D01*
X162904762Y-120597676D02*
X162809524Y-120692914D01*
X162809524Y-120692914D02*
X162714286Y-120740533D01*
X140099819Y-83333333D02*
X140814104Y-83333333D01*
X140814104Y-83333333D02*
X140956961Y-83380952D01*
X140956961Y-83380952D02*
X141052200Y-83476190D01*
X141052200Y-83476190D02*
X141099819Y-83619047D01*
X141099819Y-83619047D02*
X141099819Y-83714285D01*
X140099819Y-82952380D02*
X140099819Y-82333333D01*
X140099819Y-82333333D02*
X140480771Y-82666666D01*
X140480771Y-82666666D02*
X140480771Y-82523809D01*
X140480771Y-82523809D02*
X140528390Y-82428571D01*
X140528390Y-82428571D02*
X140576009Y-82380952D01*
X140576009Y-82380952D02*
X140671247Y-82333333D01*
X140671247Y-82333333D02*
X140909342Y-82333333D01*
X140909342Y-82333333D02*
X141004580Y-82380952D01*
X141004580Y-82380952D02*
X141052200Y-82428571D01*
X141052200Y-82428571D02*
X141099819Y-82523809D01*
X141099819Y-82523809D02*
X141099819Y-82809523D01*
X141099819Y-82809523D02*
X141052200Y-82904761D01*
X141052200Y-82904761D02*
X141004580Y-82952380D01*
X164357142Y-129931249D02*
X164023809Y-129455058D01*
X163785714Y-129931249D02*
X163785714Y-128931249D01*
X163785714Y-128931249D02*
X164166666Y-128931249D01*
X164166666Y-128931249D02*
X164261904Y-128978868D01*
X164261904Y-128978868D02*
X164309523Y-129026487D01*
X164309523Y-129026487D02*
X164357142Y-129121725D01*
X164357142Y-129121725D02*
X164357142Y-129264582D01*
X164357142Y-129264582D02*
X164309523Y-129359820D01*
X164309523Y-129359820D02*
X164261904Y-129407439D01*
X164261904Y-129407439D02*
X164166666Y-129455058D01*
X164166666Y-129455058D02*
X163785714Y-129455058D01*
X165309523Y-129931249D02*
X164738095Y-129931249D01*
X165023809Y-129931249D02*
X165023809Y-128931249D01*
X165023809Y-128931249D02*
X164928571Y-129074106D01*
X164928571Y-129074106D02*
X164833333Y-129169344D01*
X164833333Y-129169344D02*
X164738095Y-129216963D01*
X165690476Y-129026487D02*
X165738095Y-128978868D01*
X165738095Y-128978868D02*
X165833333Y-128931249D01*
X165833333Y-128931249D02*
X166071428Y-128931249D01*
X166071428Y-128931249D02*
X166166666Y-128978868D01*
X166166666Y-128978868D02*
X166214285Y-129026487D01*
X166214285Y-129026487D02*
X166261904Y-129121725D01*
X166261904Y-129121725D02*
X166261904Y-129216963D01*
X166261904Y-129216963D02*
X166214285Y-129359820D01*
X166214285Y-129359820D02*
X165642857Y-129931249D01*
X165642857Y-129931249D02*
X166261904Y-129931249D01*
X197359580Y-108642857D02*
X197407200Y-108690476D01*
X197407200Y-108690476D02*
X197454819Y-108833333D01*
X197454819Y-108833333D02*
X197454819Y-108928571D01*
X197454819Y-108928571D02*
X197407200Y-109071428D01*
X197407200Y-109071428D02*
X197311961Y-109166666D01*
X197311961Y-109166666D02*
X197216723Y-109214285D01*
X197216723Y-109214285D02*
X197026247Y-109261904D01*
X197026247Y-109261904D02*
X196883390Y-109261904D01*
X196883390Y-109261904D02*
X196692914Y-109214285D01*
X196692914Y-109214285D02*
X196597676Y-109166666D01*
X196597676Y-109166666D02*
X196502438Y-109071428D01*
X196502438Y-109071428D02*
X196454819Y-108928571D01*
X196454819Y-108928571D02*
X196454819Y-108833333D01*
X196454819Y-108833333D02*
X196502438Y-108690476D01*
X196502438Y-108690476D02*
X196550057Y-108642857D01*
X197454819Y-107690476D02*
X197454819Y-108261904D01*
X197454819Y-107976190D02*
X196454819Y-107976190D01*
X196454819Y-107976190D02*
X196597676Y-108071428D01*
X196597676Y-108071428D02*
X196692914Y-108166666D01*
X196692914Y-108166666D02*
X196740533Y-108261904D01*
X196883390Y-107119047D02*
X196835771Y-107214285D01*
X196835771Y-107214285D02*
X196788152Y-107261904D01*
X196788152Y-107261904D02*
X196692914Y-107309523D01*
X196692914Y-107309523D02*
X196645295Y-107309523D01*
X196645295Y-107309523D02*
X196550057Y-107261904D01*
X196550057Y-107261904D02*
X196502438Y-107214285D01*
X196502438Y-107214285D02*
X196454819Y-107119047D01*
X196454819Y-107119047D02*
X196454819Y-106928571D01*
X196454819Y-106928571D02*
X196502438Y-106833333D01*
X196502438Y-106833333D02*
X196550057Y-106785714D01*
X196550057Y-106785714D02*
X196645295Y-106738095D01*
X196645295Y-106738095D02*
X196692914Y-106738095D01*
X196692914Y-106738095D02*
X196788152Y-106785714D01*
X196788152Y-106785714D02*
X196835771Y-106833333D01*
X196835771Y-106833333D02*
X196883390Y-106928571D01*
X196883390Y-106928571D02*
X196883390Y-107119047D01*
X196883390Y-107119047D02*
X196931009Y-107214285D01*
X196931009Y-107214285D02*
X196978628Y-107261904D01*
X196978628Y-107261904D02*
X197073866Y-107309523D01*
X197073866Y-107309523D02*
X197264342Y-107309523D01*
X197264342Y-107309523D02*
X197359580Y-107261904D01*
X197359580Y-107261904D02*
X197407200Y-107214285D01*
X197407200Y-107214285D02*
X197454819Y-107119047D01*
X197454819Y-107119047D02*
X197454819Y-106928571D01*
X197454819Y-106928571D02*
X197407200Y-106833333D01*
X197407200Y-106833333D02*
X197359580Y-106785714D01*
X197359580Y-106785714D02*
X197264342Y-106738095D01*
X197264342Y-106738095D02*
X197073866Y-106738095D01*
X197073866Y-106738095D02*
X196978628Y-106785714D01*
X196978628Y-106785714D02*
X196931009Y-106833333D01*
X196931009Y-106833333D02*
X196883390Y-106928571D01*
X179763095Y-88759819D02*
X179763095Y-89569342D01*
X179763095Y-89569342D02*
X179810714Y-89664580D01*
X179810714Y-89664580D02*
X179858333Y-89712200D01*
X179858333Y-89712200D02*
X179953571Y-89759819D01*
X179953571Y-89759819D02*
X180144047Y-89759819D01*
X180144047Y-89759819D02*
X180239285Y-89712200D01*
X180239285Y-89712200D02*
X180286904Y-89664580D01*
X180286904Y-89664580D02*
X180334523Y-89569342D01*
X180334523Y-89569342D02*
X180334523Y-88759819D01*
X181334523Y-89759819D02*
X180763095Y-89759819D01*
X181048809Y-89759819D02*
X181048809Y-88759819D01*
X181048809Y-88759819D02*
X180953571Y-88902676D01*
X180953571Y-88902676D02*
X180858333Y-88997914D01*
X180858333Y-88997914D02*
X180763095Y-89045533D01*
X177357142Y-127359580D02*
X177309523Y-127407200D01*
X177309523Y-127407200D02*
X177166666Y-127454819D01*
X177166666Y-127454819D02*
X177071428Y-127454819D01*
X177071428Y-127454819D02*
X176928571Y-127407200D01*
X176928571Y-127407200D02*
X176833333Y-127311961D01*
X176833333Y-127311961D02*
X176785714Y-127216723D01*
X176785714Y-127216723D02*
X176738095Y-127026247D01*
X176738095Y-127026247D02*
X176738095Y-126883390D01*
X176738095Y-126883390D02*
X176785714Y-126692914D01*
X176785714Y-126692914D02*
X176833333Y-126597676D01*
X176833333Y-126597676D02*
X176928571Y-126502438D01*
X176928571Y-126502438D02*
X177071428Y-126454819D01*
X177071428Y-126454819D02*
X177166666Y-126454819D01*
X177166666Y-126454819D02*
X177309523Y-126502438D01*
X177309523Y-126502438D02*
X177357142Y-126550057D01*
X177738095Y-126550057D02*
X177785714Y-126502438D01*
X177785714Y-126502438D02*
X177880952Y-126454819D01*
X177880952Y-126454819D02*
X178119047Y-126454819D01*
X178119047Y-126454819D02*
X178214285Y-126502438D01*
X178214285Y-126502438D02*
X178261904Y-126550057D01*
X178261904Y-126550057D02*
X178309523Y-126645295D01*
X178309523Y-126645295D02*
X178309523Y-126740533D01*
X178309523Y-126740533D02*
X178261904Y-126883390D01*
X178261904Y-126883390D02*
X177690476Y-127454819D01*
X177690476Y-127454819D02*
X178309523Y-127454819D01*
X178928571Y-126454819D02*
X179023809Y-126454819D01*
X179023809Y-126454819D02*
X179119047Y-126502438D01*
X179119047Y-126502438D02*
X179166666Y-126550057D01*
X179166666Y-126550057D02*
X179214285Y-126645295D01*
X179214285Y-126645295D02*
X179261904Y-126835771D01*
X179261904Y-126835771D02*
X179261904Y-127073866D01*
X179261904Y-127073866D02*
X179214285Y-127264342D01*
X179214285Y-127264342D02*
X179166666Y-127359580D01*
X179166666Y-127359580D02*
X179119047Y-127407200D01*
X179119047Y-127407200D02*
X179023809Y-127454819D01*
X179023809Y-127454819D02*
X178928571Y-127454819D01*
X178928571Y-127454819D02*
X178833333Y-127407200D01*
X178833333Y-127407200D02*
X178785714Y-127359580D01*
X178785714Y-127359580D02*
X178738095Y-127264342D01*
X178738095Y-127264342D02*
X178690476Y-127073866D01*
X178690476Y-127073866D02*
X178690476Y-126835771D01*
X178690476Y-126835771D02*
X178738095Y-126645295D01*
X178738095Y-126645295D02*
X178785714Y-126550057D01*
X178785714Y-126550057D02*
X178833333Y-126502438D01*
X178833333Y-126502438D02*
X178928571Y-126454819D01*
X183833333Y-90359580D02*
X183785714Y-90407200D01*
X183785714Y-90407200D02*
X183642857Y-90454819D01*
X183642857Y-90454819D02*
X183547619Y-90454819D01*
X183547619Y-90454819D02*
X183404762Y-90407200D01*
X183404762Y-90407200D02*
X183309524Y-90311961D01*
X183309524Y-90311961D02*
X183261905Y-90216723D01*
X183261905Y-90216723D02*
X183214286Y-90026247D01*
X183214286Y-90026247D02*
X183214286Y-89883390D01*
X183214286Y-89883390D02*
X183261905Y-89692914D01*
X183261905Y-89692914D02*
X183309524Y-89597676D01*
X183309524Y-89597676D02*
X183404762Y-89502438D01*
X183404762Y-89502438D02*
X183547619Y-89454819D01*
X183547619Y-89454819D02*
X183642857Y-89454819D01*
X183642857Y-89454819D02*
X183785714Y-89502438D01*
X183785714Y-89502438D02*
X183833333Y-89550057D01*
X184738095Y-89454819D02*
X184261905Y-89454819D01*
X184261905Y-89454819D02*
X184214286Y-89931009D01*
X184214286Y-89931009D02*
X184261905Y-89883390D01*
X184261905Y-89883390D02*
X184357143Y-89835771D01*
X184357143Y-89835771D02*
X184595238Y-89835771D01*
X184595238Y-89835771D02*
X184690476Y-89883390D01*
X184690476Y-89883390D02*
X184738095Y-89931009D01*
X184738095Y-89931009D02*
X184785714Y-90026247D01*
X184785714Y-90026247D02*
X184785714Y-90264342D01*
X184785714Y-90264342D02*
X184738095Y-90359580D01*
X184738095Y-90359580D02*
X184690476Y-90407200D01*
X184690476Y-90407200D02*
X184595238Y-90454819D01*
X184595238Y-90454819D02*
X184357143Y-90454819D01*
X184357143Y-90454819D02*
X184261905Y-90407200D01*
X184261905Y-90407200D02*
X184214286Y-90359580D01*
X179789580Y-94391666D02*
X179837200Y-94439285D01*
X179837200Y-94439285D02*
X179884819Y-94582142D01*
X179884819Y-94582142D02*
X179884819Y-94677380D01*
X179884819Y-94677380D02*
X179837200Y-94820237D01*
X179837200Y-94820237D02*
X179741961Y-94915475D01*
X179741961Y-94915475D02*
X179646723Y-94963094D01*
X179646723Y-94963094D02*
X179456247Y-95010713D01*
X179456247Y-95010713D02*
X179313390Y-95010713D01*
X179313390Y-95010713D02*
X179122914Y-94963094D01*
X179122914Y-94963094D02*
X179027676Y-94915475D01*
X179027676Y-94915475D02*
X178932438Y-94820237D01*
X178932438Y-94820237D02*
X178884819Y-94677380D01*
X178884819Y-94677380D02*
X178884819Y-94582142D01*
X178884819Y-94582142D02*
X178932438Y-94439285D01*
X178932438Y-94439285D02*
X178980057Y-94391666D01*
X178884819Y-94058332D02*
X178884819Y-93391666D01*
X178884819Y-93391666D02*
X179884819Y-93820237D01*
X156238095Y-119454819D02*
X156238095Y-120264342D01*
X156238095Y-120264342D02*
X156285714Y-120359580D01*
X156285714Y-120359580D02*
X156333333Y-120407200D01*
X156333333Y-120407200D02*
X156428571Y-120454819D01*
X156428571Y-120454819D02*
X156619047Y-120454819D01*
X156619047Y-120454819D02*
X156714285Y-120407200D01*
X156714285Y-120407200D02*
X156761904Y-120359580D01*
X156761904Y-120359580D02*
X156809523Y-120264342D01*
X156809523Y-120264342D02*
X156809523Y-119454819D01*
X157428571Y-119883390D02*
X157333333Y-119835771D01*
X157333333Y-119835771D02*
X157285714Y-119788152D01*
X157285714Y-119788152D02*
X157238095Y-119692914D01*
X157238095Y-119692914D02*
X157238095Y-119645295D01*
X157238095Y-119645295D02*
X157285714Y-119550057D01*
X157285714Y-119550057D02*
X157333333Y-119502438D01*
X157333333Y-119502438D02*
X157428571Y-119454819D01*
X157428571Y-119454819D02*
X157619047Y-119454819D01*
X157619047Y-119454819D02*
X157714285Y-119502438D01*
X157714285Y-119502438D02*
X157761904Y-119550057D01*
X157761904Y-119550057D02*
X157809523Y-119645295D01*
X157809523Y-119645295D02*
X157809523Y-119692914D01*
X157809523Y-119692914D02*
X157761904Y-119788152D01*
X157761904Y-119788152D02*
X157714285Y-119835771D01*
X157714285Y-119835771D02*
X157619047Y-119883390D01*
X157619047Y-119883390D02*
X157428571Y-119883390D01*
X157428571Y-119883390D02*
X157333333Y-119931009D01*
X157333333Y-119931009D02*
X157285714Y-119978628D01*
X157285714Y-119978628D02*
X157238095Y-120073866D01*
X157238095Y-120073866D02*
X157238095Y-120264342D01*
X157238095Y-120264342D02*
X157285714Y-120359580D01*
X157285714Y-120359580D02*
X157333333Y-120407200D01*
X157333333Y-120407200D02*
X157428571Y-120454819D01*
X157428571Y-120454819D02*
X157619047Y-120454819D01*
X157619047Y-120454819D02*
X157714285Y-120407200D01*
X157714285Y-120407200D02*
X157761904Y-120359580D01*
X157761904Y-120359580D02*
X157809523Y-120264342D01*
X157809523Y-120264342D02*
X157809523Y-120073866D01*
X157809523Y-120073866D02*
X157761904Y-119978628D01*
X157761904Y-119978628D02*
X157714285Y-119931009D01*
X157714285Y-119931009D02*
X157619047Y-119883390D01*
X151761905Y-131454819D02*
X151761905Y-132264342D01*
X151761905Y-132264342D02*
X151809524Y-132359580D01*
X151809524Y-132359580D02*
X151857143Y-132407200D01*
X151857143Y-132407200D02*
X151952381Y-132454819D01*
X151952381Y-132454819D02*
X152142857Y-132454819D01*
X152142857Y-132454819D02*
X152238095Y-132407200D01*
X152238095Y-132407200D02*
X152285714Y-132359580D01*
X152285714Y-132359580D02*
X152333333Y-132264342D01*
X152333333Y-132264342D02*
X152333333Y-131454819D01*
X153333333Y-132454819D02*
X152761905Y-132454819D01*
X153047619Y-132454819D02*
X153047619Y-131454819D01*
X153047619Y-131454819D02*
X152952381Y-131597676D01*
X152952381Y-131597676D02*
X152857143Y-131692914D01*
X152857143Y-131692914D02*
X152761905Y-131740533D01*
X153952381Y-131454819D02*
X154047619Y-131454819D01*
X154047619Y-131454819D02*
X154142857Y-131502438D01*
X154142857Y-131502438D02*
X154190476Y-131550057D01*
X154190476Y-131550057D02*
X154238095Y-131645295D01*
X154238095Y-131645295D02*
X154285714Y-131835771D01*
X154285714Y-131835771D02*
X154285714Y-132073866D01*
X154285714Y-132073866D02*
X154238095Y-132264342D01*
X154238095Y-132264342D02*
X154190476Y-132359580D01*
X154190476Y-132359580D02*
X154142857Y-132407200D01*
X154142857Y-132407200D02*
X154047619Y-132454819D01*
X154047619Y-132454819D02*
X153952381Y-132454819D01*
X153952381Y-132454819D02*
X153857143Y-132407200D01*
X153857143Y-132407200D02*
X153809524Y-132359580D01*
X153809524Y-132359580D02*
X153761905Y-132264342D01*
X153761905Y-132264342D02*
X153714286Y-132073866D01*
X153714286Y-132073866D02*
X153714286Y-131835771D01*
X153714286Y-131835771D02*
X153761905Y-131645295D01*
X153761905Y-131645295D02*
X153809524Y-131550057D01*
X153809524Y-131550057D02*
X153857143Y-131502438D01*
X153857143Y-131502438D02*
X153952381Y-131454819D01*
X168789580Y-88170318D02*
X168837200Y-88217937D01*
X168837200Y-88217937D02*
X168884819Y-88360794D01*
X168884819Y-88360794D02*
X168884819Y-88456032D01*
X168884819Y-88456032D02*
X168837200Y-88598889D01*
X168837200Y-88598889D02*
X168741961Y-88694127D01*
X168741961Y-88694127D02*
X168646723Y-88741746D01*
X168646723Y-88741746D02*
X168456247Y-88789365D01*
X168456247Y-88789365D02*
X168313390Y-88789365D01*
X168313390Y-88789365D02*
X168122914Y-88741746D01*
X168122914Y-88741746D02*
X168027676Y-88694127D01*
X168027676Y-88694127D02*
X167932438Y-88598889D01*
X167932438Y-88598889D02*
X167884819Y-88456032D01*
X167884819Y-88456032D02*
X167884819Y-88360794D01*
X167884819Y-88360794D02*
X167932438Y-88217937D01*
X167932438Y-88217937D02*
X167980057Y-88170318D01*
X167980057Y-87789365D02*
X167932438Y-87741746D01*
X167932438Y-87741746D02*
X167884819Y-87646508D01*
X167884819Y-87646508D02*
X167884819Y-87408413D01*
X167884819Y-87408413D02*
X167932438Y-87313175D01*
X167932438Y-87313175D02*
X167980057Y-87265556D01*
X167980057Y-87265556D02*
X168075295Y-87217937D01*
X168075295Y-87217937D02*
X168170533Y-87217937D01*
X168170533Y-87217937D02*
X168313390Y-87265556D01*
X168313390Y-87265556D02*
X168884819Y-87836984D01*
X168884819Y-87836984D02*
X168884819Y-87217937D01*
X145868897Y-107670031D02*
X145868897Y-108384316D01*
X145868897Y-108384316D02*
X145821278Y-108527173D01*
X145821278Y-108527173D02*
X145726040Y-108622412D01*
X145726040Y-108622412D02*
X145583183Y-108670031D01*
X145583183Y-108670031D02*
X145487945Y-108670031D01*
X146868897Y-108670031D02*
X146297469Y-108670031D01*
X146583183Y-108670031D02*
X146583183Y-107670031D01*
X146583183Y-107670031D02*
X146487945Y-107812888D01*
X146487945Y-107812888D02*
X146392707Y-107908126D01*
X146392707Y-107908126D02*
X146297469Y-107955745D01*
X142357142Y-129359580D02*
X142309523Y-129407200D01*
X142309523Y-129407200D02*
X142166666Y-129454819D01*
X142166666Y-129454819D02*
X142071428Y-129454819D01*
X142071428Y-129454819D02*
X141928571Y-129407200D01*
X141928571Y-129407200D02*
X141833333Y-129311961D01*
X141833333Y-129311961D02*
X141785714Y-129216723D01*
X141785714Y-129216723D02*
X141738095Y-129026247D01*
X141738095Y-129026247D02*
X141738095Y-128883390D01*
X141738095Y-128883390D02*
X141785714Y-128692914D01*
X141785714Y-128692914D02*
X141833333Y-128597676D01*
X141833333Y-128597676D02*
X141928571Y-128502438D01*
X141928571Y-128502438D02*
X142071428Y-128454819D01*
X142071428Y-128454819D02*
X142166666Y-128454819D01*
X142166666Y-128454819D02*
X142309523Y-128502438D01*
X142309523Y-128502438D02*
X142357142Y-128550057D01*
X142738095Y-128550057D02*
X142785714Y-128502438D01*
X142785714Y-128502438D02*
X142880952Y-128454819D01*
X142880952Y-128454819D02*
X143119047Y-128454819D01*
X143119047Y-128454819D02*
X143214285Y-128502438D01*
X143214285Y-128502438D02*
X143261904Y-128550057D01*
X143261904Y-128550057D02*
X143309523Y-128645295D01*
X143309523Y-128645295D02*
X143309523Y-128740533D01*
X143309523Y-128740533D02*
X143261904Y-128883390D01*
X143261904Y-128883390D02*
X142690476Y-129454819D01*
X142690476Y-129454819D02*
X143309523Y-129454819D01*
X143642857Y-128454819D02*
X144261904Y-128454819D01*
X144261904Y-128454819D02*
X143928571Y-128835771D01*
X143928571Y-128835771D02*
X144071428Y-128835771D01*
X144071428Y-128835771D02*
X144166666Y-128883390D01*
X144166666Y-128883390D02*
X144214285Y-128931009D01*
X144214285Y-128931009D02*
X144261904Y-129026247D01*
X144261904Y-129026247D02*
X144261904Y-129264342D01*
X144261904Y-129264342D02*
X144214285Y-129359580D01*
X144214285Y-129359580D02*
X144166666Y-129407200D01*
X144166666Y-129407200D02*
X144071428Y-129454819D01*
X144071428Y-129454819D02*
X143785714Y-129454819D01*
X143785714Y-129454819D02*
X143690476Y-129407200D01*
X143690476Y-129407200D02*
X143642857Y-129359580D01*
X143359580Y-116242857D02*
X143407200Y-116290476D01*
X143407200Y-116290476D02*
X143454819Y-116433333D01*
X143454819Y-116433333D02*
X143454819Y-116528571D01*
X143454819Y-116528571D02*
X143407200Y-116671428D01*
X143407200Y-116671428D02*
X143311961Y-116766666D01*
X143311961Y-116766666D02*
X143216723Y-116814285D01*
X143216723Y-116814285D02*
X143026247Y-116861904D01*
X143026247Y-116861904D02*
X142883390Y-116861904D01*
X142883390Y-116861904D02*
X142692914Y-116814285D01*
X142692914Y-116814285D02*
X142597676Y-116766666D01*
X142597676Y-116766666D02*
X142502438Y-116671428D01*
X142502438Y-116671428D02*
X142454819Y-116528571D01*
X142454819Y-116528571D02*
X142454819Y-116433333D01*
X142454819Y-116433333D02*
X142502438Y-116290476D01*
X142502438Y-116290476D02*
X142550057Y-116242857D01*
X143454819Y-115290476D02*
X143454819Y-115861904D01*
X143454819Y-115576190D02*
X142454819Y-115576190D01*
X142454819Y-115576190D02*
X142597676Y-115671428D01*
X142597676Y-115671428D02*
X142692914Y-115766666D01*
X142692914Y-115766666D02*
X142740533Y-115861904D01*
X143454819Y-114338095D02*
X143454819Y-114909523D01*
X143454819Y-114623809D02*
X142454819Y-114623809D01*
X142454819Y-114623809D02*
X142597676Y-114719047D01*
X142597676Y-114719047D02*
X142692914Y-114814285D01*
X142692914Y-114814285D02*
X142740533Y-114909523D01*
X182066666Y-137754819D02*
X182066666Y-138469104D01*
X182066666Y-138469104D02*
X182019047Y-138611961D01*
X182019047Y-138611961D02*
X181923809Y-138707200D01*
X181923809Y-138707200D02*
X181780952Y-138754819D01*
X181780952Y-138754819D02*
X181685714Y-138754819D01*
X183019047Y-137754819D02*
X182542857Y-137754819D01*
X182542857Y-137754819D02*
X182495238Y-138231009D01*
X182495238Y-138231009D02*
X182542857Y-138183390D01*
X182542857Y-138183390D02*
X182638095Y-138135771D01*
X182638095Y-138135771D02*
X182876190Y-138135771D01*
X182876190Y-138135771D02*
X182971428Y-138183390D01*
X182971428Y-138183390D02*
X183019047Y-138231009D01*
X183019047Y-138231009D02*
X183066666Y-138326247D01*
X183066666Y-138326247D02*
X183066666Y-138564342D01*
X183066666Y-138564342D02*
X183019047Y-138659580D01*
X183019047Y-138659580D02*
X182971428Y-138707200D01*
X182971428Y-138707200D02*
X182876190Y-138754819D01*
X182876190Y-138754819D02*
X182638095Y-138754819D01*
X182638095Y-138754819D02*
X182542857Y-138707200D01*
X182542857Y-138707200D02*
X182495238Y-138659580D01*
X140929580Y-123417857D02*
X140977200Y-123465476D01*
X140977200Y-123465476D02*
X141024819Y-123608333D01*
X141024819Y-123608333D02*
X141024819Y-123703571D01*
X141024819Y-123703571D02*
X140977200Y-123846428D01*
X140977200Y-123846428D02*
X140881961Y-123941666D01*
X140881961Y-123941666D02*
X140786723Y-123989285D01*
X140786723Y-123989285D02*
X140596247Y-124036904D01*
X140596247Y-124036904D02*
X140453390Y-124036904D01*
X140453390Y-124036904D02*
X140262914Y-123989285D01*
X140262914Y-123989285D02*
X140167676Y-123941666D01*
X140167676Y-123941666D02*
X140072438Y-123846428D01*
X140072438Y-123846428D02*
X140024819Y-123703571D01*
X140024819Y-123703571D02*
X140024819Y-123608333D01*
X140024819Y-123608333D02*
X140072438Y-123465476D01*
X140072438Y-123465476D02*
X140120057Y-123417857D01*
X140120057Y-123036904D02*
X140072438Y-122989285D01*
X140072438Y-122989285D02*
X140024819Y-122894047D01*
X140024819Y-122894047D02*
X140024819Y-122655952D01*
X140024819Y-122655952D02*
X140072438Y-122560714D01*
X140072438Y-122560714D02*
X140120057Y-122513095D01*
X140120057Y-122513095D02*
X140215295Y-122465476D01*
X140215295Y-122465476D02*
X140310533Y-122465476D01*
X140310533Y-122465476D02*
X140453390Y-122513095D01*
X140453390Y-122513095D02*
X141024819Y-123084523D01*
X141024819Y-123084523D02*
X141024819Y-122465476D01*
X140024819Y-122132142D02*
X140024819Y-121465476D01*
X140024819Y-121465476D02*
X141024819Y-121894047D01*
X169776666Y-112609819D02*
X169776666Y-113324104D01*
X169776666Y-113324104D02*
X169729047Y-113466961D01*
X169729047Y-113466961D02*
X169633809Y-113562200D01*
X169633809Y-113562200D02*
X169490952Y-113609819D01*
X169490952Y-113609819D02*
X169395714Y-113609819D01*
X170681428Y-112609819D02*
X170490952Y-112609819D01*
X170490952Y-112609819D02*
X170395714Y-112657438D01*
X170395714Y-112657438D02*
X170348095Y-112705057D01*
X170348095Y-112705057D02*
X170252857Y-112847914D01*
X170252857Y-112847914D02*
X170205238Y-113038390D01*
X170205238Y-113038390D02*
X170205238Y-113419342D01*
X170205238Y-113419342D02*
X170252857Y-113514580D01*
X170252857Y-113514580D02*
X170300476Y-113562200D01*
X170300476Y-113562200D02*
X170395714Y-113609819D01*
X170395714Y-113609819D02*
X170586190Y-113609819D01*
X170586190Y-113609819D02*
X170681428Y-113562200D01*
X170681428Y-113562200D02*
X170729047Y-113514580D01*
X170729047Y-113514580D02*
X170776666Y-113419342D01*
X170776666Y-113419342D02*
X170776666Y-113181247D01*
X170776666Y-113181247D02*
X170729047Y-113086009D01*
X170729047Y-113086009D02*
X170681428Y-113038390D01*
X170681428Y-113038390D02*
X170586190Y-112990771D01*
X170586190Y-112990771D02*
X170395714Y-112990771D01*
X170395714Y-112990771D02*
X170300476Y-113038390D01*
X170300476Y-113038390D02*
X170252857Y-113086009D01*
X170252857Y-113086009D02*
X170205238Y-113181247D01*
X160024819Y-109166666D02*
X159548628Y-109499999D01*
X160024819Y-109738094D02*
X159024819Y-109738094D01*
X159024819Y-109738094D02*
X159024819Y-109357142D01*
X159024819Y-109357142D02*
X159072438Y-109261904D01*
X159072438Y-109261904D02*
X159120057Y-109214285D01*
X159120057Y-109214285D02*
X159215295Y-109166666D01*
X159215295Y-109166666D02*
X159358152Y-109166666D01*
X159358152Y-109166666D02*
X159453390Y-109214285D01*
X159453390Y-109214285D02*
X159501009Y-109261904D01*
X159501009Y-109261904D02*
X159548628Y-109357142D01*
X159548628Y-109357142D02*
X159548628Y-109738094D01*
X159024819Y-108833332D02*
X159024819Y-108166666D01*
X159024819Y-108166666D02*
X160024819Y-108595237D01*
X146359580Y-137642857D02*
X146407200Y-137690476D01*
X146407200Y-137690476D02*
X146454819Y-137833333D01*
X146454819Y-137833333D02*
X146454819Y-137928571D01*
X146454819Y-137928571D02*
X146407200Y-138071428D01*
X146407200Y-138071428D02*
X146311961Y-138166666D01*
X146311961Y-138166666D02*
X146216723Y-138214285D01*
X146216723Y-138214285D02*
X146026247Y-138261904D01*
X146026247Y-138261904D02*
X145883390Y-138261904D01*
X145883390Y-138261904D02*
X145692914Y-138214285D01*
X145692914Y-138214285D02*
X145597676Y-138166666D01*
X145597676Y-138166666D02*
X145502438Y-138071428D01*
X145502438Y-138071428D02*
X145454819Y-137928571D01*
X145454819Y-137928571D02*
X145454819Y-137833333D01*
X145454819Y-137833333D02*
X145502438Y-137690476D01*
X145502438Y-137690476D02*
X145550057Y-137642857D01*
X145550057Y-137261904D02*
X145502438Y-137214285D01*
X145502438Y-137214285D02*
X145454819Y-137119047D01*
X145454819Y-137119047D02*
X145454819Y-136880952D01*
X145454819Y-136880952D02*
X145502438Y-136785714D01*
X145502438Y-136785714D02*
X145550057Y-136738095D01*
X145550057Y-136738095D02*
X145645295Y-136690476D01*
X145645295Y-136690476D02*
X145740533Y-136690476D01*
X145740533Y-136690476D02*
X145883390Y-136738095D01*
X145883390Y-136738095D02*
X146454819Y-137309523D01*
X146454819Y-137309523D02*
X146454819Y-136690476D01*
X146454819Y-135738095D02*
X146454819Y-136309523D01*
X146454819Y-136023809D02*
X145454819Y-136023809D01*
X145454819Y-136023809D02*
X145597676Y-136119047D01*
X145597676Y-136119047D02*
X145692914Y-136214285D01*
X145692914Y-136214285D02*
X145740533Y-136309523D01*
X137143509Y-90833333D02*
X137143509Y-91166666D01*
X137667319Y-91166666D02*
X136667319Y-91166666D01*
X136667319Y-91166666D02*
X136667319Y-90690476D01*
X137143509Y-89976190D02*
X137191128Y-89833333D01*
X137191128Y-89833333D02*
X137238747Y-89785714D01*
X137238747Y-89785714D02*
X137333985Y-89738095D01*
X137333985Y-89738095D02*
X137476842Y-89738095D01*
X137476842Y-89738095D02*
X137572080Y-89785714D01*
X137572080Y-89785714D02*
X137619700Y-89833333D01*
X137619700Y-89833333D02*
X137667319Y-89928571D01*
X137667319Y-89928571D02*
X137667319Y-90309523D01*
X137667319Y-90309523D02*
X136667319Y-90309523D01*
X136667319Y-90309523D02*
X136667319Y-89976190D01*
X136667319Y-89976190D02*
X136714938Y-89880952D01*
X136714938Y-89880952D02*
X136762557Y-89833333D01*
X136762557Y-89833333D02*
X136857795Y-89785714D01*
X136857795Y-89785714D02*
X136953033Y-89785714D01*
X136953033Y-89785714D02*
X137048271Y-89833333D01*
X137048271Y-89833333D02*
X137095890Y-89880952D01*
X137095890Y-89880952D02*
X137143509Y-89976190D01*
X137143509Y-89976190D02*
X137143509Y-90309523D01*
X137667319Y-88785714D02*
X137667319Y-89357142D01*
X137667319Y-89071428D02*
X136667319Y-89071428D01*
X136667319Y-89071428D02*
X136810176Y-89166666D01*
X136810176Y-89166666D02*
X136905414Y-89261904D01*
X136905414Y-89261904D02*
X136953033Y-89357142D01*
X147238095Y-82454819D02*
X147238095Y-83264342D01*
X147238095Y-83264342D02*
X147285714Y-83359580D01*
X147285714Y-83359580D02*
X147333333Y-83407200D01*
X147333333Y-83407200D02*
X147428571Y-83454819D01*
X147428571Y-83454819D02*
X147619047Y-83454819D01*
X147619047Y-83454819D02*
X147714285Y-83407200D01*
X147714285Y-83407200D02*
X147761904Y-83359580D01*
X147761904Y-83359580D02*
X147809523Y-83264342D01*
X147809523Y-83264342D02*
X147809523Y-82454819D01*
X148238095Y-82550057D02*
X148285714Y-82502438D01*
X148285714Y-82502438D02*
X148380952Y-82454819D01*
X148380952Y-82454819D02*
X148619047Y-82454819D01*
X148619047Y-82454819D02*
X148714285Y-82502438D01*
X148714285Y-82502438D02*
X148761904Y-82550057D01*
X148761904Y-82550057D02*
X148809523Y-82645295D01*
X148809523Y-82645295D02*
X148809523Y-82740533D01*
X148809523Y-82740533D02*
X148761904Y-82883390D01*
X148761904Y-82883390D02*
X148190476Y-83454819D01*
X148190476Y-83454819D02*
X148809523Y-83454819D01*
X160024819Y-113738094D02*
X159024819Y-113738094D01*
X159024819Y-113738094D02*
X159024819Y-113499999D01*
X159024819Y-113499999D02*
X159072438Y-113357142D01*
X159072438Y-113357142D02*
X159167676Y-113261904D01*
X159167676Y-113261904D02*
X159262914Y-113214285D01*
X159262914Y-113214285D02*
X159453390Y-113166666D01*
X159453390Y-113166666D02*
X159596247Y-113166666D01*
X159596247Y-113166666D02*
X159786723Y-113214285D01*
X159786723Y-113214285D02*
X159881961Y-113261904D01*
X159881961Y-113261904D02*
X159977200Y-113357142D01*
X159977200Y-113357142D02*
X160024819Y-113499999D01*
X160024819Y-113499999D02*
X160024819Y-113738094D01*
X159024819Y-112833332D02*
X159024819Y-112214285D01*
X159024819Y-112214285D02*
X159405771Y-112547618D01*
X159405771Y-112547618D02*
X159405771Y-112404761D01*
X159405771Y-112404761D02*
X159453390Y-112309523D01*
X159453390Y-112309523D02*
X159501009Y-112261904D01*
X159501009Y-112261904D02*
X159596247Y-112214285D01*
X159596247Y-112214285D02*
X159834342Y-112214285D01*
X159834342Y-112214285D02*
X159929580Y-112261904D01*
X159929580Y-112261904D02*
X159977200Y-112309523D01*
X159977200Y-112309523D02*
X160024819Y-112404761D01*
X160024819Y-112404761D02*
X160024819Y-112690475D01*
X160024819Y-112690475D02*
X159977200Y-112785713D01*
X159977200Y-112785713D02*
X159929580Y-112833332D01*
X167359580Y-118892857D02*
X167407200Y-118940476D01*
X167407200Y-118940476D02*
X167454819Y-119083333D01*
X167454819Y-119083333D02*
X167454819Y-119178571D01*
X167454819Y-119178571D02*
X167407200Y-119321428D01*
X167407200Y-119321428D02*
X167311961Y-119416666D01*
X167311961Y-119416666D02*
X167216723Y-119464285D01*
X167216723Y-119464285D02*
X167026247Y-119511904D01*
X167026247Y-119511904D02*
X166883390Y-119511904D01*
X166883390Y-119511904D02*
X166692914Y-119464285D01*
X166692914Y-119464285D02*
X166597676Y-119416666D01*
X166597676Y-119416666D02*
X166502438Y-119321428D01*
X166502438Y-119321428D02*
X166454819Y-119178571D01*
X166454819Y-119178571D02*
X166454819Y-119083333D01*
X166454819Y-119083333D02*
X166502438Y-118940476D01*
X166502438Y-118940476D02*
X166550057Y-118892857D01*
X166550057Y-118511904D02*
X166502438Y-118464285D01*
X166502438Y-118464285D02*
X166454819Y-118369047D01*
X166454819Y-118369047D02*
X166454819Y-118130952D01*
X166454819Y-118130952D02*
X166502438Y-118035714D01*
X166502438Y-118035714D02*
X166550057Y-117988095D01*
X166550057Y-117988095D02*
X166645295Y-117940476D01*
X166645295Y-117940476D02*
X166740533Y-117940476D01*
X166740533Y-117940476D02*
X166883390Y-117988095D01*
X166883390Y-117988095D02*
X167454819Y-118559523D01*
X167454819Y-118559523D02*
X167454819Y-117940476D01*
X166454819Y-117035714D02*
X166454819Y-117511904D01*
X166454819Y-117511904D02*
X166931009Y-117559523D01*
X166931009Y-117559523D02*
X166883390Y-117511904D01*
X166883390Y-117511904D02*
X166835771Y-117416666D01*
X166835771Y-117416666D02*
X166835771Y-117178571D01*
X166835771Y-117178571D02*
X166883390Y-117083333D01*
X166883390Y-117083333D02*
X166931009Y-117035714D01*
X166931009Y-117035714D02*
X167026247Y-116988095D01*
X167026247Y-116988095D02*
X167264342Y-116988095D01*
X167264342Y-116988095D02*
X167359580Y-117035714D01*
X167359580Y-117035714D02*
X167407200Y-117083333D01*
X167407200Y-117083333D02*
X167454819Y-117178571D01*
X167454819Y-117178571D02*
X167454819Y-117416666D01*
X167454819Y-117416666D02*
X167407200Y-117511904D01*
X167407200Y-117511904D02*
X167359580Y-117559523D01*
X163024819Y-109166666D02*
X162548628Y-109499999D01*
X163024819Y-109738094D02*
X162024819Y-109738094D01*
X162024819Y-109738094D02*
X162024819Y-109357142D01*
X162024819Y-109357142D02*
X162072438Y-109261904D01*
X162072438Y-109261904D02*
X162120057Y-109214285D01*
X162120057Y-109214285D02*
X162215295Y-109166666D01*
X162215295Y-109166666D02*
X162358152Y-109166666D01*
X162358152Y-109166666D02*
X162453390Y-109214285D01*
X162453390Y-109214285D02*
X162501009Y-109261904D01*
X162501009Y-109261904D02*
X162548628Y-109357142D01*
X162548628Y-109357142D02*
X162548628Y-109738094D01*
X162453390Y-108595237D02*
X162405771Y-108690475D01*
X162405771Y-108690475D02*
X162358152Y-108738094D01*
X162358152Y-108738094D02*
X162262914Y-108785713D01*
X162262914Y-108785713D02*
X162215295Y-108785713D01*
X162215295Y-108785713D02*
X162120057Y-108738094D01*
X162120057Y-108738094D02*
X162072438Y-108690475D01*
X162072438Y-108690475D02*
X162024819Y-108595237D01*
X162024819Y-108595237D02*
X162024819Y-108404761D01*
X162024819Y-108404761D02*
X162072438Y-108309523D01*
X162072438Y-108309523D02*
X162120057Y-108261904D01*
X162120057Y-108261904D02*
X162215295Y-108214285D01*
X162215295Y-108214285D02*
X162262914Y-108214285D01*
X162262914Y-108214285D02*
X162358152Y-108261904D01*
X162358152Y-108261904D02*
X162405771Y-108309523D01*
X162405771Y-108309523D02*
X162453390Y-108404761D01*
X162453390Y-108404761D02*
X162453390Y-108595237D01*
X162453390Y-108595237D02*
X162501009Y-108690475D01*
X162501009Y-108690475D02*
X162548628Y-108738094D01*
X162548628Y-108738094D02*
X162643866Y-108785713D01*
X162643866Y-108785713D02*
X162834342Y-108785713D01*
X162834342Y-108785713D02*
X162929580Y-108738094D01*
X162929580Y-108738094D02*
X162977200Y-108690475D01*
X162977200Y-108690475D02*
X163024819Y-108595237D01*
X163024819Y-108595237D02*
X163024819Y-108404761D01*
X163024819Y-108404761D02*
X162977200Y-108309523D01*
X162977200Y-108309523D02*
X162929580Y-108261904D01*
X162929580Y-108261904D02*
X162834342Y-108214285D01*
X162834342Y-108214285D02*
X162643866Y-108214285D01*
X162643866Y-108214285D02*
X162548628Y-108261904D01*
X162548628Y-108261904D02*
X162501009Y-108309523D01*
X162501009Y-108309523D02*
X162453390Y-108404761D01*
X141454819Y-79166666D02*
X140978628Y-79499999D01*
X141454819Y-79738094D02*
X140454819Y-79738094D01*
X140454819Y-79738094D02*
X140454819Y-79357142D01*
X140454819Y-79357142D02*
X140502438Y-79261904D01*
X140502438Y-79261904D02*
X140550057Y-79214285D01*
X140550057Y-79214285D02*
X140645295Y-79166666D01*
X140645295Y-79166666D02*
X140788152Y-79166666D01*
X140788152Y-79166666D02*
X140883390Y-79214285D01*
X140883390Y-79214285D02*
X140931009Y-79261904D01*
X140931009Y-79261904D02*
X140978628Y-79357142D01*
X140978628Y-79357142D02*
X140978628Y-79738094D01*
X140788152Y-78309523D02*
X141454819Y-78309523D01*
X140407200Y-78547618D02*
X141121485Y-78785713D01*
X141121485Y-78785713D02*
X141121485Y-78166666D01*
X156954819Y-84467857D02*
X156478628Y-84801190D01*
X156954819Y-85039285D02*
X155954819Y-85039285D01*
X155954819Y-85039285D02*
X155954819Y-84658333D01*
X155954819Y-84658333D02*
X156002438Y-84563095D01*
X156002438Y-84563095D02*
X156050057Y-84515476D01*
X156050057Y-84515476D02*
X156145295Y-84467857D01*
X156145295Y-84467857D02*
X156288152Y-84467857D01*
X156288152Y-84467857D02*
X156383390Y-84515476D01*
X156383390Y-84515476D02*
X156431009Y-84563095D01*
X156431009Y-84563095D02*
X156478628Y-84658333D01*
X156478628Y-84658333D02*
X156478628Y-85039285D01*
X156954819Y-83515476D02*
X156954819Y-84086904D01*
X156954819Y-83801190D02*
X155954819Y-83801190D01*
X155954819Y-83801190D02*
X156097676Y-83896428D01*
X156097676Y-83896428D02*
X156192914Y-83991666D01*
X156192914Y-83991666D02*
X156240533Y-84086904D01*
X156954819Y-82563095D02*
X156954819Y-83134523D01*
X156954819Y-82848809D02*
X155954819Y-82848809D01*
X155954819Y-82848809D02*
X156097676Y-82944047D01*
X156097676Y-82944047D02*
X156192914Y-83039285D01*
X156192914Y-83039285D02*
X156240533Y-83134523D01*
X186929580Y-124867857D02*
X186977200Y-124915476D01*
X186977200Y-124915476D02*
X187024819Y-125058333D01*
X187024819Y-125058333D02*
X187024819Y-125153571D01*
X187024819Y-125153571D02*
X186977200Y-125296428D01*
X186977200Y-125296428D02*
X186881961Y-125391666D01*
X186881961Y-125391666D02*
X186786723Y-125439285D01*
X186786723Y-125439285D02*
X186596247Y-125486904D01*
X186596247Y-125486904D02*
X186453390Y-125486904D01*
X186453390Y-125486904D02*
X186262914Y-125439285D01*
X186262914Y-125439285D02*
X186167676Y-125391666D01*
X186167676Y-125391666D02*
X186072438Y-125296428D01*
X186072438Y-125296428D02*
X186024819Y-125153571D01*
X186024819Y-125153571D02*
X186024819Y-125058333D01*
X186024819Y-125058333D02*
X186072438Y-124915476D01*
X186072438Y-124915476D02*
X186120057Y-124867857D01*
X187024819Y-123915476D02*
X187024819Y-124486904D01*
X187024819Y-124201190D02*
X186024819Y-124201190D01*
X186024819Y-124201190D02*
X186167676Y-124296428D01*
X186167676Y-124296428D02*
X186262914Y-124391666D01*
X186262914Y-124391666D02*
X186310533Y-124486904D01*
X186024819Y-123010714D02*
X186024819Y-123486904D01*
X186024819Y-123486904D02*
X186501009Y-123534523D01*
X186501009Y-123534523D02*
X186453390Y-123486904D01*
X186453390Y-123486904D02*
X186405771Y-123391666D01*
X186405771Y-123391666D02*
X186405771Y-123153571D01*
X186405771Y-123153571D02*
X186453390Y-123058333D01*
X186453390Y-123058333D02*
X186501009Y-123010714D01*
X186501009Y-123010714D02*
X186596247Y-122963095D01*
X186596247Y-122963095D02*
X186834342Y-122963095D01*
X186834342Y-122963095D02*
X186929580Y-123010714D01*
X186929580Y-123010714D02*
X186977200Y-123058333D01*
X186977200Y-123058333D02*
X187024819Y-123153571D01*
X187024819Y-123153571D02*
X187024819Y-123391666D01*
X187024819Y-123391666D02*
X186977200Y-123486904D01*
X186977200Y-123486904D02*
X186929580Y-123534523D01*
X187238095Y-109029819D02*
X187238095Y-109839342D01*
X187238095Y-109839342D02*
X187285714Y-109934580D01*
X187285714Y-109934580D02*
X187333333Y-109982200D01*
X187333333Y-109982200D02*
X187428571Y-110029819D01*
X187428571Y-110029819D02*
X187619047Y-110029819D01*
X187619047Y-110029819D02*
X187714285Y-109982200D01*
X187714285Y-109982200D02*
X187761904Y-109934580D01*
X187761904Y-109934580D02*
X187809523Y-109839342D01*
X187809523Y-109839342D02*
X187809523Y-109029819D01*
X188190476Y-109029819D02*
X188857142Y-109029819D01*
X188857142Y-109029819D02*
X188428571Y-110029819D01*
X141359580Y-114642857D02*
X141407200Y-114690476D01*
X141407200Y-114690476D02*
X141454819Y-114833333D01*
X141454819Y-114833333D02*
X141454819Y-114928571D01*
X141454819Y-114928571D02*
X141407200Y-115071428D01*
X141407200Y-115071428D02*
X141311961Y-115166666D01*
X141311961Y-115166666D02*
X141216723Y-115214285D01*
X141216723Y-115214285D02*
X141026247Y-115261904D01*
X141026247Y-115261904D02*
X140883390Y-115261904D01*
X140883390Y-115261904D02*
X140692914Y-115214285D01*
X140692914Y-115214285D02*
X140597676Y-115166666D01*
X140597676Y-115166666D02*
X140502438Y-115071428D01*
X140502438Y-115071428D02*
X140454819Y-114928571D01*
X140454819Y-114928571D02*
X140454819Y-114833333D01*
X140454819Y-114833333D02*
X140502438Y-114690476D01*
X140502438Y-114690476D02*
X140550057Y-114642857D01*
X141454819Y-113690476D02*
X141454819Y-114261904D01*
X141454819Y-113976190D02*
X140454819Y-113976190D01*
X140454819Y-113976190D02*
X140597676Y-114071428D01*
X140597676Y-114071428D02*
X140692914Y-114166666D01*
X140692914Y-114166666D02*
X140740533Y-114261904D01*
X140454819Y-113357142D02*
X140454819Y-112738095D01*
X140454819Y-112738095D02*
X140835771Y-113071428D01*
X140835771Y-113071428D02*
X140835771Y-112928571D01*
X140835771Y-112928571D02*
X140883390Y-112833333D01*
X140883390Y-112833333D02*
X140931009Y-112785714D01*
X140931009Y-112785714D02*
X141026247Y-112738095D01*
X141026247Y-112738095D02*
X141264342Y-112738095D01*
X141264342Y-112738095D02*
X141359580Y-112785714D01*
X141359580Y-112785714D02*
X141407200Y-112833333D01*
X141407200Y-112833333D02*
X141454819Y-112928571D01*
X141454819Y-112928571D02*
X141454819Y-113214285D01*
X141454819Y-113214285D02*
X141407200Y-113309523D01*
X141407200Y-113309523D02*
X141359580Y-113357142D01*
X167954819Y-94166666D02*
X167478628Y-94499999D01*
X167954819Y-94738094D02*
X166954819Y-94738094D01*
X166954819Y-94738094D02*
X166954819Y-94357142D01*
X166954819Y-94357142D02*
X167002438Y-94261904D01*
X167002438Y-94261904D02*
X167050057Y-94214285D01*
X167050057Y-94214285D02*
X167145295Y-94166666D01*
X167145295Y-94166666D02*
X167288152Y-94166666D01*
X167288152Y-94166666D02*
X167383390Y-94214285D01*
X167383390Y-94214285D02*
X167431009Y-94261904D01*
X167431009Y-94261904D02*
X167478628Y-94357142D01*
X167478628Y-94357142D02*
X167478628Y-94738094D01*
X167050057Y-93785713D02*
X167002438Y-93738094D01*
X167002438Y-93738094D02*
X166954819Y-93642856D01*
X166954819Y-93642856D02*
X166954819Y-93404761D01*
X166954819Y-93404761D02*
X167002438Y-93309523D01*
X167002438Y-93309523D02*
X167050057Y-93261904D01*
X167050057Y-93261904D02*
X167145295Y-93214285D01*
X167145295Y-93214285D02*
X167240533Y-93214285D01*
X167240533Y-93214285D02*
X167383390Y-93261904D01*
X167383390Y-93261904D02*
X167954819Y-93833332D01*
X167954819Y-93833332D02*
X167954819Y-93214285D01*
X170834819Y-77333333D02*
X171549104Y-77333333D01*
X171549104Y-77333333D02*
X171691961Y-77380952D01*
X171691961Y-77380952D02*
X171787200Y-77476190D01*
X171787200Y-77476190D02*
X171834819Y-77619047D01*
X171834819Y-77619047D02*
X171834819Y-77714285D01*
X171168152Y-76428571D02*
X171834819Y-76428571D01*
X170787200Y-76666666D02*
X171501485Y-76904761D01*
X171501485Y-76904761D02*
X171501485Y-76285714D01*
X143929580Y-123417857D02*
X143977200Y-123465476D01*
X143977200Y-123465476D02*
X144024819Y-123608333D01*
X144024819Y-123608333D02*
X144024819Y-123703571D01*
X144024819Y-123703571D02*
X143977200Y-123846428D01*
X143977200Y-123846428D02*
X143881961Y-123941666D01*
X143881961Y-123941666D02*
X143786723Y-123989285D01*
X143786723Y-123989285D02*
X143596247Y-124036904D01*
X143596247Y-124036904D02*
X143453390Y-124036904D01*
X143453390Y-124036904D02*
X143262914Y-123989285D01*
X143262914Y-123989285D02*
X143167676Y-123941666D01*
X143167676Y-123941666D02*
X143072438Y-123846428D01*
X143072438Y-123846428D02*
X143024819Y-123703571D01*
X143024819Y-123703571D02*
X143024819Y-123608333D01*
X143024819Y-123608333D02*
X143072438Y-123465476D01*
X143072438Y-123465476D02*
X143120057Y-123417857D01*
X143120057Y-123036904D02*
X143072438Y-122989285D01*
X143072438Y-122989285D02*
X143024819Y-122894047D01*
X143024819Y-122894047D02*
X143024819Y-122655952D01*
X143024819Y-122655952D02*
X143072438Y-122560714D01*
X143072438Y-122560714D02*
X143120057Y-122513095D01*
X143120057Y-122513095D02*
X143215295Y-122465476D01*
X143215295Y-122465476D02*
X143310533Y-122465476D01*
X143310533Y-122465476D02*
X143453390Y-122513095D01*
X143453390Y-122513095D02*
X144024819Y-123084523D01*
X144024819Y-123084523D02*
X144024819Y-122465476D01*
X143024819Y-121608333D02*
X143024819Y-121798809D01*
X143024819Y-121798809D02*
X143072438Y-121894047D01*
X143072438Y-121894047D02*
X143120057Y-121941666D01*
X143120057Y-121941666D02*
X143262914Y-122036904D01*
X143262914Y-122036904D02*
X143453390Y-122084523D01*
X143453390Y-122084523D02*
X143834342Y-122084523D01*
X143834342Y-122084523D02*
X143929580Y-122036904D01*
X143929580Y-122036904D02*
X143977200Y-121989285D01*
X143977200Y-121989285D02*
X144024819Y-121894047D01*
X144024819Y-121894047D02*
X144024819Y-121703571D01*
X144024819Y-121703571D02*
X143977200Y-121608333D01*
X143977200Y-121608333D02*
X143929580Y-121560714D01*
X143929580Y-121560714D02*
X143834342Y-121513095D01*
X143834342Y-121513095D02*
X143596247Y-121513095D01*
X143596247Y-121513095D02*
X143501009Y-121560714D01*
X143501009Y-121560714D02*
X143453390Y-121608333D01*
X143453390Y-121608333D02*
X143405771Y-121703571D01*
X143405771Y-121703571D02*
X143405771Y-121894047D01*
X143405771Y-121894047D02*
X143453390Y-121989285D01*
X143453390Y-121989285D02*
X143501009Y-122036904D01*
X143501009Y-122036904D02*
X143596247Y-122084523D01*
X133704819Y-119361904D02*
X134514342Y-119361904D01*
X134514342Y-119361904D02*
X134609580Y-119314285D01*
X134609580Y-119314285D02*
X134657200Y-119266666D01*
X134657200Y-119266666D02*
X134704819Y-119171428D01*
X134704819Y-119171428D02*
X134704819Y-118980952D01*
X134704819Y-118980952D02*
X134657200Y-118885714D01*
X134657200Y-118885714D02*
X134609580Y-118838095D01*
X134609580Y-118838095D02*
X134514342Y-118790476D01*
X134514342Y-118790476D02*
X133704819Y-118790476D01*
X133704819Y-117838095D02*
X133704819Y-118314285D01*
X133704819Y-118314285D02*
X134181009Y-118361904D01*
X134181009Y-118361904D02*
X134133390Y-118314285D01*
X134133390Y-118314285D02*
X134085771Y-118219047D01*
X134085771Y-118219047D02*
X134085771Y-117980952D01*
X134085771Y-117980952D02*
X134133390Y-117885714D01*
X134133390Y-117885714D02*
X134181009Y-117838095D01*
X134181009Y-117838095D02*
X134276247Y-117790476D01*
X134276247Y-117790476D02*
X134514342Y-117790476D01*
X134514342Y-117790476D02*
X134609580Y-117838095D01*
X134609580Y-117838095D02*
X134657200Y-117885714D01*
X134657200Y-117885714D02*
X134704819Y-117980952D01*
X134704819Y-117980952D02*
X134704819Y-118219047D01*
X134704819Y-118219047D02*
X134657200Y-118314285D01*
X134657200Y-118314285D02*
X134609580Y-118361904D01*
X152357142Y-125359580D02*
X152309523Y-125407200D01*
X152309523Y-125407200D02*
X152166666Y-125454819D01*
X152166666Y-125454819D02*
X152071428Y-125454819D01*
X152071428Y-125454819D02*
X151928571Y-125407200D01*
X151928571Y-125407200D02*
X151833333Y-125311961D01*
X151833333Y-125311961D02*
X151785714Y-125216723D01*
X151785714Y-125216723D02*
X151738095Y-125026247D01*
X151738095Y-125026247D02*
X151738095Y-124883390D01*
X151738095Y-124883390D02*
X151785714Y-124692914D01*
X151785714Y-124692914D02*
X151833333Y-124597676D01*
X151833333Y-124597676D02*
X151928571Y-124502438D01*
X151928571Y-124502438D02*
X152071428Y-124454819D01*
X152071428Y-124454819D02*
X152166666Y-124454819D01*
X152166666Y-124454819D02*
X152309523Y-124502438D01*
X152309523Y-124502438D02*
X152357142Y-124550057D01*
X153309523Y-125454819D02*
X152738095Y-125454819D01*
X153023809Y-125454819D02*
X153023809Y-124454819D01*
X153023809Y-124454819D02*
X152928571Y-124597676D01*
X152928571Y-124597676D02*
X152833333Y-124692914D01*
X152833333Y-124692914D02*
X152738095Y-124740533D01*
X154166666Y-124454819D02*
X153976190Y-124454819D01*
X153976190Y-124454819D02*
X153880952Y-124502438D01*
X153880952Y-124502438D02*
X153833333Y-124550057D01*
X153833333Y-124550057D02*
X153738095Y-124692914D01*
X153738095Y-124692914D02*
X153690476Y-124883390D01*
X153690476Y-124883390D02*
X153690476Y-125264342D01*
X153690476Y-125264342D02*
X153738095Y-125359580D01*
X153738095Y-125359580D02*
X153785714Y-125407200D01*
X153785714Y-125407200D02*
X153880952Y-125454819D01*
X153880952Y-125454819D02*
X154071428Y-125454819D01*
X154071428Y-125454819D02*
X154166666Y-125407200D01*
X154166666Y-125407200D02*
X154214285Y-125359580D01*
X154214285Y-125359580D02*
X154261904Y-125264342D01*
X154261904Y-125264342D02*
X154261904Y-125026247D01*
X154261904Y-125026247D02*
X154214285Y-124931009D01*
X154214285Y-124931009D02*
X154166666Y-124883390D01*
X154166666Y-124883390D02*
X154071428Y-124835771D01*
X154071428Y-124835771D02*
X153880952Y-124835771D01*
X153880952Y-124835771D02*
X153785714Y-124883390D01*
X153785714Y-124883390D02*
X153738095Y-124931009D01*
X153738095Y-124931009D02*
X153690476Y-125026247D01*
X170786667Y-90457200D02*
X170929524Y-90504819D01*
X170929524Y-90504819D02*
X171167619Y-90504819D01*
X171167619Y-90504819D02*
X171262857Y-90457200D01*
X171262857Y-90457200D02*
X171310476Y-90409580D01*
X171310476Y-90409580D02*
X171358095Y-90314342D01*
X171358095Y-90314342D02*
X171358095Y-90219104D01*
X171358095Y-90219104D02*
X171310476Y-90123866D01*
X171310476Y-90123866D02*
X171262857Y-90076247D01*
X171262857Y-90076247D02*
X171167619Y-90028628D01*
X171167619Y-90028628D02*
X170977143Y-89981009D01*
X170977143Y-89981009D02*
X170881905Y-89933390D01*
X170881905Y-89933390D02*
X170834286Y-89885771D01*
X170834286Y-89885771D02*
X170786667Y-89790533D01*
X170786667Y-89790533D02*
X170786667Y-89695295D01*
X170786667Y-89695295D02*
X170834286Y-89600057D01*
X170834286Y-89600057D02*
X170881905Y-89552438D01*
X170881905Y-89552438D02*
X170977143Y-89504819D01*
X170977143Y-89504819D02*
X171215238Y-89504819D01*
X171215238Y-89504819D02*
X171358095Y-89552438D01*
X171691429Y-89504819D02*
X171929524Y-90504819D01*
X171929524Y-90504819D02*
X172120000Y-89790533D01*
X172120000Y-89790533D02*
X172310476Y-90504819D01*
X172310476Y-90504819D02*
X172548572Y-89504819D01*
X173453333Y-90504819D02*
X172881905Y-90504819D01*
X173167619Y-90504819D02*
X173167619Y-89504819D01*
X173167619Y-89504819D02*
X173072381Y-89647676D01*
X173072381Y-89647676D02*
X172977143Y-89742914D01*
X172977143Y-89742914D02*
X172881905Y-89790533D01*
X137517142Y-114359580D02*
X137469523Y-114407200D01*
X137469523Y-114407200D02*
X137326666Y-114454819D01*
X137326666Y-114454819D02*
X137231428Y-114454819D01*
X137231428Y-114454819D02*
X137088571Y-114407200D01*
X137088571Y-114407200D02*
X136993333Y-114311961D01*
X136993333Y-114311961D02*
X136945714Y-114216723D01*
X136945714Y-114216723D02*
X136898095Y-114026247D01*
X136898095Y-114026247D02*
X136898095Y-113883390D01*
X136898095Y-113883390D02*
X136945714Y-113692914D01*
X136945714Y-113692914D02*
X136993333Y-113597676D01*
X136993333Y-113597676D02*
X137088571Y-113502438D01*
X137088571Y-113502438D02*
X137231428Y-113454819D01*
X137231428Y-113454819D02*
X137326666Y-113454819D01*
X137326666Y-113454819D02*
X137469523Y-113502438D01*
X137469523Y-113502438D02*
X137517142Y-113550057D01*
X138469523Y-114454819D02*
X137898095Y-114454819D01*
X138183809Y-114454819D02*
X138183809Y-113454819D01*
X138183809Y-113454819D02*
X138088571Y-113597676D01*
X138088571Y-113597676D02*
X137993333Y-113692914D01*
X137993333Y-113692914D02*
X137898095Y-113740533D01*
X138850476Y-113550057D02*
X138898095Y-113502438D01*
X138898095Y-113502438D02*
X138993333Y-113454819D01*
X138993333Y-113454819D02*
X139231428Y-113454819D01*
X139231428Y-113454819D02*
X139326666Y-113502438D01*
X139326666Y-113502438D02*
X139374285Y-113550057D01*
X139374285Y-113550057D02*
X139421904Y-113645295D01*
X139421904Y-113645295D02*
X139421904Y-113740533D01*
X139421904Y-113740533D02*
X139374285Y-113883390D01*
X139374285Y-113883390D02*
X138802857Y-114454819D01*
X138802857Y-114454819D02*
X139421904Y-114454819D01*
X157674405Y-134024819D02*
X157674405Y-133024819D01*
X157674405Y-133024819D02*
X157912500Y-133024819D01*
X157912500Y-133024819D02*
X158055357Y-133072438D01*
X158055357Y-133072438D02*
X158150595Y-133167676D01*
X158150595Y-133167676D02*
X158198214Y-133262914D01*
X158198214Y-133262914D02*
X158245833Y-133453390D01*
X158245833Y-133453390D02*
X158245833Y-133596247D01*
X158245833Y-133596247D02*
X158198214Y-133786723D01*
X158198214Y-133786723D02*
X158150595Y-133881961D01*
X158150595Y-133881961D02*
X158055357Y-133977200D01*
X158055357Y-133977200D02*
X157912500Y-134024819D01*
X157912500Y-134024819D02*
X157674405Y-134024819D01*
X158817262Y-133453390D02*
X158722024Y-133405771D01*
X158722024Y-133405771D02*
X158674405Y-133358152D01*
X158674405Y-133358152D02*
X158626786Y-133262914D01*
X158626786Y-133262914D02*
X158626786Y-133215295D01*
X158626786Y-133215295D02*
X158674405Y-133120057D01*
X158674405Y-133120057D02*
X158722024Y-133072438D01*
X158722024Y-133072438D02*
X158817262Y-133024819D01*
X158817262Y-133024819D02*
X159007738Y-133024819D01*
X159007738Y-133024819D02*
X159102976Y-133072438D01*
X159102976Y-133072438D02*
X159150595Y-133120057D01*
X159150595Y-133120057D02*
X159198214Y-133215295D01*
X159198214Y-133215295D02*
X159198214Y-133262914D01*
X159198214Y-133262914D02*
X159150595Y-133358152D01*
X159150595Y-133358152D02*
X159102976Y-133405771D01*
X159102976Y-133405771D02*
X159007738Y-133453390D01*
X159007738Y-133453390D02*
X158817262Y-133453390D01*
X158817262Y-133453390D02*
X158722024Y-133501009D01*
X158722024Y-133501009D02*
X158674405Y-133548628D01*
X158674405Y-133548628D02*
X158626786Y-133643866D01*
X158626786Y-133643866D02*
X158626786Y-133834342D01*
X158626786Y-133834342D02*
X158674405Y-133929580D01*
X158674405Y-133929580D02*
X158722024Y-133977200D01*
X158722024Y-133977200D02*
X158817262Y-134024819D01*
X158817262Y-134024819D02*
X159007738Y-134024819D01*
X159007738Y-134024819D02*
X159102976Y-133977200D01*
X159102976Y-133977200D02*
X159150595Y-133929580D01*
X159150595Y-133929580D02*
X159198214Y-133834342D01*
X159198214Y-133834342D02*
X159198214Y-133643866D01*
X159198214Y-133643866D02*
X159150595Y-133548628D01*
X159150595Y-133548628D02*
X159102976Y-133501009D01*
X159102976Y-133501009D02*
X159007738Y-133453390D01*
X160582142Y-123954580D02*
X160534523Y-124002200D01*
X160534523Y-124002200D02*
X160391666Y-124049819D01*
X160391666Y-124049819D02*
X160296428Y-124049819D01*
X160296428Y-124049819D02*
X160153571Y-124002200D01*
X160153571Y-124002200D02*
X160058333Y-123906961D01*
X160058333Y-123906961D02*
X160010714Y-123811723D01*
X160010714Y-123811723D02*
X159963095Y-123621247D01*
X159963095Y-123621247D02*
X159963095Y-123478390D01*
X159963095Y-123478390D02*
X160010714Y-123287914D01*
X160010714Y-123287914D02*
X160058333Y-123192676D01*
X160058333Y-123192676D02*
X160153571Y-123097438D01*
X160153571Y-123097438D02*
X160296428Y-123049819D01*
X160296428Y-123049819D02*
X160391666Y-123049819D01*
X160391666Y-123049819D02*
X160534523Y-123097438D01*
X160534523Y-123097438D02*
X160582142Y-123145057D01*
X160963095Y-123145057D02*
X161010714Y-123097438D01*
X161010714Y-123097438D02*
X161105952Y-123049819D01*
X161105952Y-123049819D02*
X161344047Y-123049819D01*
X161344047Y-123049819D02*
X161439285Y-123097438D01*
X161439285Y-123097438D02*
X161486904Y-123145057D01*
X161486904Y-123145057D02*
X161534523Y-123240295D01*
X161534523Y-123240295D02*
X161534523Y-123335533D01*
X161534523Y-123335533D02*
X161486904Y-123478390D01*
X161486904Y-123478390D02*
X160915476Y-124049819D01*
X160915476Y-124049819D02*
X161534523Y-124049819D01*
X162391666Y-123383152D02*
X162391666Y-124049819D01*
X162153571Y-123002200D02*
X161915476Y-123716485D01*
X161915476Y-123716485D02*
X162534523Y-123716485D01*
X158608333Y-82859580D02*
X158560714Y-82907200D01*
X158560714Y-82907200D02*
X158417857Y-82954819D01*
X158417857Y-82954819D02*
X158322619Y-82954819D01*
X158322619Y-82954819D02*
X158179762Y-82907200D01*
X158179762Y-82907200D02*
X158084524Y-82811961D01*
X158084524Y-82811961D02*
X158036905Y-82716723D01*
X158036905Y-82716723D02*
X157989286Y-82526247D01*
X157989286Y-82526247D02*
X157989286Y-82383390D01*
X157989286Y-82383390D02*
X158036905Y-82192914D01*
X158036905Y-82192914D02*
X158084524Y-82097676D01*
X158084524Y-82097676D02*
X158179762Y-82002438D01*
X158179762Y-82002438D02*
X158322619Y-81954819D01*
X158322619Y-81954819D02*
X158417857Y-81954819D01*
X158417857Y-81954819D02*
X158560714Y-82002438D01*
X158560714Y-82002438D02*
X158608333Y-82050057D01*
X159560714Y-82954819D02*
X158989286Y-82954819D01*
X159275000Y-82954819D02*
X159275000Y-81954819D01*
X159275000Y-81954819D02*
X159179762Y-82097676D01*
X159179762Y-82097676D02*
X159084524Y-82192914D01*
X159084524Y-82192914D02*
X158989286Y-82240533D01*
X145359580Y-114642857D02*
X145407200Y-114690476D01*
X145407200Y-114690476D02*
X145454819Y-114833333D01*
X145454819Y-114833333D02*
X145454819Y-114928571D01*
X145454819Y-114928571D02*
X145407200Y-115071428D01*
X145407200Y-115071428D02*
X145311961Y-115166666D01*
X145311961Y-115166666D02*
X145216723Y-115214285D01*
X145216723Y-115214285D02*
X145026247Y-115261904D01*
X145026247Y-115261904D02*
X144883390Y-115261904D01*
X144883390Y-115261904D02*
X144692914Y-115214285D01*
X144692914Y-115214285D02*
X144597676Y-115166666D01*
X144597676Y-115166666D02*
X144502438Y-115071428D01*
X144502438Y-115071428D02*
X144454819Y-114928571D01*
X144454819Y-114928571D02*
X144454819Y-114833333D01*
X144454819Y-114833333D02*
X144502438Y-114690476D01*
X144502438Y-114690476D02*
X144550057Y-114642857D01*
X145454819Y-113690476D02*
X145454819Y-114261904D01*
X145454819Y-113976190D02*
X144454819Y-113976190D01*
X144454819Y-113976190D02*
X144597676Y-114071428D01*
X144597676Y-114071428D02*
X144692914Y-114166666D01*
X144692914Y-114166666D02*
X144740533Y-114261904D01*
X145454819Y-113214285D02*
X145454819Y-113023809D01*
X145454819Y-113023809D02*
X145407200Y-112928571D01*
X145407200Y-112928571D02*
X145359580Y-112880952D01*
X145359580Y-112880952D02*
X145216723Y-112785714D01*
X145216723Y-112785714D02*
X145026247Y-112738095D01*
X145026247Y-112738095D02*
X144645295Y-112738095D01*
X144645295Y-112738095D02*
X144550057Y-112785714D01*
X144550057Y-112785714D02*
X144502438Y-112833333D01*
X144502438Y-112833333D02*
X144454819Y-112928571D01*
X144454819Y-112928571D02*
X144454819Y-113119047D01*
X144454819Y-113119047D02*
X144502438Y-113214285D01*
X144502438Y-113214285D02*
X144550057Y-113261904D01*
X144550057Y-113261904D02*
X144645295Y-113309523D01*
X144645295Y-113309523D02*
X144883390Y-113309523D01*
X144883390Y-113309523D02*
X144978628Y-113261904D01*
X144978628Y-113261904D02*
X145026247Y-113214285D01*
X145026247Y-113214285D02*
X145073866Y-113119047D01*
X145073866Y-113119047D02*
X145073866Y-112928571D01*
X145073866Y-112928571D02*
X145026247Y-112833333D01*
X145026247Y-112833333D02*
X144978628Y-112785714D01*
X144978628Y-112785714D02*
X144883390Y-112738095D01*
X193359580Y-108642857D02*
X193407200Y-108690476D01*
X193407200Y-108690476D02*
X193454819Y-108833333D01*
X193454819Y-108833333D02*
X193454819Y-108928571D01*
X193454819Y-108928571D02*
X193407200Y-109071428D01*
X193407200Y-109071428D02*
X193311961Y-109166666D01*
X193311961Y-109166666D02*
X193216723Y-109214285D01*
X193216723Y-109214285D02*
X193026247Y-109261904D01*
X193026247Y-109261904D02*
X192883390Y-109261904D01*
X192883390Y-109261904D02*
X192692914Y-109214285D01*
X192692914Y-109214285D02*
X192597676Y-109166666D01*
X192597676Y-109166666D02*
X192502438Y-109071428D01*
X192502438Y-109071428D02*
X192454819Y-108928571D01*
X192454819Y-108928571D02*
X192454819Y-108833333D01*
X192454819Y-108833333D02*
X192502438Y-108690476D01*
X192502438Y-108690476D02*
X192550057Y-108642857D01*
X193454819Y-107690476D02*
X193454819Y-108261904D01*
X193454819Y-107976190D02*
X192454819Y-107976190D01*
X192454819Y-107976190D02*
X192597676Y-108071428D01*
X192597676Y-108071428D02*
X192692914Y-108166666D01*
X192692914Y-108166666D02*
X192740533Y-108261904D01*
X192454819Y-107357142D02*
X192454819Y-106690476D01*
X192454819Y-106690476D02*
X193454819Y-107119047D01*
X178058333Y-102359580D02*
X178010714Y-102407200D01*
X178010714Y-102407200D02*
X177867857Y-102454819D01*
X177867857Y-102454819D02*
X177772619Y-102454819D01*
X177772619Y-102454819D02*
X177629762Y-102407200D01*
X177629762Y-102407200D02*
X177534524Y-102311961D01*
X177534524Y-102311961D02*
X177486905Y-102216723D01*
X177486905Y-102216723D02*
X177439286Y-102026247D01*
X177439286Y-102026247D02*
X177439286Y-101883390D01*
X177439286Y-101883390D02*
X177486905Y-101692914D01*
X177486905Y-101692914D02*
X177534524Y-101597676D01*
X177534524Y-101597676D02*
X177629762Y-101502438D01*
X177629762Y-101502438D02*
X177772619Y-101454819D01*
X177772619Y-101454819D02*
X177867857Y-101454819D01*
X177867857Y-101454819D02*
X178010714Y-101502438D01*
X178010714Y-101502438D02*
X178058333Y-101550057D01*
X178629762Y-101883390D02*
X178534524Y-101835771D01*
X178534524Y-101835771D02*
X178486905Y-101788152D01*
X178486905Y-101788152D02*
X178439286Y-101692914D01*
X178439286Y-101692914D02*
X178439286Y-101645295D01*
X178439286Y-101645295D02*
X178486905Y-101550057D01*
X178486905Y-101550057D02*
X178534524Y-101502438D01*
X178534524Y-101502438D02*
X178629762Y-101454819D01*
X178629762Y-101454819D02*
X178820238Y-101454819D01*
X178820238Y-101454819D02*
X178915476Y-101502438D01*
X178915476Y-101502438D02*
X178963095Y-101550057D01*
X178963095Y-101550057D02*
X179010714Y-101645295D01*
X179010714Y-101645295D02*
X179010714Y-101692914D01*
X179010714Y-101692914D02*
X178963095Y-101788152D01*
X178963095Y-101788152D02*
X178915476Y-101835771D01*
X178915476Y-101835771D02*
X178820238Y-101883390D01*
X178820238Y-101883390D02*
X178629762Y-101883390D01*
X178629762Y-101883390D02*
X178534524Y-101931009D01*
X178534524Y-101931009D02*
X178486905Y-101978628D01*
X178486905Y-101978628D02*
X178439286Y-102073866D01*
X178439286Y-102073866D02*
X178439286Y-102264342D01*
X178439286Y-102264342D02*
X178486905Y-102359580D01*
X178486905Y-102359580D02*
X178534524Y-102407200D01*
X178534524Y-102407200D02*
X178629762Y-102454819D01*
X178629762Y-102454819D02*
X178820238Y-102454819D01*
X178820238Y-102454819D02*
X178915476Y-102407200D01*
X178915476Y-102407200D02*
X178963095Y-102359580D01*
X178963095Y-102359580D02*
X179010714Y-102264342D01*
X179010714Y-102264342D02*
X179010714Y-102073866D01*
X179010714Y-102073866D02*
X178963095Y-101978628D01*
X178963095Y-101978628D02*
X178915476Y-101931009D01*
X178915476Y-101931009D02*
X178820238Y-101883390D01*
X182357142Y-108789580D02*
X182309523Y-108837200D01*
X182309523Y-108837200D02*
X182166666Y-108884819D01*
X182166666Y-108884819D02*
X182071428Y-108884819D01*
X182071428Y-108884819D02*
X181928571Y-108837200D01*
X181928571Y-108837200D02*
X181833333Y-108741961D01*
X181833333Y-108741961D02*
X181785714Y-108646723D01*
X181785714Y-108646723D02*
X181738095Y-108456247D01*
X181738095Y-108456247D02*
X181738095Y-108313390D01*
X181738095Y-108313390D02*
X181785714Y-108122914D01*
X181785714Y-108122914D02*
X181833333Y-108027676D01*
X181833333Y-108027676D02*
X181928571Y-107932438D01*
X181928571Y-107932438D02*
X182071428Y-107884819D01*
X182071428Y-107884819D02*
X182166666Y-107884819D01*
X182166666Y-107884819D02*
X182309523Y-107932438D01*
X182309523Y-107932438D02*
X182357142Y-107980057D01*
X183309523Y-108884819D02*
X182738095Y-108884819D01*
X183023809Y-108884819D02*
X183023809Y-107884819D01*
X183023809Y-107884819D02*
X182928571Y-108027676D01*
X182928571Y-108027676D02*
X182833333Y-108122914D01*
X182833333Y-108122914D02*
X182738095Y-108170533D01*
X184166666Y-108218152D02*
X184166666Y-108884819D01*
X183928571Y-107837200D02*
X183690476Y-108551485D01*
X183690476Y-108551485D02*
X184309523Y-108551485D01*
X186738095Y-76454819D02*
X186738095Y-75454819D01*
X186738095Y-75931009D02*
X187309523Y-75931009D01*
X187309523Y-76454819D02*
X187309523Y-75454819D01*
X187690476Y-75454819D02*
X188309523Y-75454819D01*
X188309523Y-75454819D02*
X187976190Y-75835771D01*
X187976190Y-75835771D02*
X188119047Y-75835771D01*
X188119047Y-75835771D02*
X188214285Y-75883390D01*
X188214285Y-75883390D02*
X188261904Y-75931009D01*
X188261904Y-75931009D02*
X188309523Y-76026247D01*
X188309523Y-76026247D02*
X188309523Y-76264342D01*
X188309523Y-76264342D02*
X188261904Y-76359580D01*
X188261904Y-76359580D02*
X188214285Y-76407200D01*
X188214285Y-76407200D02*
X188119047Y-76454819D01*
X188119047Y-76454819D02*
X187833333Y-76454819D01*
X187833333Y-76454819D02*
X187738095Y-76407200D01*
X187738095Y-76407200D02*
X187690476Y-76359580D01*
X138608995Y-129545180D02*
X138608995Y-128735657D01*
X138608995Y-128735657D02*
X138561376Y-128640419D01*
X138561376Y-128640419D02*
X138513757Y-128592800D01*
X138513757Y-128592800D02*
X138418519Y-128545180D01*
X138418519Y-128545180D02*
X138228043Y-128545180D01*
X138228043Y-128545180D02*
X138132805Y-128592800D01*
X138132805Y-128592800D02*
X138085186Y-128640419D01*
X138085186Y-128640419D02*
X138037567Y-128735657D01*
X138037567Y-128735657D02*
X138037567Y-129545180D01*
X137037567Y-128545180D02*
X137608995Y-128545180D01*
X137323281Y-128545180D02*
X137323281Y-129545180D01*
X137323281Y-129545180D02*
X137418519Y-129402323D01*
X137418519Y-129402323D02*
X137513757Y-129307085D01*
X137513757Y-129307085D02*
X137608995Y-129259466D01*
X136656614Y-129449942D02*
X136608995Y-129497561D01*
X136608995Y-129497561D02*
X136513757Y-129545180D01*
X136513757Y-129545180D02*
X136275662Y-129545180D01*
X136275662Y-129545180D02*
X136180424Y-129497561D01*
X136180424Y-129497561D02*
X136132805Y-129449942D01*
X136132805Y-129449942D02*
X136085186Y-129354704D01*
X136085186Y-129354704D02*
X136085186Y-129259466D01*
X136085186Y-129259466D02*
X136132805Y-129116609D01*
X136132805Y-129116609D02*
X136704233Y-128545180D01*
X136704233Y-128545180D02*
X136085186Y-128545180D01*
X139935700Y-127945179D02*
X139935700Y-127707084D01*
X140173795Y-127802322D02*
X139935700Y-127707084D01*
X139935700Y-127707084D02*
X139697605Y-127802322D01*
X140078557Y-127516608D02*
X139935700Y-127707084D01*
X139935700Y-127707084D02*
X139792843Y-127516608D01*
X139935701Y-126854818D02*
X139935701Y-127092913D01*
X139697606Y-126997675D02*
X139935701Y-127092913D01*
X139935701Y-127092913D02*
X140173796Y-126997675D01*
X139792844Y-127283389D02*
X139935701Y-127092913D01*
X139935701Y-127092913D02*
X140078558Y-127283389D01*
X163884819Y-83991666D02*
X163408628Y-84324999D01*
X163884819Y-84563094D02*
X162884819Y-84563094D01*
X162884819Y-84563094D02*
X162884819Y-84182142D01*
X162884819Y-84182142D02*
X162932438Y-84086904D01*
X162932438Y-84086904D02*
X162980057Y-84039285D01*
X162980057Y-84039285D02*
X163075295Y-83991666D01*
X163075295Y-83991666D02*
X163218152Y-83991666D01*
X163218152Y-83991666D02*
X163313390Y-84039285D01*
X163313390Y-84039285D02*
X163361009Y-84086904D01*
X163361009Y-84086904D02*
X163408628Y-84182142D01*
X163408628Y-84182142D02*
X163408628Y-84563094D01*
X163884819Y-83039285D02*
X163884819Y-83610713D01*
X163884819Y-83324999D02*
X162884819Y-83324999D01*
X162884819Y-83324999D02*
X163027676Y-83420237D01*
X163027676Y-83420237D02*
X163122914Y-83515475D01*
X163122914Y-83515475D02*
X163170533Y-83610713D01*
D13*
%TO.C,U3*%
X136025000Y-104425000D02*
X136525000Y-104425000D01*
X136025000Y-104925000D02*
X136025000Y-104425000D01*
X136025000Y-107425000D02*
X136025000Y-106675000D01*
X140725000Y-104425000D02*
X141225000Y-104425000D01*
X141225000Y-104425000D02*
X141225000Y-104925000D01*
X141225000Y-107225000D02*
X141225000Y-107725000D01*
X141225000Y-107725000D02*
X140725000Y-107725000D01*
X136025000Y-107985000D02*
X135665000Y-107625000D01*
X136025000Y-107625000D01*
X136025000Y-107985000D01*
G36*
X136025000Y-107985000D02*
G01*
X135665000Y-107625000D01*
X136025000Y-107625000D01*
X136025000Y-107985000D01*
G37*
%TO.C,R9*%
X184477500Y-124412258D02*
X184477500Y-123937742D01*
X185522500Y-124412258D02*
X185522500Y-123937742D01*
%TO.C,R3*%
X165477500Y-99062258D02*
X165477500Y-98587742D01*
X166522500Y-99062258D02*
X166522500Y-98587742D01*
%TO.C,D2*%
X157265000Y-112200000D02*
X157265000Y-114660000D01*
X157265000Y-114660000D02*
X158735000Y-114660000D01*
X158735000Y-114660000D02*
X158735000Y-112200000D01*
%TO.C,C4*%
X185490000Y-90915580D02*
X185490000Y-90634420D01*
X186510000Y-90915580D02*
X186510000Y-90634420D01*
%TO.C,R5*%
X142432500Y-86187742D02*
X142432500Y-86662258D01*
X143477500Y-86187742D02*
X143477500Y-86662258D01*
%TO.C,D4*%
X163265000Y-112200000D02*
X163265000Y-114660000D01*
X163265000Y-114660000D02*
X164735000Y-114660000D01*
X164735000Y-114660000D02*
X164735000Y-112200000D01*
%TO.C,U9*%
X179800000Y-122390000D02*
X178300000Y-122390000D01*
X179800000Y-122390000D02*
X181300000Y-122390000D01*
X179800000Y-125610000D02*
X178300000Y-125610000D01*
X179800000Y-125610000D02*
X181300000Y-125610000D01*
X177587500Y-122590000D02*
X177347500Y-122260000D01*
X177827500Y-122260000D01*
X177587500Y-122590000D01*
G36*
X177587500Y-122590000D02*
G01*
X177347500Y-122260000D01*
X177827500Y-122260000D01*
X177587500Y-122590000D01*
G37*
%TO.C,J8*%
X148620000Y-75580000D02*
X150000000Y-75580000D01*
X148620000Y-76960000D02*
X148620000Y-75580000D01*
X148620000Y-78230000D02*
X148620000Y-85960000D01*
X148620000Y-78230000D02*
X151380000Y-78230000D01*
X148620000Y-85960000D02*
X151380000Y-85960000D01*
X151380000Y-78230000D02*
X151380000Y-85960000D01*
%TO.C,D7*%
X139200000Y-92735000D02*
X141485000Y-92735000D01*
X141485000Y-91265000D02*
X139200000Y-91265000D01*
X141485000Y-92735000D02*
X141485000Y-91265000D01*
%TO.C,R6*%
X157477500Y-109237258D02*
X157477500Y-108762742D01*
X158522500Y-109237258D02*
X158522500Y-108762742D01*
%TO.C,F1*%
X135162779Y-91490000D02*
X134837221Y-91490000D01*
X135162779Y-92510000D02*
X134837221Y-92510000D01*
%TO.C,J2*%
X168590000Y-108670000D02*
X168590000Y-111330000D01*
X176270000Y-108670000D02*
X168590000Y-108670000D01*
X176270000Y-108670000D02*
X176270000Y-111330000D01*
X176270000Y-111330000D02*
X168590000Y-111330000D01*
X177540000Y-108670000D02*
X178870000Y-108670000D01*
X178870000Y-108670000D02*
X178870000Y-110000000D01*
%TO.C,TP4*%
X154670000Y-127670000D02*
X156000000Y-127670000D01*
X154670000Y-129000000D02*
X154670000Y-127670000D01*
X154670000Y-130270000D02*
X154670000Y-130330000D01*
X154670000Y-130270000D02*
X157330000Y-130270000D01*
X154670000Y-130330000D02*
X157330000Y-130330000D01*
X157330000Y-130270000D02*
X157330000Y-130330000D01*
%TO.C,R10*%
X149412258Y-134477500D02*
X148937742Y-134477500D01*
X149412258Y-135522500D02*
X148937742Y-135522500D01*
%TO.C,U6*%
X185675000Y-94575000D02*
X185675000Y-96385000D01*
X185675000Y-104975000D02*
X185675000Y-103165000D01*
X187040000Y-94575000D02*
X185675000Y-94575000D01*
X187040000Y-104975000D02*
X185675000Y-104975000D01*
X182850000Y-96425000D02*
X182510000Y-95955000D01*
X183190000Y-95955000D01*
X182850000Y-96425000D01*
G36*
X182850000Y-96425000D02*
G01*
X182510000Y-95955000D01*
X183190000Y-95955000D01*
X182850000Y-96425000D01*
G37*
%TO.C,C10*%
X138484420Y-99490000D02*
X138765580Y-99490000D01*
X138484420Y-100510000D02*
X138765580Y-100510000D01*
%TO.C,D6*%
X141265000Y-132515000D02*
X141265000Y-134800000D01*
X142735000Y-132515000D02*
X141265000Y-132515000D01*
X142735000Y-134800000D02*
X142735000Y-132515000D01*
%TO.C,IC1*%
X145571683Y-87050000D02*
X145571683Y-88550000D01*
X145571683Y-105450000D02*
X145571683Y-103950000D01*
X145571683Y-105450000D02*
X146571683Y-105450000D01*
X146571683Y-87050000D02*
X145571683Y-87050000D01*
X165171683Y-87050000D02*
X165171683Y-105450000D01*
X165171683Y-105450000D02*
X164471683Y-105450000D01*
X164921683Y-87050000D02*
X164421683Y-87050000D01*
X164421683Y-86550000D01*
X164921683Y-87050000D01*
G36*
X164921683Y-87050000D02*
G01*
X164421683Y-87050000D01*
X164421683Y-86550000D01*
X164921683Y-87050000D01*
G37*
%TO.C,C3*%
X169490000Y-87859420D02*
X169490000Y-88140580D01*
X170510000Y-87859420D02*
X170510000Y-88140580D01*
%TO.C,D5*%
X176233870Y-111955620D02*
X176233870Y-114240620D01*
X177703870Y-111955620D02*
X176233870Y-111955620D01*
X177703870Y-114240620D02*
X177703870Y-111955620D01*
%TO.C,C6*%
X185634420Y-83490000D02*
X185915580Y-83490000D01*
X185634420Y-84510000D02*
X185915580Y-84510000D01*
%TO.C,C22*%
X143490000Y-134140580D02*
X143490000Y-133859420D01*
X144510000Y-134140580D02*
X144510000Y-133859420D01*
%TO.C,J7*%
X160130000Y-130670000D02*
X160130000Y-133330000D01*
X170350000Y-130670000D02*
X160130000Y-130670000D01*
X170350000Y-130670000D02*
X170350000Y-133330000D01*
X170350000Y-133330000D02*
X160130000Y-133330000D01*
X171620000Y-130670000D02*
X172950000Y-130670000D01*
X172950000Y-130670000D02*
X172950000Y-132000000D01*
%TO.C,U4*%
X136025000Y-95350000D02*
X136525000Y-95350000D01*
X136025000Y-95850000D02*
X136025000Y-95350000D01*
X136025000Y-98350000D02*
X136025000Y-97600000D01*
X140725000Y-95350000D02*
X141225000Y-95350000D01*
X141225000Y-95350000D02*
X141225000Y-95850000D01*
X141225000Y-98150000D02*
X141225000Y-98650000D01*
X141225000Y-98650000D02*
X140725000Y-98650000D01*
X136025000Y-98910000D02*
X135665000Y-98550000D01*
X136025000Y-98550000D01*
X136025000Y-98910000D01*
G36*
X136025000Y-98910000D02*
G01*
X135665000Y-98550000D01*
X136025000Y-98550000D01*
X136025000Y-98910000D01*
G37*
%TO.C,SW2*%
X168970000Y-98400000D02*
X175270000Y-98400000D01*
X168970000Y-98850000D02*
X168970000Y-98400000D01*
X168970000Y-102850000D02*
X168970000Y-100150000D01*
X168970000Y-104150000D02*
X168970000Y-104600000D01*
X168970000Y-104600000D02*
X175270000Y-104600000D01*
X175270000Y-98400000D02*
X175270000Y-98850000D01*
X175270000Y-100150000D02*
X175270000Y-102850000D01*
X175270000Y-104600000D02*
X175270000Y-104200000D01*
%TO.C,C9*%
X138484420Y-108640000D02*
X138765580Y-108640000D01*
X138484420Y-109660000D02*
X138765580Y-109660000D01*
%TO.C,D1*%
X138515000Y-89265000D02*
X138515000Y-90735000D01*
X138515000Y-90735000D02*
X140800000Y-90735000D01*
X140800000Y-89265000D02*
X138515000Y-89265000D01*
%TO.C,F2*%
X154202064Y-134090000D02*
X152997936Y-134090000D01*
X154202064Y-135910000D02*
X152997936Y-135910000D01*
%TO.C,U11*%
X163540574Y-121526868D02*
X163540574Y-124526868D01*
X166710574Y-124586868D02*
X166560574Y-124586868D01*
X166760574Y-121526868D02*
X166760574Y-124526868D01*
X166970574Y-120966868D02*
X166490574Y-120966868D01*
X166490574Y-120486868D01*
X166970574Y-120966868D01*
G36*
X166970574Y-120966868D02*
G01*
X166490574Y-120966868D01*
X166490574Y-120486868D01*
X166970574Y-120966868D01*
G37*
%TO.C,J3*%
X131100000Y-78300000D02*
X131100000Y-87700000D01*
X133000000Y-78300000D02*
X131100000Y-78300000D01*
X133000000Y-87700000D02*
X131100000Y-87700000D01*
X136900000Y-78300000D02*
X134900000Y-78300000D01*
X136900000Y-87700000D02*
X134900000Y-87700000D01*
%TO.C,R12*%
X165237258Y-127523930D02*
X164762742Y-127523930D01*
X165237258Y-128568930D02*
X164762742Y-128568930D01*
%TO.C,C18*%
X194490000Y-107859420D02*
X194490000Y-108140580D01*
X195510000Y-107859420D02*
X195510000Y-108140580D01*
%TO.C,U1*%
X180525000Y-83345000D02*
X178575000Y-83345000D01*
X180525000Y-83345000D02*
X182475000Y-83345000D01*
X180525000Y-88465000D02*
X178575000Y-88465000D01*
X180525000Y-88465000D02*
X182475000Y-88465000D01*
X183465000Y-88700000D02*
X182985000Y-88700000D01*
X183225000Y-88370000D01*
X183465000Y-88700000D01*
G36*
X183465000Y-88700000D02*
G01*
X182985000Y-88700000D01*
X183225000Y-88370000D01*
X183465000Y-88700000D01*
G37*
%TO.C,C20*%
X181140580Y-126490000D02*
X180859420Y-126490000D01*
X181140580Y-127510000D02*
X180859420Y-127510000D01*
%TO.C,C5*%
X185634420Y-87490000D02*
X185915580Y-87490000D01*
X185634420Y-88510000D02*
X185915580Y-88510000D01*
%TO.C,C7*%
X177490000Y-94084420D02*
X177490000Y-94365580D01*
X178510000Y-94084420D02*
X178510000Y-94365580D01*
%TO.C,U8*%
X149000000Y-116590000D02*
X152760000Y-116590000D01*
X149000000Y-123410000D02*
X152760000Y-123410000D01*
X152760000Y-116590000D02*
X152760000Y-117850000D01*
X152760000Y-123410000D02*
X152760000Y-122150000D01*
X147720000Y-116690000D02*
X147480000Y-116360000D01*
X147960000Y-116360000D01*
X147720000Y-116690000D01*
G36*
X147720000Y-116690000D02*
G01*
X147480000Y-116360000D01*
X147960000Y-116360000D01*
X147720000Y-116690000D01*
G37*
%TO.C,U10*%
X147390000Y-130000000D02*
X147390000Y-128500000D01*
X147390000Y-130000000D02*
X147390000Y-131500000D01*
X150610000Y-130000000D02*
X150610000Y-128500000D01*
X150610000Y-130000000D02*
X150610000Y-131500000D01*
X150740000Y-128027500D02*
X150410000Y-127787500D01*
X150740000Y-127547500D01*
X150740000Y-128027500D01*
G36*
X150740000Y-128027500D02*
G01*
X150410000Y-127787500D01*
X150740000Y-127547500D01*
X150740000Y-128027500D01*
G37*
%TO.C,C2*%
X166490000Y-87863072D02*
X166490000Y-88144232D01*
X167510000Y-87863072D02*
X167510000Y-88144232D01*
%TO.C,J1*%
X147670000Y-107145000D02*
X149000000Y-107145000D01*
X147670000Y-108475000D02*
X147670000Y-107145000D01*
X147670000Y-109745000D02*
X147670000Y-114885000D01*
X147670000Y-109745000D02*
X150330000Y-109745000D01*
X147670000Y-114885000D02*
X150330000Y-114885000D01*
X150330000Y-109745000D02*
X150330000Y-114885000D01*
%TO.C,C23*%
X145490000Y-130365580D02*
X145490000Y-130084420D01*
X146510000Y-130365580D02*
X146510000Y-130084420D01*
%TO.C,C11*%
X142490000Y-118459420D02*
X142490000Y-118740580D01*
X143510000Y-118459420D02*
X143510000Y-118740580D01*
%TO.C,J5*%
X174550000Y-128850000D02*
X174550000Y-137150000D01*
X174550000Y-137150000D02*
X187400000Y-137150000D01*
X187400000Y-128850000D02*
X174550000Y-128850000D01*
X187400000Y-137150000D02*
X190250000Y-134600000D01*
X190250000Y-131450000D02*
X187400000Y-128850000D01*
X190250000Y-134600000D02*
X190250000Y-131450000D01*
%TO.C,C27*%
X141490000Y-122915580D02*
X141490000Y-122634420D01*
X142510000Y-122915580D02*
X142510000Y-122634420D01*
%TO.C,J6*%
X168780000Y-114155000D02*
X170110000Y-114155000D01*
X168780000Y-115485000D02*
X168780000Y-114155000D01*
X168780000Y-116755000D02*
X168780000Y-119355000D01*
X168780000Y-116755000D02*
X171440000Y-116755000D01*
X168780000Y-119355000D02*
X171440000Y-119355000D01*
X171440000Y-116755000D02*
X171440000Y-119355000D01*
%TO.C,5V1*%
X190670000Y-122670000D02*
X192000000Y-122670000D01*
X190670000Y-124000000D02*
X190670000Y-122670000D01*
X190670000Y-125270000D02*
X190670000Y-125330000D01*
X190670000Y-125270000D02*
X193330000Y-125270000D01*
X190670000Y-125330000D02*
X193330000Y-125330000D01*
X193330000Y-125270000D02*
X193330000Y-125330000D01*
%TO.C,R7*%
X160477500Y-109237258D02*
X160477500Y-108762742D01*
X161522500Y-109237258D02*
X161522500Y-108762742D01*
%TO.C,TP5*%
X144670000Y-77670000D02*
X146000000Y-77670000D01*
X144670000Y-79000000D02*
X144670000Y-77670000D01*
X144670000Y-80270000D02*
X144670000Y-80330000D01*
X144670000Y-80270000D02*
X147330000Y-80270000D01*
X144670000Y-80330000D02*
X147330000Y-80330000D01*
X147330000Y-80270000D02*
X147330000Y-80330000D01*
%TO.C,C21*%
X145490000Y-134140580D02*
X145490000Y-133859420D01*
X146510000Y-134140580D02*
X146510000Y-133859420D01*
%TO.C,FB1*%
X135171267Y-89490000D02*
X134828733Y-89490000D01*
X135171267Y-90510000D02*
X134828733Y-90510000D01*
%TO.C,U2*%
X145651036Y-81992806D02*
X144601036Y-81992806D01*
X145651036Y-83972806D02*
X144351036Y-83972806D01*
X144231036Y-81992806D02*
X143951036Y-81992806D01*
X144231036Y-81712806D01*
X144231036Y-81992806D01*
G36*
X144231036Y-81992806D02*
G01*
X143951036Y-81992806D01*
X144231036Y-81712806D01*
X144231036Y-81992806D01*
G37*
%TO.C,D3*%
X160265000Y-112200000D02*
X160265000Y-114660000D01*
X160265000Y-114660000D02*
X161735000Y-114660000D01*
X161735000Y-114660000D02*
X161735000Y-112200000D01*
%TO.C,C25*%
X164600000Y-118390580D02*
X164600000Y-118109420D01*
X165620000Y-118390580D02*
X165620000Y-118109420D01*
%TO.C,R8*%
X163477500Y-109237258D02*
X163477500Y-108762742D01*
X164522500Y-109237258D02*
X164522500Y-108762742D01*
%TO.C,R4*%
X142432500Y-80487258D02*
X142432500Y-80012742D01*
X143477500Y-80487258D02*
X143477500Y-80012742D01*
%TO.C,R11*%
X154477500Y-84237258D02*
X154477500Y-83762742D01*
X155522500Y-84237258D02*
X155522500Y-83762742D01*
%TO.C,C15*%
X187490000Y-124365580D02*
X187490000Y-124084420D01*
X188510000Y-124365580D02*
X188510000Y-124084420D01*
%TO.C,U7*%
X186250000Y-111025000D02*
X186250000Y-112835000D01*
X186250000Y-121425000D02*
X186250000Y-119615000D01*
X187615000Y-111025000D02*
X186250000Y-111025000D01*
X187615000Y-121425000D02*
X186250000Y-121425000D01*
X183425000Y-112875000D02*
X183085000Y-112405000D01*
X183765000Y-112405000D01*
X183425000Y-112875000D01*
G36*
X183425000Y-112875000D02*
G01*
X183085000Y-112405000D01*
X183765000Y-112405000D01*
X183425000Y-112875000D01*
G37*
%TO.C,C13*%
X140490000Y-117140580D02*
X140490000Y-116859420D01*
X141510000Y-117140580D02*
X141510000Y-116859420D01*
%TO.C,TP1*%
X168670000Y-124670000D02*
X170000000Y-124670000D01*
X168670000Y-126000000D02*
X168670000Y-124670000D01*
X168670000Y-127270000D02*
X168670000Y-127330000D01*
X168670000Y-127270000D02*
X171330000Y-127270000D01*
X168670000Y-127330000D02*
X171330000Y-127330000D01*
X171330000Y-127270000D02*
X171330000Y-127330000D01*
%TO.C,R2*%
X165477500Y-93762742D02*
X165477500Y-94237258D01*
X166522500Y-93762742D02*
X166522500Y-94237258D01*
%TO.C,J4*%
X155010000Y-75670000D02*
X155010000Y-78330000D01*
X167770000Y-75670000D02*
X155010000Y-75670000D01*
X167770000Y-75670000D02*
X167770000Y-78330000D01*
X167770000Y-78330000D02*
X155010000Y-78330000D01*
X169040000Y-75670000D02*
X170370000Y-75670000D01*
X170370000Y-75670000D02*
X170370000Y-77000000D01*
%TO.C,TP2*%
X172670000Y-124670000D02*
X174000000Y-124670000D01*
X172670000Y-126000000D02*
X172670000Y-124670000D01*
X172670000Y-127270000D02*
X172670000Y-127330000D01*
X172670000Y-127270000D02*
X175330000Y-127270000D01*
X172670000Y-127330000D02*
X175330000Y-127330000D01*
X175330000Y-127270000D02*
X175330000Y-127330000D01*
%TO.C,C26*%
X144490000Y-122915580D02*
X144490000Y-122634420D01*
X145510000Y-122915580D02*
X145510000Y-122634420D01*
%TO.C,U5*%
X135900000Y-117000000D02*
X135900000Y-117250000D01*
X135900000Y-117000000D02*
X136150000Y-117000000D01*
X139100000Y-117000000D02*
X138850000Y-117000000D01*
X139100000Y-117000000D02*
X139100000Y-117250000D01*
X139100000Y-120200000D02*
X138850000Y-120200000D01*
X139100000Y-120200000D02*
X139100000Y-119950000D01*
X135900000Y-120200000D02*
X135570000Y-120440000D01*
X135570000Y-119960000D01*
X135900000Y-120200000D01*
G36*
X135900000Y-120200000D02*
G01*
X135570000Y-120440000D01*
X135570000Y-119960000D01*
X135900000Y-120200000D01*
G37*
D14*
%TO.C,BT1*%
X188300000Y-77850000D02*
X189830000Y-77850000D01*
X188300000Y-81350000D02*
X188300000Y-77850000D01*
X188300000Y-91350000D02*
X188300000Y-87850000D01*
X189830000Y-91350000D02*
X188300000Y-91350000D01*
X195970000Y-91350000D02*
X197900000Y-91350000D01*
X197900000Y-77850000D02*
X195970000Y-77850000D01*
X197900000Y-79100000D02*
X197900000Y-77850000D01*
X197900000Y-91350000D02*
X197900000Y-90100000D01*
D13*
%TO.C,C16*%
X149859420Y-124490000D02*
X150140580Y-124490000D01*
X149859420Y-125510000D02*
X150140580Y-125510000D01*
%TO.C,SW1*%
X168970000Y-90850000D02*
X175270000Y-90850000D01*
X168970000Y-91300000D02*
X168970000Y-90850000D01*
X168970000Y-95300000D02*
X168970000Y-92600000D01*
X168970000Y-96600000D02*
X168970000Y-97050000D01*
X168970000Y-97050000D02*
X175270000Y-97050000D01*
X175270000Y-90850000D02*
X175270000Y-91300000D01*
X175270000Y-92600000D02*
X175270000Y-95300000D01*
X175270000Y-97050000D02*
X175270000Y-96650000D01*
%TO.C,C12*%
X137939420Y-115090000D02*
X138220580Y-115090000D01*
X137939420Y-116110000D02*
X138220580Y-116110000D01*
%TO.C,D8*%
X156927500Y-134265000D02*
X156927500Y-135735000D01*
X156927500Y-135735000D02*
X159212500Y-135735000D01*
X159212500Y-134265000D02*
X156927500Y-134265000D01*
%TO.C,C24*%
X161084420Y-124515000D02*
X161365580Y-124515000D01*
X161084420Y-125535000D02*
X161365580Y-125535000D01*
%TO.C,C1*%
X158634420Y-83490000D02*
X158915580Y-83490000D01*
X158634420Y-84510000D02*
X158915580Y-84510000D01*
%TO.C,C19*%
X144490000Y-117140580D02*
X144490000Y-116859420D01*
X145510000Y-117140580D02*
X145510000Y-116859420D01*
%TO.C,C17*%
X190490000Y-108140580D02*
X190490000Y-107859420D01*
X191510000Y-108140580D02*
X191510000Y-107859420D01*
%TO.C,TP3*%
X194670000Y-126670000D02*
X196000000Y-126670000D01*
X194670000Y-128000000D02*
X194670000Y-126670000D01*
X194670000Y-129270000D02*
X194670000Y-129330000D01*
X194670000Y-129270000D02*
X197330000Y-129270000D01*
X194670000Y-129330000D02*
X197330000Y-129330000D01*
X197330000Y-129270000D02*
X197330000Y-129330000D01*
%TO.C,C8*%
X178365580Y-103490000D02*
X178084420Y-103490000D01*
X178365580Y-104510000D02*
X178084420Y-104510000D01*
%TO.C,C14*%
X183140580Y-106490000D02*
X182859420Y-106490000D01*
X183140580Y-107510000D02*
X182859420Y-107510000D01*
D15*
%TO.C,U12*%
X135743901Y-127626999D02*
X138997901Y-127626999D01*
X138997901Y-122372999D02*
X135743901Y-122372999D01*
D16*
G36*
X135339500Y-124790500D02*
G01*
X135085500Y-124790500D01*
X135085500Y-124409500D01*
X135339500Y-124409500D01*
X135339500Y-124790500D01*
G37*
D13*
%TO.C,R1*%
X161477500Y-83587742D02*
X161477500Y-84062258D01*
X162522500Y-83587742D02*
X162522500Y-84062258D01*
%TD*%
M02*
