M48
; DRILL file {KiCad 9.0.6} date 2025-12-27T23:01:51-0800
; FORMAT={-:-/ absolute / metric / decimal}
; #@! TF.CreationDate,2025-12-27T23:01:51-08:00
; #@! TF.GenerationSoftware,Kicad,Pcbnew,9.0.6
; #@! TF.FileFunction,Plated,1,2,PTH
FMAT,2
METRIC
; #@! TA.AperFunction,Plated,PTH,ComponentDrill
T1C0.200
; #@! TA.AperFunction,Plated,PTH,ViaDrill
T2C0.300
; #@! TA.AperFunction,Plated,PTH,ComponentDrill
T3C0.600
; #@! TA.AperFunction,Plated,PTH,ComponentDrill
T4C1.000
; #@! TA.AperFunction,Plated,PTH,ComponentDrill
T5C4.500
%
G90
G05
T1
X154.662Y-94.05
X154.662Y-95.45
X155.362Y-93.35
X155.362Y-94.75
X155.362Y-96.15
X156.062Y-94.05
X156.062Y-95.45
X156.762Y-93.35
X156.762Y-94.75
X156.762Y-96.15
X157.462Y-94.05
X157.462Y-95.45
T2
X134.0Y-118.0
X134.0Y-119.0
X134.0Y-121.0
X134.0Y-124.0
X135.0Y-123.0
X135.0Y-124.0
X135.0Y-129.0
X136.0Y-94.0
X137.0Y-95.0
X137.0Y-104.0
X137.0Y-110.0
X137.0Y-114.0
X137.592Y-82.618
X137.72Y-83.929
X138.0Y-91.0
X138.0Y-95.0
X138.0Y-104.0
X138.4Y-114.0
X139.0Y-95.0
X139.0Y-104.0
X140.0Y-117.6
X140.0Y-122.0
X140.5Y-125.0
X141.0Y-104.0
X141.0Y-111.0
X141.0Y-119.0
X141.195Y-80.929
X141.195Y-85.35
X142.0Y-91.0
X142.0Y-95.0
X143.0Y-83.0
X143.0Y-132.0
X144.0Y-95.0
X144.0Y-96.0
X144.0Y-111.0
X145.0Y-110.0
X147.0Y-85.0
X148.0Y-94.0
X149.0Y-93.0
X150.0Y-96.0
X150.0Y-126.0
X151.0Y-98.0
X152.0Y-100.0
X152.6Y-93.0
X152.6Y-98.5
X155.0Y-110.0
X155.0Y-111.0
X156.0Y-86.0
X156.0Y-108.0
X156.0Y-117.0
X157.0Y-133.0
X157.702Y-82.297
X158.0Y-103.0
X159.0Y-132.0
X161.0Y-103.0
X162.0Y-90.0
X162.0Y-108.075
X163.0Y-92.0
X163.0Y-116.0
X163.0Y-122.0
X163.0Y-127.0
X164.0Y-102.0
X164.5Y-116.0
X165.0Y-92.0
X165.0Y-99.0
X165.912Y-109.087
X166.0Y-97.0
X166.0Y-111.0
X166.0Y-116.0
X166.0Y-120.0
X166.02Y-118.01
X167.0Y-96.0
X168.0Y-94.0
X168.0Y-114.0
X169.0Y-106.0
X171.0Y-98.0
X172.0Y-89.0
X175.0Y-119.0
X176.0Y-88.0
X176.0Y-119.0
X177.0Y-89.0
X179.0Y-101.0
X180.5Y-119.0
X183.0Y-126.0
X184.5Y-85.5
T4
X146.0Y-79.0
X149.0Y-108.475
X149.0Y-111.015
X149.0Y-113.555
X150.0Y-76.96
X150.0Y-79.5
X150.0Y-82.04
X150.0Y-84.58
X156.0Y-129.0
X156.34Y-77.0
X158.88Y-77.0
X161.42Y-77.0
X161.46Y-132.0
X163.96Y-77.0
X164.0Y-132.0
X166.5Y-77.0
X166.54Y-132.0
X169.04Y-77.0
X169.08Y-132.0
X169.92Y-110.0
X170.0Y-126.0
X170.11Y-115.485
X170.11Y-118.025
X171.62Y-132.0
X172.46Y-110.0
X174.0Y-126.0
X175.0Y-110.0
X177.54Y-110.0
X191.3Y-78.0
X191.3Y-91.2
X192.0Y-124.0
X194.5Y-78.0
X194.5Y-91.2
X196.0Y-128.0
T5
X178.8Y-133.0
X186.0Y-133.0
T3
G00X134.25Y-78.68
M15
G01X133.65Y-78.68
M16
G05
G00X134.25Y-87.32
M15
G01X133.65Y-87.32
M16
G05
G00X138.68Y-78.68
M15
G01X137.58Y-78.68
M16
G05
G00X138.68Y-87.32
M15
G01X137.58Y-87.32
M16
G05
M30
