M48
INCH
T1C0.0079
T2C0.0118
T3C0.0236
T4C0.0394
T5C0.1772
%
G90
G05
T1
X6.0866Y-3.6969
X6.0866Y-3.752
X6.1142Y-3.6693
X6.1142Y-3.7244
X6.1142Y-3.7795
X6.1417Y-3.6969
X6.1417Y-3.752
X6.1693Y-3.6693
X6.1693Y-3.7244
X6.1693Y-3.7795
X6.1969Y-3.6969
X6.1969Y-3.752
T2
X5.2756Y-4.6457
X5.2756Y-4.685
X5.2756Y-4.7638
X5.2756Y-4.8819
X5.315Y-4.8425
X5.315Y-4.8819
X5.315Y-5.0787
X5.3543Y-3.7008
X5.3937Y-3.7402
X5.3937Y-4.0945
X5.3937Y-4.3307
X5.3937Y-4.4882
X5.417Y-3.2527
X5.4221Y-3.3043
X5.4331Y-3.5827
X5.4331Y-3.7402
X5.4331Y-4.0945
X5.4724Y-3.7402
X5.4724Y-4.0945
X5.5118Y-4.8031
X5.5512Y-4.0945
X5.5512Y-4.3701
X5.5512Y-4.685
X5.5589Y-3.1862
X5.5589Y-3.3602
X5.5906Y-3.5827
X5.5906Y-3.7402
X5.6299Y-3.2677
X5.6299Y-5.1969
X5.6693Y-3.7402
X5.6693Y-3.7795
X5.6693Y-4.3701
X5.7087Y-4.3307
X5.7874Y-3.3465
X5.8268Y-3.7008
X5.8661Y-3.6614
X5.9055Y-3.7795
X5.9055Y-4.9606
X5.9449Y-3.622
X5.9449Y-3.8583
X5.9843Y-3.937
X6.063Y-3.8976
X6.1024Y-4.3307
X6.1024Y-4.3701
X6.1417Y-3.3858
X6.1417Y-4.252
X6.1417Y-4.6063
X6.1811Y-5.2362
X6.2205Y-4.0551
X6.2598Y-5.1969
X6.3386Y-4.0551
X6.378Y-3.5433
X6.378Y-4.2549
X6.4173Y-3.622
X6.4173Y-4.5669
X6.4173Y-4.8031
X6.4173Y-5.0
X6.4567Y-4.0157
X6.4961Y-3.622
X6.4961Y-3.8976
X6.532Y-4.2948
X6.5354Y-3.8189
X6.5354Y-4.3701
X6.5354Y-4.5669
X6.5354Y-4.7244
X6.5362Y-4.6461
X6.5748Y-3.7795
X6.6142Y-3.7008
X6.6142Y-4.4882
X6.6535Y-4.1732
X6.7323Y-3.8583
X6.7717Y-3.5039
X6.8898Y-4.685
X6.9291Y-3.4646
X6.9291Y-4.685
X6.9685Y-3.5039
X7.0472Y-3.9764
X7.1063Y-4.685
X7.2047Y-4.9606
X7.2638Y-3.3661
T4
X5.748Y-3.1102
X5.8661Y-4.2707
X5.8661Y-4.3707
X5.8661Y-4.4707
X5.9173Y-3.1486
X6.0173Y-3.1486
X6.1173Y-3.1486
X6.1417Y-5.0787
X6.2173Y-3.1486
X6.3173Y-3.1486
X6.3567Y-5.1969
X6.4173Y-3.1486
X6.4567Y-5.1969
X6.5567Y-5.1969
X6.6567Y-5.1969
X6.6898Y-4.3307
X6.6929Y-4.9606
X6.6972Y-4.5467
X6.6972Y-4.6467
X6.7567Y-5.1969
X6.7898Y-4.3307
X6.8504Y-4.9606
X6.8898Y-4.3307
X6.9898Y-4.3307
X7.5354Y-3.0866
X7.5354Y-3.6063
X7.5591Y-4.8819
X7.6614Y-3.0866
X7.6614Y-3.6063
X7.7165Y-5.0394
T5
X7.0394Y-5.2362
X7.3228Y-5.2362
T3
G00X5.2803Y-3.0976
M15
G01X5.2567Y-3.0976
M16
G05
G00X5.2803Y-3.4378
M15
G01X5.2567Y-3.4378
M16
G05
G00X5.4547Y-3.0976
M15
G01X5.4114Y-3.0976
M16
G05
G00X5.4547Y-3.4378
M15
G01X5.4114Y-3.4378
M16
G05
M30
