%TF.GenerationSoftware,KiCad,Pcbnew,8.0.7*%
%TF.CreationDate,2025-01-05T22:37:43-08:00*%
%TF.ProjectId,Test Rocket Board,54657374-2052-46f6-936b-657420426f61,rev?*%
%TF.SameCoordinates,Original*%
%TF.FileFunction,Soldermask,Bot*%
%TF.FilePolarity,Negative*%
%FSLAX46Y46*%
G04 Gerber Fmt 4.6, Leading zero omitted, Abs format (unit mm)*
G04 Created by KiCad (PCBNEW 8.0.7) date 2025-01-05 22:37:43*
%MOMM*%
%LPD*%
G01*
G04 APERTURE LIST*
G04 Aperture macros list*
%AMRoundRect*
0 Rectangle with rounded corners*
0 $1 Rounding radius*
0 $2 $3 $4 $5 $6 $7 $8 $9 X,Y pos of 4 corners*
0 Add a 4 corners polygon primitive as box body*
4,1,4,$2,$3,$4,$5,$6,$7,$8,$9,$2,$3,0*
0 Add four circle primitives for the rounded corners*
1,1,$1+$1,$2,$3*
1,1,$1+$1,$4,$5*
1,1,$1+$1,$6,$7*
1,1,$1+$1,$8,$9*
0 Add four rect primitives between the rounded corners*
20,1,$1+$1,$2,$3,$4,$5,0*
20,1,$1+$1,$4,$5,$6,$7,0*
20,1,$1+$1,$6,$7,$8,$9,0*
20,1,$1+$1,$8,$9,$2,$3,0*%
G04 Aperture macros list end*
%ADD10C,3.200000*%
%ADD11R,1.700000X1.700000*%
%ADD12O,1.700000X1.700000*%
%ADD13C,2.504000*%
%ADD14RoundRect,1.500000X1.500000X1.500000X-1.500000X1.500000X-1.500000X-1.500000X1.500000X-1.500000X0*%
%ADD15C,6.000000*%
%ADD16C,0.650000*%
%ADD17O,2.100000X1.000000*%
%ADD18O,1.600000X1.000000*%
%ADD19R,1.000000X1.500000*%
%ADD20R,1.500000X1.000000*%
G04 APERTURE END LIST*
D10*
%TO.C,H2*%
X195000000Y-135000000D03*
%TD*%
D11*
%TO.C,J2*%
X177540000Y-110000000D03*
D12*
X175000000Y-110000000D03*
X172460000Y-110000000D03*
X169920000Y-110000000D03*
%TD*%
D11*
%TO.C,TP4*%
X156000000Y-129000000D03*
%TD*%
D10*
%TO.C,H1*%
X137000000Y-135000000D03*
%TD*%
D11*
%TO.C,J7*%
X171620000Y-132000000D03*
D12*
X169080000Y-132000000D03*
X166540000Y-132000000D03*
X164000000Y-132000000D03*
X161460000Y-132000000D03*
%TD*%
D13*
%TO.C,BT1*%
X191400000Y-91600000D03*
X194600000Y-91600000D03*
X194600000Y-78400000D03*
X191400000Y-78400000D03*
%TD*%
D11*
%TO.C,J1*%
X149000000Y-108475000D03*
D12*
X149000000Y-111015000D03*
X149000000Y-113555000D03*
%TD*%
D14*
%TO.C,J5*%
X186000000Y-133000000D03*
D15*
X178800000Y-133000000D03*
%TD*%
D11*
%TO.C,J6*%
X170110000Y-115485000D03*
D12*
X170110000Y-118025000D03*
%TD*%
D11*
%TO.C,5V1*%
X192000000Y-124000000D03*
%TD*%
%TO.C,TP5*%
X146000000Y-79000000D03*
%TD*%
%TO.C,TP1*%
X170000000Y-126000000D03*
%TD*%
%TO.C,J4*%
X163000000Y-79975000D03*
D12*
X160460000Y-79975000D03*
X157920000Y-79975000D03*
X155380000Y-79975000D03*
X152840000Y-79975000D03*
X150300000Y-79975000D03*
%TD*%
D11*
%TO.C,TP2*%
X174000000Y-126000000D03*
%TD*%
D16*
%TO.C,J3*%
X137470000Y-80110000D03*
X137470000Y-85890000D03*
D17*
X138000000Y-78680000D03*
D18*
X133820000Y-78680000D03*
D17*
X138000000Y-87320000D03*
D18*
X133820000Y-87320000D03*
%TD*%
D11*
%TO.C,TP3*%
X196000000Y-128000000D03*
%TD*%
D10*
%TO.C,H3*%
X184000000Y-79000000D03*
%TD*%
D19*
%TO.C,JP3*%
X167650000Y-88350000D03*
X166350000Y-88350000D03*
%TD*%
%TO.C,JP4*%
X168000000Y-104000000D03*
X166700000Y-104000000D03*
%TD*%
D20*
%TO.C,JP2*%
X158000000Y-100000000D03*
X158000000Y-101300000D03*
%TD*%
%TO.C,JP1*%
X161000000Y-101300000D03*
X161000000Y-100000000D03*
%TD*%
M02*
