%TF.GenerationSoftware,KiCad,Pcbnew,8.0.7*%
%TF.CreationDate,2025-01-05T22:37:43-08:00*%
%TF.ProjectId,Test Rocket Board,54657374-2052-46f6-936b-657420426f61,rev?*%
%TF.SameCoordinates,Original*%
%TF.FileFunction,Soldermask,Top*%
%TF.FilePolarity,Negative*%
%FSLAX46Y46*%
G04 Gerber Fmt 4.6, Leading zero omitted, Abs format (unit mm)*
G04 Created by KiCad (PCBNEW 8.0.7) date 2025-01-05 22:37:43*
%MOMM*%
%LPD*%
G01*
G04 APERTURE LIST*
G04 Aperture macros list*
%AMRoundRect*
0 Rectangle with rounded corners*
0 $1 Rounding radius*
0 $2 $3 $4 $5 $6 $7 $8 $9 X,Y pos of 4 corners*
0 Add a 4 corners polygon primitive as box body*
4,1,4,$2,$3,$4,$5,$6,$7,$8,$9,$2,$3,0*
0 Add four circle primitives for the rounded corners*
1,1,$1+$1,$2,$3*
1,1,$1+$1,$4,$5*
1,1,$1+$1,$6,$7*
1,1,$1+$1,$8,$9*
0 Add four rect primitives between the rounded corners*
20,1,$1+$1,$2,$3,$4,$5,0*
20,1,$1+$1,$4,$5,$6,$7,0*
20,1,$1+$1,$6,$7,$8,$9,0*
20,1,$1+$1,$8,$9,$2,$3,0*%
G04 Aperture macros list end*
%ADD10R,0.550000X0.950000*%
%ADD11RoundRect,0.200000X0.275000X-0.200000X0.275000X0.200000X-0.275000X0.200000X-0.275000X-0.200000X0*%
%ADD12RoundRect,0.237500X0.237500X-0.287500X0.237500X0.287500X-0.237500X0.287500X-0.237500X-0.287500X0*%
%ADD13RoundRect,0.225000X0.250000X-0.225000X0.250000X0.225000X-0.250000X0.225000X-0.250000X-0.225000X0*%
%ADD14RoundRect,0.200000X-0.275000X0.200000X-0.275000X-0.200000X0.275000X-0.200000X0.275000X0.200000X0*%
%ADD15RoundRect,0.075000X-0.650000X-0.075000X0.650000X-0.075000X0.650000X0.075000X-0.650000X0.075000X0*%
%ADD16RoundRect,0.218750X0.218750X0.256250X-0.218750X0.256250X-0.218750X-0.256250X0.218750X-0.256250X0*%
%ADD17RoundRect,0.050000X0.050000X-0.225000X0.050000X0.225000X-0.050000X0.225000X-0.050000X-0.225000X0*%
%ADD18RoundRect,0.050000X0.225000X0.050000X-0.225000X0.050000X-0.225000X-0.050000X0.225000X-0.050000X0*%
%ADD19C,3.200000*%
%ADD20R,1.700000X1.700000*%
%ADD21O,1.700000X1.700000*%
%ADD22RoundRect,0.200000X0.200000X0.275000X-0.200000X0.275000X-0.200000X-0.275000X0.200000X-0.275000X0*%
%ADD23RoundRect,0.250000X-2.050000X-0.300000X2.050000X-0.300000X2.050000X0.300000X-2.050000X0.300000X0*%
%ADD24RoundRect,0.250002X-4.449998X-5.149998X4.449998X-5.149998X4.449998X5.149998X-4.449998X5.149998X0*%
%ADD25RoundRect,0.225000X-0.225000X-0.250000X0.225000X-0.250000X0.225000X0.250000X-0.225000X0.250000X0*%
%ADD26RoundRect,0.218750X-0.256250X0.218750X-0.256250X-0.218750X0.256250X-0.218750X0.256250X0.218750X0*%
%ADD27RoundRect,0.225000X-0.250000X0.225000X-0.250000X-0.225000X0.250000X-0.225000X0.250000X0.225000X0*%
%ADD28RoundRect,0.218750X-0.218750X-0.256250X0.218750X-0.256250X0.218750X0.256250X-0.218750X0.256250X0*%
%ADD29RoundRect,0.250000X0.375000X0.625000X-0.375000X0.625000X-0.375000X-0.625000X0.375000X-0.625000X0*%
%ADD30R,0.350000X0.650000*%
%ADD31R,2.400000X1.550000*%
%ADD32RoundRect,0.150000X0.825000X0.150000X-0.825000X0.150000X-0.825000X-0.150000X0.825000X-0.150000X0*%
%ADD33RoundRect,0.225000X0.225000X0.250000X-0.225000X0.250000X-0.225000X-0.250000X0.225000X-0.250000X0*%
%ADD34C,10.404000*%
%ADD35C,2.504000*%
%ADD36RoundRect,0.375000X-0.625000X-0.375000X0.625000X-0.375000X0.625000X0.375000X-0.625000X0.375000X0*%
%ADD37RoundRect,0.500000X-0.500000X-1.400000X0.500000X-1.400000X0.500000X1.400000X-0.500000X1.400000X0*%
%ADD38RoundRect,0.075000X-0.075000X0.650000X-0.075000X-0.650000X0.075000X-0.650000X0.075000X0.650000X0*%
%ADD39RoundRect,1.500000X1.500000X1.500000X-1.500000X1.500000X-1.500000X-1.500000X1.500000X-1.500000X0*%
%ADD40C,6.000000*%
%ADD41RoundRect,0.237500X0.287500X0.237500X-0.287500X0.237500X-0.287500X-0.237500X0.287500X-0.237500X0*%
%ADD42RoundRect,0.093750X-0.156250X-0.093750X0.156250X-0.093750X0.156250X0.093750X-0.156250X0.093750X0*%
%ADD43RoundRect,0.075000X-0.250000X-0.075000X0.250000X-0.075000X0.250000X0.075000X-0.250000X0.075000X0*%
%ADD44R,2.750000X1.000000*%
%ADD45R,0.900000X1.500000*%
%ADD46R,1.500000X0.900000*%
%ADD47C,0.600000*%
%ADD48R,3.900000X3.900000*%
%ADD49C,0.650000*%
%ADD50R,1.450000X0.600000*%
%ADD51R,1.450000X0.300000*%
%ADD52O,2.100000X1.000000*%
%ADD53O,1.600000X1.000000*%
%ADD54R,1.117800X0.449200*%
%ADD55R,0.500000X0.813000*%
G04 APERTURE END LIST*
D10*
%TO.C,U3*%
X136750000Y-107150000D03*
X138000000Y-107150000D03*
X139250000Y-107150000D03*
X140500000Y-107150000D03*
X140500000Y-105000000D03*
X139250000Y-105000000D03*
X138000000Y-105000000D03*
X136750000Y-105000000D03*
%TD*%
D11*
%TO.C,R9*%
X185000000Y-125000000D03*
X185000000Y-123350000D03*
%TD*%
%TO.C,R3*%
X166000000Y-99650000D03*
X166000000Y-98000000D03*
%TD*%
D12*
%TO.C,D2*%
X158000000Y-113875000D03*
X158000000Y-112125000D03*
%TD*%
D13*
%TO.C,C4*%
X186000000Y-91550000D03*
X186000000Y-90000000D03*
%TD*%
D14*
%TO.C,R5*%
X142955000Y-85600000D03*
X142955000Y-87250000D03*
%TD*%
D12*
%TO.C,D4*%
X164000000Y-113875000D03*
X164000000Y-112125000D03*
%TD*%
D15*
%TO.C,U9*%
X177600000Y-123000000D03*
X177600000Y-123500000D03*
X177600000Y-124000000D03*
X177600000Y-124500000D03*
X177600000Y-125000000D03*
X182000000Y-125000000D03*
X182000000Y-124500000D03*
X182000000Y-124000000D03*
X182000000Y-123500000D03*
X182000000Y-123000000D03*
%TD*%
D16*
%TO.C,D7*%
X140787500Y-92000000D03*
X139212500Y-92000000D03*
%TD*%
D11*
%TO.C,R6*%
X158000000Y-109825000D03*
X158000000Y-108175000D03*
%TD*%
D16*
%TO.C,F1*%
X135787500Y-92000000D03*
X134212500Y-92000000D03*
%TD*%
D17*
%TO.C,U5*%
X136500000Y-120100000D03*
X136900000Y-120100000D03*
X137300000Y-120100000D03*
X137700000Y-120100000D03*
X138100000Y-120100000D03*
X138500000Y-120100000D03*
D18*
X139000000Y-119600000D03*
X139000000Y-119200000D03*
X139000000Y-118800000D03*
X139000000Y-118400000D03*
X139000000Y-118000000D03*
X139000000Y-117600000D03*
D17*
X138500000Y-117100000D03*
X138100000Y-117100000D03*
X137700000Y-117100000D03*
X137300000Y-117100000D03*
X136900000Y-117100000D03*
X136500000Y-117100000D03*
D18*
X136000000Y-117600000D03*
X136000000Y-118000000D03*
X136000000Y-118400000D03*
X136000000Y-118800000D03*
X136000000Y-119200000D03*
X136000000Y-119600000D03*
%TD*%
D19*
%TO.C,H2*%
X195000000Y-135000000D03*
%TD*%
D20*
%TO.C,J2*%
X177540000Y-110000000D03*
D21*
X175000000Y-110000000D03*
X172460000Y-110000000D03*
X169920000Y-110000000D03*
%TD*%
D20*
%TO.C,TP4*%
X156000000Y-129000000D03*
%TD*%
D22*
%TO.C,R10*%
X150000000Y-135000000D03*
X148350000Y-135000000D03*
%TD*%
D23*
%TO.C,U6*%
X182850000Y-97235000D03*
X182850000Y-99775000D03*
D24*
X192000000Y-99775000D03*
D23*
X182850000Y-102315000D03*
%TD*%
D25*
%TO.C,C10*%
X137850000Y-100000000D03*
X139400000Y-100000000D03*
%TD*%
D26*
%TO.C,D6*%
X142000000Y-133212500D03*
X142000000Y-134787500D03*
%TD*%
D27*
%TO.C,C3*%
X170000000Y-87225000D03*
X170000000Y-88775000D03*
%TD*%
D19*
%TO.C,H1*%
X137000000Y-135000000D03*
%TD*%
D26*
%TO.C,D5*%
X176968870Y-112653120D03*
X176968870Y-114228120D03*
%TD*%
D25*
%TO.C,C6*%
X185000000Y-84000000D03*
X186550000Y-84000000D03*
%TD*%
D13*
%TO.C,C22*%
X144000000Y-134775000D03*
X144000000Y-133225000D03*
%TD*%
D20*
%TO.C,J7*%
X171620000Y-132000000D03*
D21*
X169080000Y-132000000D03*
X166540000Y-132000000D03*
X164000000Y-132000000D03*
X161460000Y-132000000D03*
%TD*%
D10*
%TO.C,U4*%
X136750000Y-98075000D03*
X138000000Y-98075000D03*
X139250000Y-98075000D03*
X140500000Y-98075000D03*
X140500000Y-95925000D03*
X139250000Y-95925000D03*
X138000000Y-95925000D03*
X136750000Y-95925000D03*
%TD*%
D25*
%TO.C,C9*%
X137850000Y-109150000D03*
X139400000Y-109150000D03*
%TD*%
D28*
%TO.C,D1*%
X139212500Y-90000000D03*
X140787500Y-90000000D03*
%TD*%
D29*
%TO.C,F2*%
X155000000Y-135000000D03*
X152200000Y-135000000D03*
%TD*%
D30*
%TO.C,U11*%
X166125574Y-121476868D03*
X165475574Y-121476868D03*
X164825574Y-121476868D03*
X164175574Y-121476868D03*
X164175574Y-124576868D03*
X164825574Y-124576868D03*
X165475574Y-124576868D03*
X166125574Y-124576868D03*
D31*
X165150574Y-123026868D03*
%TD*%
D22*
%TO.C,R12*%
X165825000Y-128046430D03*
X164175000Y-128046430D03*
%TD*%
D27*
%TO.C,C18*%
X195000000Y-107225000D03*
X195000000Y-108775000D03*
%TD*%
D32*
%TO.C,U1*%
X183000000Y-87810000D03*
X183000000Y-86540000D03*
X183000000Y-85270000D03*
X183000000Y-84000000D03*
X178050000Y-84000000D03*
X178050000Y-85270000D03*
X178050000Y-86540000D03*
X178050000Y-87810000D03*
%TD*%
D33*
%TO.C,C20*%
X181775000Y-127000000D03*
X180225000Y-127000000D03*
%TD*%
D25*
%TO.C,C5*%
X185000000Y-88000000D03*
X186550000Y-88000000D03*
%TD*%
D27*
%TO.C,C7*%
X178000000Y-93450000D03*
X178000000Y-95000000D03*
%TD*%
D34*
%TO.C,BT1*%
X193000000Y-85000000D03*
D35*
X191400000Y-91600000D03*
X194600000Y-91600000D03*
X194600000Y-78400000D03*
X191400000Y-78400000D03*
%TD*%
D36*
%TO.C,U8*%
X147700000Y-117700000D03*
X147700000Y-120000000D03*
D37*
X154000000Y-120000000D03*
D36*
X147700000Y-122300000D03*
%TD*%
D38*
%TO.C,U10*%
X150000000Y-127800000D03*
X149500000Y-127800000D03*
X149000000Y-127800000D03*
X148500000Y-127800000D03*
X148000000Y-127800000D03*
X148000000Y-132200000D03*
X148500000Y-132200000D03*
X149000000Y-132200000D03*
X149500000Y-132200000D03*
X150000000Y-132200000D03*
%TD*%
D27*
%TO.C,C2*%
X167000000Y-87228652D03*
X167000000Y-88778652D03*
%TD*%
D20*
%TO.C,J1*%
X149000000Y-108475000D03*
D21*
X149000000Y-111015000D03*
X149000000Y-113555000D03*
%TD*%
D13*
%TO.C,C23*%
X146000000Y-131000000D03*
X146000000Y-129450000D03*
%TD*%
D27*
%TO.C,C11*%
X143000000Y-117825000D03*
X143000000Y-119375000D03*
%TD*%
D39*
%TO.C,J5*%
X186000000Y-133000000D03*
D40*
X178800000Y-133000000D03*
%TD*%
D27*
%TO.C,C27*%
X141000000Y-122600000D03*
X141000000Y-124150000D03*
%TD*%
D20*
%TO.C,J6*%
X170110000Y-115485000D03*
D21*
X170110000Y-118025000D03*
%TD*%
D20*
%TO.C,5V1*%
X192000000Y-124000000D03*
%TD*%
D11*
%TO.C,R7*%
X161000000Y-109825000D03*
X161000000Y-108175000D03*
%TD*%
D20*
%TO.C,TP5*%
X146000000Y-79000000D03*
%TD*%
D13*
%TO.C,C21*%
X146000000Y-134775000D03*
X146000000Y-133225000D03*
%TD*%
D41*
%TO.C,FB1*%
X135875000Y-90000000D03*
X134125000Y-90000000D03*
%TD*%
D42*
%TO.C,U2*%
X144151036Y-82445306D03*
D43*
X144076036Y-82982806D03*
D42*
X144151036Y-83520306D03*
X145851036Y-83520306D03*
D43*
X145926036Y-82982806D03*
D42*
X145851036Y-82445306D03*
%TD*%
D12*
%TO.C,D3*%
X161000000Y-113875000D03*
X161000000Y-112125000D03*
%TD*%
D13*
%TO.C,C25*%
X165110000Y-119025000D03*
X165110000Y-117475000D03*
%TD*%
D11*
%TO.C,R8*%
X164000000Y-109825000D03*
X164000000Y-108175000D03*
%TD*%
%TO.C,R4*%
X142955000Y-81075000D03*
X142955000Y-79425000D03*
%TD*%
%TO.C,R11*%
X155000000Y-84825000D03*
X155000000Y-83175000D03*
%TD*%
D13*
%TO.C,C15*%
X188000000Y-125000000D03*
X188000000Y-123450000D03*
%TD*%
D44*
%TO.C,SW2*%
X169120000Y-100000000D03*
X174880000Y-100000000D03*
X169120000Y-104000000D03*
X174880000Y-104000000D03*
%TD*%
D23*
%TO.C,U7*%
X183425000Y-113685000D03*
X183425000Y-116225000D03*
D24*
X192575000Y-116225000D03*
D23*
X183425000Y-118765000D03*
%TD*%
D13*
%TO.C,C13*%
X141000000Y-117775000D03*
X141000000Y-116225000D03*
%TD*%
D20*
%TO.C,TP1*%
X170000000Y-126000000D03*
%TD*%
D14*
%TO.C,R2*%
X166000000Y-93175000D03*
X166000000Y-94825000D03*
%TD*%
D44*
%TO.C,SW1*%
X169120000Y-92000000D03*
X174880000Y-92000000D03*
X169120000Y-96000000D03*
X174880000Y-96000000D03*
%TD*%
D20*
%TO.C,J4*%
X163000000Y-79975000D03*
D21*
X160460000Y-79975000D03*
X157920000Y-79975000D03*
X155380000Y-79975000D03*
X152840000Y-79975000D03*
X150300000Y-79975000D03*
%TD*%
D20*
%TO.C,TP2*%
X174000000Y-126000000D03*
%TD*%
D27*
%TO.C,C26*%
X144000000Y-122600000D03*
X144000000Y-124150000D03*
%TD*%
D25*
%TO.C,C16*%
X149225000Y-125000000D03*
X150775000Y-125000000D03*
%TD*%
D45*
%TO.C,IC1*%
X163720000Y-87350000D03*
X162450000Y-87350000D03*
X161180000Y-87350000D03*
X159910000Y-87350000D03*
X158640000Y-87350000D03*
X157370000Y-87350000D03*
X156100000Y-87350000D03*
X154830000Y-87350000D03*
X153560000Y-87350000D03*
X152290000Y-87350000D03*
X151020000Y-87350000D03*
X149750000Y-87350000D03*
X148480000Y-87350000D03*
X147210000Y-87350000D03*
D46*
X145960000Y-89115000D03*
X145960000Y-90385000D03*
X145960000Y-91655000D03*
X145960000Y-92925000D03*
X145960000Y-94195000D03*
X145960000Y-95465000D03*
X145960000Y-96735000D03*
X145960000Y-98005000D03*
X145960000Y-99275000D03*
X145960000Y-100545000D03*
X145960000Y-101815000D03*
X145960000Y-103085000D03*
D45*
X147210000Y-104850000D03*
X148480000Y-104850000D03*
X149750000Y-104850000D03*
X151020000Y-104850000D03*
X152290000Y-104850000D03*
X153560000Y-104850000D03*
X154830000Y-104850000D03*
X156100000Y-104850000D03*
X157370000Y-104850000D03*
X158640000Y-104850000D03*
X159910000Y-104850000D03*
X161180000Y-104850000D03*
X162450000Y-104850000D03*
X163720000Y-104850000D03*
D47*
X156700000Y-93200000D03*
X155300000Y-93200000D03*
X157400000Y-93900000D03*
X156000000Y-93900000D03*
X154600000Y-93900000D03*
X156700000Y-94600000D03*
D48*
X156000000Y-94600000D03*
D47*
X155300000Y-94600000D03*
X157400000Y-95300000D03*
X156000000Y-95300000D03*
X154600000Y-95300000D03*
X156700000Y-96000000D03*
X155300000Y-96000000D03*
%TD*%
D25*
%TO.C,C12*%
X137305000Y-115600000D03*
X138855000Y-115600000D03*
%TD*%
D28*
%TO.C,D8*%
X157625000Y-135000000D03*
X159200000Y-135000000D03*
%TD*%
D25*
%TO.C,C24*%
X160450000Y-125025000D03*
X162000000Y-125025000D03*
%TD*%
%TO.C,C1*%
X158000000Y-84000000D03*
X159550000Y-84000000D03*
%TD*%
D13*
%TO.C,C19*%
X145000000Y-117775000D03*
X145000000Y-116225000D03*
%TD*%
%TO.C,C17*%
X191000000Y-108775000D03*
X191000000Y-107225000D03*
%TD*%
D49*
%TO.C,J3*%
X137470000Y-80110000D03*
X137470000Y-85890000D03*
D50*
X138915000Y-79750000D03*
X138915000Y-80550000D03*
D51*
X138915000Y-81750000D03*
X138915000Y-82750000D03*
X138915000Y-83250000D03*
X138915000Y-84250000D03*
D50*
X138915000Y-85450000D03*
X138915000Y-86250000D03*
X138915000Y-86250000D03*
X138915000Y-85450000D03*
D51*
X138915000Y-84750000D03*
X138915000Y-83750000D03*
X138915000Y-82250000D03*
X138915000Y-81250000D03*
D50*
X138915000Y-80550000D03*
X138915000Y-79750000D03*
D52*
X138000000Y-78680000D03*
D53*
X133820000Y-78680000D03*
D52*
X138000000Y-87320000D03*
D53*
X133820000Y-87320000D03*
%TD*%
D20*
%TO.C,TP3*%
X196000000Y-128000000D03*
%TD*%
D33*
%TO.C,C8*%
X179000000Y-104000000D03*
X177450000Y-104000000D03*
%TD*%
%TO.C,C14*%
X183775000Y-107000000D03*
X182225000Y-107000000D03*
%TD*%
D19*
%TO.C,H3*%
X184000000Y-79000000D03*
%TD*%
D54*
%TO.C,U12*%
X138741802Y-127000000D03*
X138741802Y-126199999D03*
X138741802Y-125399998D03*
X138741802Y-124600000D03*
X138741802Y-123799999D03*
X138741802Y-123000000D03*
D55*
X137370901Y-123281501D03*
D54*
X136000000Y-122999998D03*
X136000000Y-123799999D03*
X136000000Y-124600000D03*
X136000000Y-125399998D03*
X136000000Y-126199999D03*
X136000000Y-126999998D03*
D55*
X137370901Y-126718497D03*
%TD*%
D14*
%TO.C,R1*%
X162000000Y-83000000D03*
X162000000Y-84650000D03*
%TD*%
M02*
