%TF.GenerationSoftware,KiCad,Pcbnew,8.0.7*%
%TF.CreationDate,2025-01-05T22:37:43-08:00*%
%TF.ProjectId,Test Rocket Board,54657374-2052-46f6-936b-657420426f61,rev?*%
%TF.SameCoordinates,Original*%
%TF.FileFunction,Other,Comment*%
%FSLAX46Y46*%
G04 Gerber Fmt 4.6, Leading zero omitted, Abs format (unit mm)*
G04 Created by KiCad (PCBNEW 8.0.7) date 2025-01-05 22:37:43*
%MOMM*%
%LPD*%
G01*
G04 APERTURE LIST*
%ADD10C,0.040000*%
%ADD11C,0.150000*%
G04 APERTURE END LIST*
D10*
X137490443Y-119342856D02*
X137290443Y-119342856D01*
X137290443Y-119342856D02*
X137490443Y-119228571D01*
X137490443Y-119228571D02*
X137290443Y-119228571D01*
X137490443Y-119104761D02*
X137480920Y-119123809D01*
X137480920Y-119123809D02*
X137471396Y-119133332D01*
X137471396Y-119133332D02*
X137452348Y-119142856D01*
X137452348Y-119142856D02*
X137395205Y-119142856D01*
X137395205Y-119142856D02*
X137376158Y-119133332D01*
X137376158Y-119133332D02*
X137366634Y-119123809D01*
X137366634Y-119123809D02*
X137357110Y-119104761D01*
X137357110Y-119104761D02*
X137357110Y-119076190D01*
X137357110Y-119076190D02*
X137366634Y-119057142D01*
X137366634Y-119057142D02*
X137376158Y-119047618D01*
X137376158Y-119047618D02*
X137395205Y-119038094D01*
X137395205Y-119038094D02*
X137452348Y-119038094D01*
X137452348Y-119038094D02*
X137471396Y-119047618D01*
X137471396Y-119047618D02*
X137480920Y-119057142D01*
X137480920Y-119057142D02*
X137490443Y-119076190D01*
X137490443Y-119076190D02*
X137490443Y-119104761D01*
X137471396Y-118685714D02*
X137480920Y-118695238D01*
X137480920Y-118695238D02*
X137490443Y-118723809D01*
X137490443Y-118723809D02*
X137490443Y-118742857D01*
X137490443Y-118742857D02*
X137480920Y-118771428D01*
X137480920Y-118771428D02*
X137461872Y-118790476D01*
X137461872Y-118790476D02*
X137442824Y-118799999D01*
X137442824Y-118799999D02*
X137404729Y-118809523D01*
X137404729Y-118809523D02*
X137376158Y-118809523D01*
X137376158Y-118809523D02*
X137338062Y-118799999D01*
X137338062Y-118799999D02*
X137319015Y-118790476D01*
X137319015Y-118790476D02*
X137299967Y-118771428D01*
X137299967Y-118771428D02*
X137290443Y-118742857D01*
X137290443Y-118742857D02*
X137290443Y-118723809D01*
X137290443Y-118723809D02*
X137299967Y-118695238D01*
X137299967Y-118695238D02*
X137309491Y-118685714D01*
X137490443Y-118571428D02*
X137480920Y-118590476D01*
X137480920Y-118590476D02*
X137471396Y-118599999D01*
X137471396Y-118599999D02*
X137452348Y-118609523D01*
X137452348Y-118609523D02*
X137395205Y-118609523D01*
X137395205Y-118609523D02*
X137376158Y-118599999D01*
X137376158Y-118599999D02*
X137366634Y-118590476D01*
X137366634Y-118590476D02*
X137357110Y-118571428D01*
X137357110Y-118571428D02*
X137357110Y-118542857D01*
X137357110Y-118542857D02*
X137366634Y-118523809D01*
X137366634Y-118523809D02*
X137376158Y-118514285D01*
X137376158Y-118514285D02*
X137395205Y-118504761D01*
X137395205Y-118504761D02*
X137452348Y-118504761D01*
X137452348Y-118504761D02*
X137471396Y-118514285D01*
X137471396Y-118514285D02*
X137480920Y-118523809D01*
X137480920Y-118523809D02*
X137490443Y-118542857D01*
X137490443Y-118542857D02*
X137490443Y-118571428D01*
X137357110Y-118419047D02*
X137557110Y-118419047D01*
X137366634Y-118419047D02*
X137357110Y-118400000D01*
X137357110Y-118400000D02*
X137357110Y-118361905D01*
X137357110Y-118361905D02*
X137366634Y-118342857D01*
X137366634Y-118342857D02*
X137376158Y-118333333D01*
X137376158Y-118333333D02*
X137395205Y-118323809D01*
X137395205Y-118323809D02*
X137452348Y-118323809D01*
X137452348Y-118323809D02*
X137471396Y-118333333D01*
X137471396Y-118333333D02*
X137480920Y-118342857D01*
X137480920Y-118342857D02*
X137490443Y-118361905D01*
X137490443Y-118361905D02*
X137490443Y-118400000D01*
X137490443Y-118400000D02*
X137480920Y-118419047D01*
X137357110Y-118238095D02*
X137557110Y-118238095D01*
X137366634Y-118238095D02*
X137357110Y-118219048D01*
X137357110Y-118219048D02*
X137357110Y-118180953D01*
X137357110Y-118180953D02*
X137366634Y-118161905D01*
X137366634Y-118161905D02*
X137376158Y-118152381D01*
X137376158Y-118152381D02*
X137395205Y-118142857D01*
X137395205Y-118142857D02*
X137452348Y-118142857D01*
X137452348Y-118142857D02*
X137471396Y-118152381D01*
X137471396Y-118152381D02*
X137480920Y-118161905D01*
X137480920Y-118161905D02*
X137490443Y-118180953D01*
X137490443Y-118180953D02*
X137490443Y-118219048D01*
X137490443Y-118219048D02*
X137480920Y-118238095D01*
X137480920Y-117980953D02*
X137490443Y-118000001D01*
X137490443Y-118000001D02*
X137490443Y-118038096D01*
X137490443Y-118038096D02*
X137480920Y-118057143D01*
X137480920Y-118057143D02*
X137461872Y-118066667D01*
X137461872Y-118066667D02*
X137385681Y-118066667D01*
X137385681Y-118066667D02*
X137366634Y-118057143D01*
X137366634Y-118057143D02*
X137357110Y-118038096D01*
X137357110Y-118038096D02*
X137357110Y-118000001D01*
X137357110Y-118000001D02*
X137366634Y-117980953D01*
X137366634Y-117980953D02*
X137385681Y-117971429D01*
X137385681Y-117971429D02*
X137404729Y-117971429D01*
X137404729Y-117971429D02*
X137423777Y-118066667D01*
X137490443Y-117885714D02*
X137357110Y-117885714D01*
X137395205Y-117885714D02*
X137376158Y-117876191D01*
X137376158Y-117876191D02*
X137366634Y-117866667D01*
X137366634Y-117866667D02*
X137357110Y-117847619D01*
X137357110Y-117847619D02*
X137357110Y-117828572D01*
X138121396Y-119266666D02*
X138130920Y-119276190D01*
X138130920Y-119276190D02*
X138140443Y-119304761D01*
X138140443Y-119304761D02*
X138140443Y-119323809D01*
X138140443Y-119323809D02*
X138130920Y-119352380D01*
X138130920Y-119352380D02*
X138111872Y-119371428D01*
X138111872Y-119371428D02*
X138092824Y-119380951D01*
X138092824Y-119380951D02*
X138054729Y-119390475D01*
X138054729Y-119390475D02*
X138026158Y-119390475D01*
X138026158Y-119390475D02*
X137988062Y-119380951D01*
X137988062Y-119380951D02*
X137969015Y-119371428D01*
X137969015Y-119371428D02*
X137949967Y-119352380D01*
X137949967Y-119352380D02*
X137940443Y-119323809D01*
X137940443Y-119323809D02*
X137940443Y-119304761D01*
X137940443Y-119304761D02*
X137949967Y-119276190D01*
X137949967Y-119276190D02*
X137959491Y-119266666D01*
X138140443Y-119152380D02*
X138130920Y-119171428D01*
X138130920Y-119171428D02*
X138121396Y-119180951D01*
X138121396Y-119180951D02*
X138102348Y-119190475D01*
X138102348Y-119190475D02*
X138045205Y-119190475D01*
X138045205Y-119190475D02*
X138026158Y-119180951D01*
X138026158Y-119180951D02*
X138016634Y-119171428D01*
X138016634Y-119171428D02*
X138007110Y-119152380D01*
X138007110Y-119152380D02*
X138007110Y-119123809D01*
X138007110Y-119123809D02*
X138016634Y-119104761D01*
X138016634Y-119104761D02*
X138026158Y-119095237D01*
X138026158Y-119095237D02*
X138045205Y-119085713D01*
X138045205Y-119085713D02*
X138102348Y-119085713D01*
X138102348Y-119085713D02*
X138121396Y-119095237D01*
X138121396Y-119095237D02*
X138130920Y-119104761D01*
X138130920Y-119104761D02*
X138140443Y-119123809D01*
X138140443Y-119123809D02*
X138140443Y-119152380D01*
X138140443Y-118999999D02*
X138007110Y-118999999D01*
X138026158Y-118999999D02*
X138016634Y-118990476D01*
X138016634Y-118990476D02*
X138007110Y-118971428D01*
X138007110Y-118971428D02*
X138007110Y-118942857D01*
X138007110Y-118942857D02*
X138016634Y-118923809D01*
X138016634Y-118923809D02*
X138035681Y-118914285D01*
X138035681Y-118914285D02*
X138140443Y-118914285D01*
X138035681Y-118914285D02*
X138016634Y-118904761D01*
X138016634Y-118904761D02*
X138007110Y-118885714D01*
X138007110Y-118885714D02*
X138007110Y-118857142D01*
X138007110Y-118857142D02*
X138016634Y-118838095D01*
X138016634Y-118838095D02*
X138035681Y-118828571D01*
X138035681Y-118828571D02*
X138140443Y-118828571D01*
X138007110Y-118733332D02*
X138207110Y-118733332D01*
X138016634Y-118733332D02*
X138007110Y-118714285D01*
X138007110Y-118714285D02*
X138007110Y-118676190D01*
X138007110Y-118676190D02*
X138016634Y-118657142D01*
X138016634Y-118657142D02*
X138026158Y-118647618D01*
X138026158Y-118647618D02*
X138045205Y-118638094D01*
X138045205Y-118638094D02*
X138102348Y-118638094D01*
X138102348Y-118638094D02*
X138121396Y-118647618D01*
X138121396Y-118647618D02*
X138130920Y-118657142D01*
X138130920Y-118657142D02*
X138140443Y-118676190D01*
X138140443Y-118676190D02*
X138140443Y-118714285D01*
X138140443Y-118714285D02*
X138130920Y-118733332D01*
X138140443Y-118523809D02*
X138130920Y-118542857D01*
X138130920Y-118542857D02*
X138121396Y-118552380D01*
X138121396Y-118552380D02*
X138102348Y-118561904D01*
X138102348Y-118561904D02*
X138045205Y-118561904D01*
X138045205Y-118561904D02*
X138026158Y-118552380D01*
X138026158Y-118552380D02*
X138016634Y-118542857D01*
X138016634Y-118542857D02*
X138007110Y-118523809D01*
X138007110Y-118523809D02*
X138007110Y-118495238D01*
X138007110Y-118495238D02*
X138016634Y-118476190D01*
X138016634Y-118476190D02*
X138026158Y-118466666D01*
X138026158Y-118466666D02*
X138045205Y-118457142D01*
X138045205Y-118457142D02*
X138102348Y-118457142D01*
X138102348Y-118457142D02*
X138121396Y-118466666D01*
X138121396Y-118466666D02*
X138130920Y-118476190D01*
X138130920Y-118476190D02*
X138140443Y-118495238D01*
X138140443Y-118495238D02*
X138140443Y-118523809D01*
X138007110Y-118371428D02*
X138140443Y-118371428D01*
X138026158Y-118371428D02*
X138016634Y-118361905D01*
X138016634Y-118361905D02*
X138007110Y-118342857D01*
X138007110Y-118342857D02*
X138007110Y-118314286D01*
X138007110Y-118314286D02*
X138016634Y-118295238D01*
X138016634Y-118295238D02*
X138035681Y-118285714D01*
X138035681Y-118285714D02*
X138140443Y-118285714D01*
X138130920Y-118114286D02*
X138140443Y-118133334D01*
X138140443Y-118133334D02*
X138140443Y-118171429D01*
X138140443Y-118171429D02*
X138130920Y-118190476D01*
X138130920Y-118190476D02*
X138111872Y-118200000D01*
X138111872Y-118200000D02*
X138035681Y-118200000D01*
X138035681Y-118200000D02*
X138016634Y-118190476D01*
X138016634Y-118190476D02*
X138007110Y-118171429D01*
X138007110Y-118171429D02*
X138007110Y-118133334D01*
X138007110Y-118133334D02*
X138016634Y-118114286D01*
X138016634Y-118114286D02*
X138035681Y-118104762D01*
X138035681Y-118104762D02*
X138054729Y-118104762D01*
X138054729Y-118104762D02*
X138073777Y-118200000D01*
X138007110Y-118019047D02*
X138140443Y-118019047D01*
X138026158Y-118019047D02*
X138016634Y-118009524D01*
X138016634Y-118009524D02*
X138007110Y-117990476D01*
X138007110Y-117990476D02*
X138007110Y-117961905D01*
X138007110Y-117961905D02*
X138016634Y-117942857D01*
X138016634Y-117942857D02*
X138035681Y-117933333D01*
X138035681Y-117933333D02*
X138140443Y-117933333D01*
X138007110Y-117866667D02*
X138007110Y-117790476D01*
X137940443Y-117838095D02*
X138111872Y-117838095D01*
X138111872Y-117838095D02*
X138130920Y-117828572D01*
X138130920Y-117828572D02*
X138140443Y-117809524D01*
X138140443Y-117809524D02*
X138140443Y-117790476D01*
X137090443Y-119219046D02*
X136890443Y-119219046D01*
X137090443Y-119104761D02*
X136976158Y-119190475D01*
X136890443Y-119104761D02*
X137004729Y-119219046D01*
X136985681Y-119019046D02*
X136985681Y-118952380D01*
X137090443Y-118923808D02*
X137090443Y-119019046D01*
X137090443Y-119019046D02*
X136890443Y-119019046D01*
X136890443Y-119019046D02*
X136890443Y-118923808D01*
X136985681Y-118838094D02*
X136985681Y-118771428D01*
X137090443Y-118742856D02*
X137090443Y-118838094D01*
X137090443Y-118838094D02*
X136890443Y-118838094D01*
X136890443Y-118838094D02*
X136890443Y-118742856D01*
X137090443Y-118657142D02*
X136890443Y-118657142D01*
X136890443Y-118657142D02*
X136890443Y-118580952D01*
X136890443Y-118580952D02*
X136899967Y-118561904D01*
X136899967Y-118561904D02*
X136909491Y-118552381D01*
X136909491Y-118552381D02*
X136928539Y-118542857D01*
X136928539Y-118542857D02*
X136957110Y-118542857D01*
X136957110Y-118542857D02*
X136976158Y-118552381D01*
X136976158Y-118552381D02*
X136985681Y-118561904D01*
X136985681Y-118561904D02*
X136995205Y-118580952D01*
X136995205Y-118580952D02*
X136995205Y-118657142D01*
X136890443Y-118419047D02*
X136890443Y-118380952D01*
X136890443Y-118380952D02*
X136899967Y-118361904D01*
X136899967Y-118361904D02*
X136919015Y-118342857D01*
X136919015Y-118342857D02*
X136957110Y-118333333D01*
X136957110Y-118333333D02*
X137023777Y-118333333D01*
X137023777Y-118333333D02*
X137061872Y-118342857D01*
X137061872Y-118342857D02*
X137080920Y-118361904D01*
X137080920Y-118361904D02*
X137090443Y-118380952D01*
X137090443Y-118380952D02*
X137090443Y-118419047D01*
X137090443Y-118419047D02*
X137080920Y-118438095D01*
X137080920Y-118438095D02*
X137061872Y-118457142D01*
X137061872Y-118457142D02*
X137023777Y-118466666D01*
X137023777Y-118466666D02*
X136957110Y-118466666D01*
X136957110Y-118466666D02*
X136919015Y-118457142D01*
X136919015Y-118457142D02*
X136899967Y-118438095D01*
X136899967Y-118438095D02*
X136890443Y-118419047D01*
X136890443Y-118247618D02*
X137052348Y-118247618D01*
X137052348Y-118247618D02*
X137071396Y-118238095D01*
X137071396Y-118238095D02*
X137080920Y-118228571D01*
X137080920Y-118228571D02*
X137090443Y-118209523D01*
X137090443Y-118209523D02*
X137090443Y-118171428D01*
X137090443Y-118171428D02*
X137080920Y-118152380D01*
X137080920Y-118152380D02*
X137071396Y-118142857D01*
X137071396Y-118142857D02*
X137052348Y-118133333D01*
X137052348Y-118133333D02*
X136890443Y-118133333D01*
X136890443Y-118066666D02*
X136890443Y-117952380D01*
X137090443Y-118009523D02*
X136890443Y-118009523D01*
X137840443Y-119628571D02*
X137640443Y-119628571D01*
X137640443Y-119628571D02*
X137640443Y-119580952D01*
X137640443Y-119580952D02*
X137649967Y-119552381D01*
X137649967Y-119552381D02*
X137669015Y-119533333D01*
X137669015Y-119533333D02*
X137688062Y-119523810D01*
X137688062Y-119523810D02*
X137726158Y-119514286D01*
X137726158Y-119514286D02*
X137754729Y-119514286D01*
X137754729Y-119514286D02*
X137792824Y-119523810D01*
X137792824Y-119523810D02*
X137811872Y-119533333D01*
X137811872Y-119533333D02*
X137830920Y-119552381D01*
X137830920Y-119552381D02*
X137840443Y-119580952D01*
X137840443Y-119580952D02*
X137840443Y-119628571D01*
X137840443Y-119428571D02*
X137707110Y-119428571D01*
X137640443Y-119428571D02*
X137649967Y-119438095D01*
X137649967Y-119438095D02*
X137659491Y-119428571D01*
X137659491Y-119428571D02*
X137649967Y-119419048D01*
X137649967Y-119419048D02*
X137640443Y-119428571D01*
X137640443Y-119428571D02*
X137659491Y-119428571D01*
X137840443Y-119333333D02*
X137707110Y-119333333D01*
X137745205Y-119333333D02*
X137726158Y-119323810D01*
X137726158Y-119323810D02*
X137716634Y-119314286D01*
X137716634Y-119314286D02*
X137707110Y-119295238D01*
X137707110Y-119295238D02*
X137707110Y-119276191D01*
X137830920Y-119133333D02*
X137840443Y-119152381D01*
X137840443Y-119152381D02*
X137840443Y-119190476D01*
X137840443Y-119190476D02*
X137830920Y-119209523D01*
X137830920Y-119209523D02*
X137811872Y-119219047D01*
X137811872Y-119219047D02*
X137735681Y-119219047D01*
X137735681Y-119219047D02*
X137716634Y-119209523D01*
X137716634Y-119209523D02*
X137707110Y-119190476D01*
X137707110Y-119190476D02*
X137707110Y-119152381D01*
X137707110Y-119152381D02*
X137716634Y-119133333D01*
X137716634Y-119133333D02*
X137735681Y-119123809D01*
X137735681Y-119123809D02*
X137754729Y-119123809D01*
X137754729Y-119123809D02*
X137773777Y-119219047D01*
X137830920Y-118952380D02*
X137840443Y-118971428D01*
X137840443Y-118971428D02*
X137840443Y-119009523D01*
X137840443Y-119009523D02*
X137830920Y-119028571D01*
X137830920Y-119028571D02*
X137821396Y-119038094D01*
X137821396Y-119038094D02*
X137802348Y-119047618D01*
X137802348Y-119047618D02*
X137745205Y-119047618D01*
X137745205Y-119047618D02*
X137726158Y-119038094D01*
X137726158Y-119038094D02*
X137716634Y-119028571D01*
X137716634Y-119028571D02*
X137707110Y-119009523D01*
X137707110Y-119009523D02*
X137707110Y-118971428D01*
X137707110Y-118971428D02*
X137716634Y-118952380D01*
X137707110Y-118895237D02*
X137707110Y-118819046D01*
X137640443Y-118866665D02*
X137811872Y-118866665D01*
X137811872Y-118866665D02*
X137830920Y-118857142D01*
X137830920Y-118857142D02*
X137840443Y-118838094D01*
X137840443Y-118838094D02*
X137840443Y-118819046D01*
X137840443Y-118723808D02*
X137830920Y-118742856D01*
X137830920Y-118742856D02*
X137811872Y-118752379D01*
X137811872Y-118752379D02*
X137640443Y-118752379D01*
X137707110Y-118666665D02*
X137840443Y-118619046D01*
X137707110Y-118571427D02*
X137840443Y-118619046D01*
X137840443Y-118619046D02*
X137888062Y-118638094D01*
X137888062Y-118638094D02*
X137897586Y-118647617D01*
X137897586Y-118647617D02*
X137907110Y-118666665D01*
X137735681Y-118276189D02*
X137745205Y-118247617D01*
X137745205Y-118247617D02*
X137754729Y-118238094D01*
X137754729Y-118238094D02*
X137773777Y-118228570D01*
X137773777Y-118228570D02*
X137802348Y-118228570D01*
X137802348Y-118228570D02*
X137821396Y-118238094D01*
X137821396Y-118238094D02*
X137830920Y-118247617D01*
X137830920Y-118247617D02*
X137840443Y-118266665D01*
X137840443Y-118266665D02*
X137840443Y-118342855D01*
X137840443Y-118342855D02*
X137640443Y-118342855D01*
X137640443Y-118342855D02*
X137640443Y-118276189D01*
X137640443Y-118276189D02*
X137649967Y-118257141D01*
X137649967Y-118257141D02*
X137659491Y-118247617D01*
X137659491Y-118247617D02*
X137678539Y-118238094D01*
X137678539Y-118238094D02*
X137697586Y-118238094D01*
X137697586Y-118238094D02*
X137716634Y-118247617D01*
X137716634Y-118247617D02*
X137726158Y-118257141D01*
X137726158Y-118257141D02*
X137735681Y-118276189D01*
X137735681Y-118276189D02*
X137735681Y-118342855D01*
X137830920Y-118066665D02*
X137840443Y-118085713D01*
X137840443Y-118085713D02*
X137840443Y-118123808D01*
X137840443Y-118123808D02*
X137830920Y-118142855D01*
X137830920Y-118142855D02*
X137811872Y-118152379D01*
X137811872Y-118152379D02*
X137735681Y-118152379D01*
X137735681Y-118152379D02*
X137716634Y-118142855D01*
X137716634Y-118142855D02*
X137707110Y-118123808D01*
X137707110Y-118123808D02*
X137707110Y-118085713D01*
X137707110Y-118085713D02*
X137716634Y-118066665D01*
X137716634Y-118066665D02*
X137735681Y-118057141D01*
X137735681Y-118057141D02*
X137754729Y-118057141D01*
X137754729Y-118057141D02*
X137773777Y-118152379D01*
X137840443Y-117942855D02*
X137830920Y-117961903D01*
X137830920Y-117961903D02*
X137811872Y-117971426D01*
X137811872Y-117971426D02*
X137640443Y-117971426D01*
X137840443Y-117838093D02*
X137830920Y-117857141D01*
X137830920Y-117857141D02*
X137821396Y-117866664D01*
X137821396Y-117866664D02*
X137802348Y-117876188D01*
X137802348Y-117876188D02*
X137745205Y-117876188D01*
X137745205Y-117876188D02*
X137726158Y-117866664D01*
X137726158Y-117866664D02*
X137716634Y-117857141D01*
X137716634Y-117857141D02*
X137707110Y-117838093D01*
X137707110Y-117838093D02*
X137707110Y-117809522D01*
X137707110Y-117809522D02*
X137716634Y-117790474D01*
X137716634Y-117790474D02*
X137726158Y-117780950D01*
X137726158Y-117780950D02*
X137745205Y-117771426D01*
X137745205Y-117771426D02*
X137802348Y-117771426D01*
X137802348Y-117771426D02*
X137821396Y-117780950D01*
X137821396Y-117780950D02*
X137830920Y-117790474D01*
X137830920Y-117790474D02*
X137840443Y-117809522D01*
X137840443Y-117809522D02*
X137840443Y-117838093D01*
X137707110Y-117704760D02*
X137840443Y-117666665D01*
X137840443Y-117666665D02*
X137745205Y-117628570D01*
X137745205Y-117628570D02*
X137840443Y-117590474D01*
X137840443Y-117590474D02*
X137707110Y-117552379D01*
D11*
%TO.C,H2*%
X198200000Y-135000000D02*
G75*
G02*
X191800000Y-135000000I-3200000J0D01*
G01*
X191800000Y-135000000D02*
G75*
G02*
X198200000Y-135000000I3200000J0D01*
G01*
%TO.C,H1*%
X140200000Y-135000000D02*
G75*
G02*
X133800000Y-135000000I-3200000J0D01*
G01*
X133800000Y-135000000D02*
G75*
G02*
X140200000Y-135000000I3200000J0D01*
G01*
%TO.C,H3*%
X187200000Y-79000000D02*
G75*
G02*
X180800000Y-79000000I-3200000J0D01*
G01*
X180800000Y-79000000D02*
G75*
G02*
X187200000Y-79000000I3200000J0D01*
G01*
%TD*%
M02*
